<svg width="264" height="313" xmlns="http://www.w3.org/2000/svg"><path d="M126.233 134.549c.591-1.554 1.235-2.651 1.43-2.438.196.219-.034 7.142-.51 15.389-.475 8.25-.526 19.838-.112 25.75.413 5.91.443 10.746.064 10.75-1.258 0-3.068-10.374-3.586-20.565-.519-10.198.752-23.724 2.714-28.886Zm37.519-29.686c7.4-3.366 16.37-2.074 22.879 3.296 4.033 3.326 7.561 9.664 7.599 13.65.029 3.054-1.659 1.919-2.441-1.641-.904-4.117-6.299-10.155-10.966-12.275-5.519-2.507-14.038-2.459-19.071.107-4.763 2.428-5.13 2.465-3.372.342.754-.913 3.172-2.478 5.372-3.479Z"/><path fill-rule="evenodd" clip-rule="evenodd" d="M87.752 112.665c6.282-3.319 16.912-1.292 21.848 4.166 1.613 1.784 1.696 2.505.651 5.672-2.8 8.485-12.894 14.693-24.2 14.883-3.738.063-6.796.403-6.798.755-.002 1.229 8.067 3.859 11.77 3.837 4.535-.028 11.752-3.162 15.479-6.724 3.236-3.093 3.666-1.689.655 2.139-2.382 3.028-7.852 6.022-12.69 6.945-7.528 1.435-19.718-3.961-22.44-9.932-.83-1.824-1.726-2.398-3.213-2.062-1.133.256-2.946.132-4.026-.277-1.738-.658-1.63-.827.94-1.472 1.627-.408 6.455-4.167 10.965-8.537 4.432-4.295 9.409-8.521 11.059-9.393Zm12.297 2.339c-.386-.001-.458 2.134-.16 4.746.452 3.93.18 5.136-1.573 6.988-1.166 1.231-3.279 2.529-4.697 2.885-3.616.907-9.155-1.928-9.95-5.094-.348-1.39-.863-2.528-1.142-2.529-.918 0-8.273 7.977-8.275 8.975 0 .536 1.433 1.715 3.184 2.62 7.455 3.856 22.572-.232 27.751-7.503 2.97-4.172 2.631-6.776-1.185-9.103-1.787-1.09-3.566-1.983-3.953-1.985Z"/><path d="M83.752 104.207c6.927-2.422 17.666-.344 21.372 4.135 1.819 2.197.976 2.091-3.268-.413-4.376-2.582-12.51-2.751-18.428-.383-4.817 1.928-10.767 8.316-11.7 12.56-1.011 4.605-2.88 4.87-2.03.289 1.35-7.277 6.922-13.695 14.054-16.188Z"/><path fill-rule="evenodd" clip-rule="evenodd" d="M131.81 0c1.492 0 16.423 11.066 28.942 21.45 11.119 9.223 30.35 28.312 39.342 39.05 7.455 8.904 22.542 30.984 23.731 34.73.464 1.461 1.203 1.792 2.996 1.342 4.823-1.21 13.91-1.103 16.824-.26 2.075.6 4.784 1.545 7.053 3.815.747 2.917-.031 5.979-1.257 4.512l-.588-1.087c-1.45-2.865-10.82-5.724-17.194-4.696-10.102 1.629-14.407 3.067-14.407 4.814 0 2.022 5.988 7.715 9.967 9.476 1.668.738 3.033 1.745 3.033 2.238 0 1.356-3.262 3.548-5.333 3.584-2.718.047-1.541 2.149 3.097 5.532 2.263 1.65 4.141 3.347 4.175 3.771.033.426-1.065 1.284-2.439 1.911-3.355 1.528-3.154 4 .5 6.159 3.409 2.014 3.811 3.531 1.161 4.323l-.598.167c-1.558.473-1.649 1.134-1.022 4.563.413 2.258 1.023 7.931 1.355 12.606l.604 8.5 2.636-3.5c3.738-4.964 8.504-14.116 10.661-20.17 2.157-6.054 3.728-10.481 5.039-22.419 2.648.842-1.311 22.221-1.311 22.221-.052 6.325-.274 13.222-.525 12.26-.736-2.813-3.321-2.23-6.408 3.678-1.599 3.061-4.829 7.702-7.177 10.314-2.75 3.058-5.03 7.004-6.403 11.081-4.031 11.964-12.157 25.813-22.31 38.021-2.51 3.017-4.446 5.603-4.303 5.747.153.14 5.122-1.572 11.053-3.807 11.181-4.213 25.909-7.594 31.613-8.265 2.526-.297 4.417-.471 5.829-.531 3.569-.153 4.082.419 4.082 1.561 0 1.546.992 1.633 1.479 2.309-14.278.199-39.132 6.78-53.297 13.703-6.959 3.4-28.641 16.834-31.967 19.806-.17.152.446 2.875 1.369 6.051 1.923 6.614 1.508 13.133-1.198 18.807l-1.774 3.72-1.818-3.543c-.999-1.949-2.193-3.544-2.651-3.544-.459 0-1.125 2.788-1.482 6.195-.729 6.979-3.862 14.32-6.777 15.88-1.569.84-2.309.595-3.828-1.267-1.837-2.251-1.901-2.259-2.593-.308-3.722 10.5-8.524 16.234-16.837 20.105-7.266 3.383-8.232 3.205-7.789-1.441.312-3.276-.195-4.486-3.474-8.287-2.111-2.447-4.603-5.559-5.537-6.914-1.668-2.421-1.698-2.426-1.75-.272-.05 2.085-2.052 4.484-2.052 2.458 0-.533-2.063-2.922-4.585-5.309s-5.409-5.915-6.416-7.84l-1.83-3.5-1.06 2.75c-.583 1.512-1.486 2.749-2.005 2.75-1.541 0-6.88-11.606-8.148-17.713-.665-3.201-.892-8.065-.523-11.219 1.296-11.099 1.737-10.021-6.433-15.74-8.845-6.192-28.796-16.279-38-19.214-10.499-3.348-20.762-5.196-32.376-5.832L0 214.687l.516-9.593c.6-11.164 5.367-30.665 11.709-47.9 4.143-11.259 4.15-11.306 2.618-15.993-2.231-6.822-4.603-21.577-4.514-28.082.176-12.886 3.898-17.497 14.185-17.573 3.43-.025 8.038.271 10.238.657l4 .704 5.335-9.024C59.377 62.02 85.962 33.947 119.103 8.66 125.343 3.898 131.062.001 131.81 0Zm47.144 74.182c-12.782-4.732-30.3-2.483-43.575 5.593l-3.372 2.052-6.135-3.372c-8.859-4.869-17.058-6.71-28.003-6.286-7.233.28-10.271.892-14.703 2.962-10.732 5.01-17.594 15.01-18.653 27.178-.53 6.075-.665 6.316-7.293 12.883-7.873 7.801-14.89 18.61-18.05 27.808-3.057 8.896-3.678 22.35-1.43 31 10.083 38.793 60.102 84 92.94 84 10.394 0 15.16-1.274 28.072-7.506 28.816-13.906 54.681-41.79 65.393-70.494 8.296-22.231 1.803-46.602-17.442-65.466-6.002-5.884-6.17-6.191-6.714-12.341-1.086-12.284-9.763-23.838-21.035-28.011ZM16.832 156.463c-5.619 13.448-12.58 41.002-12.58 49.794v4.444l8.823.626c12.11.859 21.59 2.939 35.48 7.784 6.49 2.264 12.086 3.834 12.431 3.488.345-.347-.76-2.085-2.456-3.864-8.569-8.985-20.255-28.85-23.376-39.735-.772-2.694-3.12-6.53-5.846-9.557-2.506-2.782-5.977-7.705-7.713-10.941l-3.156-5.883-1.607 3.844Zm12.1-57.9c-12.404-1.165-15.446 3.069-14.32 19.937 1.035 15.503 8.12 36.663 15.068 45l2.5 3 .06-6c.054-5.319 1.012-11.456 2.616-16.749.371-1.224-.242-2.043-2.037-2.725-3.33-1.267-3.238-2.199.433-4.367 3.713-2.193 3.855-4.948.337-6.551l-2.662-1.213 4.912-4.343c2.701-2.388 4.687-4.501 4.413-4.697-.275-.195-1.814-1.03-3.42-1.855-3.867-1.987-4.259-3.613-1.063-4.415 3.448-.865 12.034-9.434 10.745-10.723-.531-.531-3.313-1.584-6.183-2.341-2.87-.757-8-1.638-11.4-1.957ZM132.849 4.8c-2.049-1.152-24.971 16.816-43.892 34.406-11.466 10.66-24.77 25.98-33.528 38.615-5.885 8.489-12.423 19.264-11.967 19.723.162.16 1.426.577 2.81.925 2.276.57 2.783.08 5.35-5.17 11.748-24.034 35.222-41.991 62.411-47.74 7.997-1.691 26.072-1.98 33.219-.53 28.273 5.731 51.45 22.624 63.562 46.33 3.612 7.068 4.145 7.656 6.436 7.093 1.374-.338 2.658-.775 2.855-.97.611-.612-9.404-16.592-15.657-24.982-14.356-19.264-34.821-39.497-58.428-57.767-6.562-5.078-12.489-9.548-13.171-9.933Zm6.068 46.998c-5.123-2.755-6.014-2.383-5.281 2.202.352 2.199.394 3.998.095 4-1.215 0-11.027-5.338-11.675-6.352-1.286-2.016-2.046 2.22-.958 5.34.576 1.656.906 3.011.729 3.012-.176 0-2.421-.93-4.988-2.065-5.722-2.531-9.203-2.291-8.809.607.22 1.624-.27 2.033-2.403 2-4.685-.073-3.607 2.02 1.943 3.769 6.689 2.108 6.682 2.109 6.682-.311 0-2.824.827-2.57 8.072 2.481l6.428 4.48.613-9.048 4.924 3.614c5.925 4.35 7.398 3.86 6.496-2.153l-.658-4.389 5.813 3.505c3.196 1.928 6.15 3.506 6.562 3.507.412.002.75-1.797.75-3.997 0-4.547.135-4.624 4.065-2.303 2.981 1.761 4.554 1.359 3.672-.94-.813-2.12-7.976-6.655-11.68-7.396-2.685-.537-3.282-.384-2.862.73.292.775.869 2.49 1.283 3.81l.752 2.399-3.2-2.4c-1.76-1.32-4.624-3.166-6.365-4.102Z"/><path d="M248.252 154.892c0-2.874.302-12.489.525-12.26-.727 9.993 7.523 28.779 9.925 37.649 3.466 12.806 5.832 27.403 5.086 31.38l-.627 3.339h-7.454c-6.788 0-7.455-.179-7.455-2 0-1.167.295-1.667 1.894-1.87.803-.102 1.934-.13 3.523-.13 3.212 0 5.573-.471 5.802-1.157 1.222-3.666-3.253-25.684-8.339-41.034-1.326-5.279-2.07-10.809-2.88-13.917Zm2.446-54.765c2.3 2.976 3.589 20.545-.039 35.005l-1.882 7.5s3.959-21.379 1.311-22.221c.042-8.306.946-12.386-.647-15.772 1.072.881 1.533-2.611 1.257-4.512Z"/><path fill-rule="evenodd" clip-rule="evenodd" d="M122.962 96.827c-6.297-1.41-16.005-7.236-23.072-13.846l-6.284-5.88-8.405 8.45C77.386 93.406 76.99 94 79.553 94c1.516 0 5.371-1.32 8.567-2.933l5.81-2.933 5.91 3.942c7.201 4.801 15.194 7.924 20.283 7.924 2.088 0 4.067.271 4.398.602.569.569-.985 4.842-3.781 10.398-2.021 4.016-9.308 27.146-12.056 38.269-1.39 5.627-2.796 14.385-3.125 19.462-.574 8.856-.488 9.397 2.122 13.341 1.497 2.261 2.452 4.381 2.123 4.709-1.041 1.038-18.636-2.765-29.466-6.369-15.067-5.015-27.086-12.838-27.086-17.632 0-2.54-2.137-1.807-3.783 1.299-1.511 2.85-.829 9.209 1.315 12.27 1.378 1.967 1.468 1.8 1.468-2.715v-4.812l3.134 2.637c1.723 1.45 4.794 3.484 6.825 4.52 3.268 1.667 3.839 2.541 4.972 7.602 2.742 12.254 13.654 28.711 25.561 38.55 6.498 5.369 21.858 13.423 27.508 14.423 8.781 1.554 15.801 1.556 22.435.008 19.713-4.602 38.933-20.578 49.062-40.782 2.404-4.797 4.668-10.7 5.031-13.119.568-3.784 1.205-4.705 4.564-6.592 2.147-1.207 5.255-3.331 6.906-4.721l3.002-2.526v4.812c0 4.515.09 4.682 1.468 2.715 2.144-3.061 2.826-9.42 1.315-12.27-1.809-3.414-3.783-3.803-3.783-.746 0 2.715-3.909 6.239-12.193 10.992-10.253 5.882-44.806 15.2-44.807 12.083 0-.326.893-1.728 1.985-3.116 3.127-3.975 3.928-8.472 2.943-16.51-.797-6.498-2.219-14.056-3.578-19.017-.399-1.458.366-1.298 4.796 1 7.213 3.743 19.038 3.906 25.854.358 6.142-3.198 9.703-6.705 12.818-12.623 2.153-4.091 2.636-6.364 2.657-12.5.021-6.464-.383-8.237-2.929-12.833-3.512-6.34-7.161-9.62-14.407-12.951-4.57-2.101-6.417-2.396-12.5-1.998-4.486.293-8.625 1.236-11.139 2.539-4.746 2.46-10.596 8.388-13.016 13.188l-1.737 3.444-2.873-6.33c-3.815-8.405-3.737-9.059 1.088-9.059 5.115 0 13.701-3.235 20.209-7.615 2.828-1.903 5.447-3.65 5.819-3.88.372-.228 3.114.896 6.093 2.5 5.037 2.71 11.082 3.969 10.79 2.245-.069-.412-3.619-4.044-7.887-8.071l-7.76-7.32-8.126 6.56c-8.863 7.156-15.717 11.036-21.983 12.443-3.659.823-4.184.684-5.601-1.477-1.986-3.032-4.046-3.032-6.032 0-1.431 2.183-1.919 2.305-5.774 1.442Zm46.843 90.584c6.769-1.606 7.447-1.611 7.447-.061 0 2.301-5.804 9.497-8.988 11.144-2.915 1.507-3.067 1.478-4.096-.78-.682-1.497-.751-3.571-.19-5.737.784-3.031 1.406-3.517 5.827-4.566Zm-40.754-86.289c2.398-4.13 2.622-4.272 3.985-2.5.795 1.033 2.914 5.045 4.709 8.916 7.298 15.74 16.235 47.748 17.239 61.743.551 7.683.513 7.846-3.042 13-4.832 7.006-12.403 14.3-16.697 16.085-2.972 1.235-3.993 1.253-6.695.117-4.548-1.912-11.656-8.77-16.304-15.73-4.754-7.119-4.989-10.055-1.985-24.797 4.167-20.449 12.764-46.451 18.79-56.834Zm-42.294 86.992c-.648-2.13-.472-2.325 1.634-1.818 1.299.312 4.061.876 6.138 1.252 2.091.379 4.212 1.496 4.75 2.503 1.324 2.474 1.227 7.295-.176 8.698-2.452 2.45-10.462-4.449-12.346-10.635Zm74.956-87.236c6.216-2.823 15.867-2.516 22.344.712 6.473 3.226 10.808 8.353 12.792 15.13 1.715 5.86 1.542 12.415-.344 13.035-.685.225-5.257-3.448-10.156-8.162-4.901-4.714-10.107-9.026-11.569-9.582-6.469-2.46-16.299-.241-20.752 4.683-4.189 4.632 3.647 15.599 13.531 18.937 2.856.965 7.78 1.78 10.942 1.812 3.161.031 5.747.346 5.75.698.002 1.223-8.057 3.859-11.769 3.849-4.635-.012-13.426-4.004-15.575-7.073-.885-1.263-1.927-1.979-2.315-1.59-1.324 1.324 3.254 6.167 8.141 8.615 9.441 4.728 20.495 2.414 27.476-5.753 3.016-3.529 4.258-4.374 5.137-3.495 1.321 1.321-1.282 6.257-5.282 10.011-6.862 6.442-19.307 8.164-28.312 3.918-7.056-3.328-8.928-5.866-12.043-16.33-2.505-8.417-2.631-9.599-1.466-13.76 1.585-5.662 8.075-13.204 13.47-15.655Zm-5.457 19.857c-.004-1.539 5.249-5.721 7.199-5.731.386-.002.446 2.163.133 4.809-.533 4.495-.359 4.99 2.624 7.5 1.756 1.478 4.038 2.687 5.07 2.687 3.323 0 7.08-2.313 8.632-5.313l1.512-2.923 3.913 3.821c2.152 2.101 3.913 4.392 3.913 5.092 0 .7-1.433 2.013-3.185 2.918-4.807 2.486-15.298 1.484-21.303-2.035-4.693-2.75-8.501-7.595-8.508-10.825Zm-46.881 82.218c-2.25-3.601-4.368-7.928-4.706-9.616l-.613-3.069 5.265.832c3.811.602 6.136 1.676 8.414 3.884 1.097 1.062 2.19 1.879 2.94 2.239 1.769 1.738 8.393 5.77 10.877 5.773 3.856.005 8.43-2.471 13.381-7.245 3.523-3.397 5-4.11 9.393-4.532l5.214-.501-.705 2.891c-2.291 9.398-18.728 29.385-25.363 30.843-6.127 1.345-14.472-6.1-24.097-21.499Z"/><path fill-rule="evenodd" clip-rule="evenodd" d="M178.954 74.182c-12.782-4.732-30.3-2.483-43.575 5.593l-3.372 2.052-6.135-3.372c-8.859-4.869-17.058-6.71-28.003-6.286-7.233.28-10.271.892-14.703 2.962-10.732 5.01-17.594 15.01-18.653 27.178-.53 6.075-.665 6.316-7.293 12.883-7.873 7.801-14.89 18.61-18.05 27.808-3.057 8.896-3.678 22.35-1.43 31 10.083 38.793 60.102 84 92.94 84 10.394 0 15.16-1.274 28.072-7.506 28.816-13.906 54.681-41.79 65.393-70.494 8.296-22.231 1.803-46.602-17.442-65.466-6.002-5.884-6.17-6.191-6.714-12.341-1.086-12.284-9.763-23.838-21.035-28.011Zm-55.992 22.645c-6.297-1.41-16.005-7.236-23.072-13.846l-6.284-5.88-8.405 8.45C77.386 93.406 76.99 94 79.553 94c1.516 0 5.371-1.32 8.567-2.933l5.81-2.933 5.91 3.942c7.201 4.801 15.194 7.924 20.283 7.924 2.088 0 4.067.271 4.398.602.569.569-.985 4.842-3.781 10.398-2.021 4.016-9.308 27.146-12.056 38.269-1.39 5.627-2.796 14.385-3.125 19.462-.574 8.856-.488 9.397 2.122 13.341 1.497 2.261 2.452 4.381 2.123 4.709-1.041 1.038-18.636-2.765-29.466-6.369-15.067-5.015-27.086-12.838-27.086-17.632 0-2.54-2.137-1.807-3.783 1.299-1.511 2.85-.829 9.209 1.315 12.27 1.378 1.967 1.468 1.8 1.468-2.715v-4.812l3.134 2.637c1.723 1.45 4.794 3.484 6.825 4.52 3.268 1.667 3.839 2.541 4.972 7.602 2.742 12.254 13.654 28.711 25.561 38.55 6.498 5.369 21.858 13.423 27.508 14.423 8.781 1.554 15.801 1.556 22.435.008 19.713-4.602 38.933-20.578 49.062-40.782 2.404-4.797 4.668-10.7 5.031-13.119.568-3.784 1.205-4.705 4.564-6.592 2.147-1.207 5.255-3.331 6.906-4.721l3.002-2.526v4.812c0 4.515.09 4.682 1.468 2.715 2.144-3.061 2.826-9.42 1.315-12.27-1.809-3.414-3.783-3.803-3.783-.746 0 2.715-3.909 6.239-12.193 10.992-10.253 5.882-44.806 15.2-44.807 12.083 0-.326.893-1.728 1.985-3.116 3.127-3.975 3.928-8.472 2.943-16.51-.797-6.498-2.219-14.056-3.578-19.017-.399-1.458.366-1.298 4.796 1 7.213 3.743 19.038 3.906 25.854.358 6.142-3.198 9.703-6.705 12.818-12.623 2.153-4.091 2.636-6.364 2.657-12.5.021-6.464-.383-8.237-2.929-12.833-3.512-6.34-7.161-9.62-14.407-12.951-4.57-2.101-6.417-2.396-12.5-1.998-4.486.293-8.625 1.236-11.139 2.539-4.746 2.46-10.596 8.388-13.016 13.188l-1.737 3.444-2.873-6.33c-3.815-8.405-3.737-9.059 1.088-9.059 5.115 0 13.701-3.235 20.209-7.615 2.828-1.903 5.447-3.65 5.819-3.88.372-.228 3.114.896 6.093 2.5 5.037 2.71 11.082 3.969 10.79 2.245-.069-.412-3.619-4.044-7.887-8.071l-7.76-7.32-8.126 6.56c-8.863 7.156-15.717 11.036-21.983 12.443-3.659.823-4.184.684-5.601-1.477-1.986-3.032-4.046-3.032-6.032 0-1.431 2.183-1.919 2.305-5.774 1.442ZM109.6 116.831c-4.936-5.458-15.566-7.485-21.848-4.166-1.65.872-6.627 5.098-11.059 9.393-4.51 4.37-9.338 8.129-10.965 8.537-2.57.645-2.678.814-.94 1.472 1.08.409 2.892.533 4.026.277 1.487-.336 2.382.238 3.213 2.062 2.722 5.971 14.912 11.367 22.44 9.932 4.838-.923 10.308-3.917 12.69-6.945 3.011-3.828 2.581-5.232-.655-2.139-3.727 3.562-10.944 6.696-15.48 6.724-3.703.022-11.771-2.608-11.77-3.837.003-.352 3.061-.692 6.799-.755 11.306-.19 21.4-6.398 24.2-14.883 1.045-3.167.962-3.888-.651-5.672Zm-4.476-8.489c-3.706-4.479-14.445-6.557-21.372-4.135-7.132 2.493-12.705 8.911-14.054 16.188-.85 4.581 1.019 4.316 2.03-.289.933-4.244 6.883-10.632 11.7-12.56 5.919-2.368 14.052-2.199 18.428.383 4.244 2.504 5.087 2.61 3.268.413Z" fill="#BA9CC8"/><path fill-rule="evenodd" clip-rule="evenodd" d="M133.036 98.622c-1.363-1.772-1.587-1.63-3.985 2.5-6.026 10.383-14.623 36.385-18.79 56.834-3.004 14.742-2.769 17.678 1.985 24.797 4.648 6.96 11.756 13.818 16.304 15.73 2.702 1.136 3.723 1.118 6.695-.117 4.294-1.785 11.865-9.079 16.697-16.085 3.555-5.154 3.593-5.317 3.042-13-1.004-13.995-9.941-46.003-17.239-61.743-1.795-3.871-3.914-7.883-4.709-8.916Zm-5.373 33.489c-.195-.213-.839.884-1.43 2.438-1.962 5.162-3.233 18.688-2.714 28.886.518 10.191 2.328 20.565 3.586 20.565.379-.004.349-4.84-.064-10.75-.414-5.912-.363-17.5.112-25.75.476-8.247.706-15.17.51-15.389Z" fill="#BA9CC8"/><path d="m249.441 104.639-.588-1.087c-1.45-2.865-10.82-5.724-17.194-4.696-10.102 1.629-14.407 3.067-14.407 4.814 0 2.022 5.988 7.715 9.967 9.476 1.668.738 3.033 1.745 3.033 2.238 0 1.356-3.262 3.548-5.333 3.584-2.718.047-1.541 2.149 3.097 5.532 2.263 1.65 4.141 3.347 4.175 3.771.033.426-1.065 1.284-2.439 1.911-3.355 1.528-3.154 4 .5 6.159 3.409 2.014 3.811 3.531 1.161 4.323l-.598.167c-1.558.473-1.649 1.134-1.022 4.563.413 2.258 1.023 7.931 1.355 12.606l.604 8.5 2.636-3.5c3.738-4.964 8.504-14.116 10.661-20.17 2.157-6.054 3.728-10.481 5.039-22.419.042-8.306.946-12.386-.647-15.772Z" fill="#B99CC7"/><path d="M28.932 98.564c-12.404-1.166-15.446 3.068-14.32 19.936 1.035 15.503 8.12 36.663 15.068 45l2.5 3 .06-6c.054-5.319 1.012-11.456 2.616-16.749.371-1.224-.242-2.043-2.037-2.725-3.33-1.267-3.238-2.199.433-4.367 3.713-2.193 3.855-4.948.337-6.551l-2.662-1.213 4.912-4.343c2.701-2.388 4.687-4.501 4.413-4.697-.275-.195-1.814-1.03-3.42-1.855-3.867-1.987-4.259-3.613-1.063-4.415 3.448-.865 12.034-9.434 10.745-10.723-.531-.531-3.313-1.584-6.183-2.341-2.87-.757-8-1.638-11.4-1.957Z" fill="#BA9CC8"/><path d="M104.669 193.337c.338 1.688 2.456 6.015 4.706 9.616 9.625 15.399 17.97 22.844 24.097 21.499 6.635-1.458 23.072-21.445 25.363-30.843l.705-2.891-5.214.501c-4.393.422-5.87 1.135-9.393 4.532-4.951 4.774-9.525 7.25-13.381 7.245-2.484-.003-9.108-4.035-10.877-5.773-.75-.36-1.843-1.177-2.94-2.239-2.278-2.208-4.603-3.282-8.414-3.884l-5.265-.832.613 3.069Z" fill="#C8197B"/><path d="M132.849 4.8c-2.049-1.152-24.971 16.816-43.892 34.406-11.466 10.66-24.77 25.98-33.528 38.615-5.885 8.489-12.423 19.264-11.967 19.723.162.16 1.426.577 2.81.925 2.276.57 2.783.08 5.35-5.17 11.748-24.034 35.222-41.991 62.411-47.74 7.997-1.691 26.072-1.98 33.219-.53 28.273 5.731 51.45 22.624 63.562 46.33 3.612 7.068 4.145 7.656 6.436 7.093 1.374-.338 2.658-.775 2.855-.97.611-.612-9.404-16.592-15.657-24.982-14.356-19.264-34.821-39.497-58.428-57.767-6.562-5.078-12.489-9.548-13.171-9.933ZM16.832 156.463c-5.619 13.448-12.58 41.002-12.58 49.794v4.444l8.823.626c12.11.859 21.59 2.939 35.48 7.784 6.49 2.264 12.086 3.834 12.431 3.488.345-.347-.76-2.085-2.456-3.864-8.569-8.985-20.255-28.85-23.376-39.735-.772-2.694-3.12-6.53-5.846-9.557-2.506-2.782-5.977-7.705-7.713-10.941l-3.156-5.883-1.607 3.844Zm231.42-1.571c-.736-2.813-3.321-2.23-6.408 3.678-1.599 3.061-4.829 7.702-7.177 10.314-2.75 3.058-5.03 7.004-6.403 11.081-4.031 11.964-12.157 25.813-22.31 38.021-2.51 3.017-4.446 5.603-4.303 5.747.153.14 5.122-1.572 11.053-3.807 11.181-4.213 25.909-7.594 31.613-8.265 2.526-.297 4.417-.471 5.829-.531.803-.102 1.934-.13 3.523-.13 3.212 0 5.573-.471 5.802-1.157 1.222-3.666-3.253-25.684-8.339-41.034-1.326-5.279-2.07-10.809-2.88-13.917Z" fill="#1AA35E"/><path fill-rule="evenodd" clip-rule="evenodd" d="M184.057 101.59c-6.477-3.228-16.128-3.535-22.344-.712-5.395 2.451-11.885 9.993-13.47 15.655-1.165 4.161-1.039 5.343 1.466 13.76 3.115 10.464 4.987 13.002 12.043 16.33 9.005 4.246 21.45 2.524 28.312-3.918 4-3.754 6.603-8.69 5.282-10.011-.879-.879-2.121-.034-5.137 3.495-6.981 8.167-18.035 10.481-27.476 5.753-4.887-2.448-9.465-7.291-8.141-8.615.388-.389 1.43.327 2.315 1.59 2.149 3.069 10.94 7.061 15.575 7.073 3.712.01 11.771-2.626 11.769-3.849-.003-.352-2.589-.667-5.75-.698-3.162-.032-8.086-.847-10.942-1.812-9.884-3.338-17.72-14.305-13.531-18.937 4.453-4.924 14.283-7.143 20.752-4.683 1.462.556 6.668 4.868 11.569 9.582 4.899 4.714 9.471 8.387 10.156 8.162 1.886-.62 2.059-7.175.344-13.035-1.984-6.777-6.319-11.904-12.792-15.13Zm2.574 6.569c-6.509-5.37-15.479-6.662-22.879-3.296-2.2 1.001-4.618 2.566-5.372 3.479-1.758 2.123-1.391 2.086 3.372-.342 5.033-2.566 13.552-2.614 19.071-.107 4.667 2.12 10.062 8.158 10.966 12.275.782 3.56 2.47 4.695 2.441 1.641-.038-3.986-3.566-10.324-7.599-13.65Z" fill="#E5D9EA"/><path d="M138.917 51.798c-5.123-2.755-6.014-2.383-5.281 2.202.352 2.199.394 3.998.095 4-1.215 0-11.027-5.338-11.675-6.352-1.286-2.016-2.046 2.22-.958 5.34.576 1.656.906 3.011.729 3.012-.176 0-2.421-.93-4.988-2.065-5.722-2.531-9.203-2.291-8.809.607.22 1.624-.27 2.033-2.403 2-4.685-.073-3.607 2.02 1.943 3.769 6.689 2.108 6.682 2.109 6.682-.311 0-2.824.827-2.57 8.072 2.481l6.428 4.48.613-9.048 4.924 3.614c5.925 4.35 7.398 3.86 6.496-2.153l-.658-4.389 5.813 3.505c3.196 1.928 6.15 3.506 6.562 3.507.412.002.75-1.797.75-3.997 0-4.547.135-4.624 4.065-2.303 2.981 1.761 4.554 1.359 3.672-.94-.813-2.12-7.976-6.655-11.68-7.396-2.685-.537-3.282-.384-2.862.73.292.775.869 2.49 1.283 3.81l.752 2.399-3.2-2.4c-1.76-1.32-4.624-3.166-6.365-4.102Zm24.538 63.206c-1.95.01-7.203 4.192-7.199 5.731.007 3.23 3.815 8.075 8.508 10.825 6.005 3.519 16.496 4.521 21.303 2.035 1.752-.905 3.185-2.218 3.185-2.918 0-.7-1.761-2.991-3.913-5.092l-3.913-3.821-1.512 2.923c-1.552 3-5.309 5.313-8.632 5.313-1.032 0-3.314-1.209-5.07-2.687-2.983-2.51-3.157-3.005-2.624-7.5.313-2.646.253-4.811-.133-4.809Zm-63.406 0c-.386-.001-.458 2.134-.16 4.746.452 3.93.18 5.136-1.573 6.988-1.166 1.231-3.279 2.529-4.697 2.885-3.616.907-9.155-1.928-9.95-5.094-.348-1.39-.863-2.528-1.142-2.529-.918 0-8.273 7.977-8.275 8.975 0 .536 1.433 1.715 3.184 2.62 7.455 3.856 22.572-.232 27.751-7.503 2.97-4.172 2.631-6.776-1.185-9.103-1.787-1.09-3.566-1.983-3.953-1.985Zm77.203 72.346c0-1.55-.678-1.545-7.447.061-4.421 1.049-5.043 1.535-5.827 4.566-.561 2.166-.492 4.24.19 5.737 1.029 2.258 1.181 2.287 4.096.78 3.184-1.647 8.988-8.843 8.988-11.144Zm-88.862-1.054c-2.105-.507-2.281-.312-1.633 1.818 1.884 6.186 9.894 13.085 12.346 10.635 1.403-1.403 1.5-6.224.176-8.698-.538-1.007-2.659-2.124-4.75-2.503-2.077-.376-4.84-.94-6.138-1.252Z" fill="#fff"/></svg>