<svg width="147" height="184" xmlns="http://www.w3.org/2000/svg"><path d="M77.737 66.498c.89 0 4.46 3.03 5.592 4.744 1.254 1.9 1.722 6.402.919 8.841-1.209 3.671-5.655 6.195-10.958 6.22-5.102.023-8.837-2.028-10.792-5.925-2.238-4.461.02-10.98 4.585-13.235 1.593-.788 2.249-.805 2.249-.062 0 .32-.69.935-1.533 1.366-5.338 2.73-6.34 10.142-1.9 14.051 1.865 1.641 3.842 2.27 7.162 2.28 6.665.017 10.163-2.813 10.155-8.214-.005-3.245-.939-5.046-3.748-7.233-2.203-1.715-2.886-2.833-1.73-2.833Zm31.984-12.91c1.367.159 2.351 2.202 2.66 5.517.254 2.724-.482 5.126-1.716 5.601-.767.295-2.466-.78-2.467-1.562 0-.705 1.425-.78 1.704-.09.388.96 1.032-.64 1.038-2.58.007-2.196-.715-5.389-1.218-5.389-.19 0-.346.177-.346.393 0 .217-.265.394-.589.394-.62 0-.753-.685-.342-1.76.161-.419.605-.602 1.276-.524ZM36.06 52.542c1.017-.715 1.277-.737 2.283-.197.435.234.76.82.76 1.377 0 1.131-.67 1.264-1.422.28-.46-.601-.577-.614-.925-.098-.67.992-1.183 3.248-1.185 5.217-.002 1.803.037 1.867 1.077 1.77 1.434-.132 1.595.512.359 1.437-.944.707-1.056.711-2.004.089-.886-.582-1.005-.928-1.005-2.94 0-2.935.96-6.16 2.062-6.935Z"/><path fill-rule="evenodd" clip-rule="evenodd" d="M53.892 3.164C57.37-.91 63.622-1.072 67.63 2.81l1.242 1.204 1.506-1.211C71.996 1.503 74.726.38 76.273.38c2.085 0 4.51.936 6.107 2.356l1.656 1.474 1.383-1.112c3.756-3.02 8.659-3.01 11.802.023.793.765 1.518 1.632 1.611 1.927.126.398.62.234 1.922-.637 2.486-1.662 4.372-2.17 7.41-1.998 3.002.17 5.946 1.455 7.203 3.142 1.667 2.238 1.489 6.358-.36 8.358-1.663 1.797-3.417 2.334-7.692 2.35l-3.828.013v1.798c0 3.716 1.841 31.895 2.102 32.165.089.09.826-.29 1.637-.842 4.483-3.049 8.456.96 9.085 9.163.317 4.15-.368 7.243-2 9.029-1.096 1.199-1.572 1.416-3.44 1.571-1.211.1-2.529-.014-2.985-.259-.45-.24-.897-.305-.992-.142-.096.168.331 7.916.946 17.22.615 9.307 1.124 17.582 1.131 18.388.011 1.223.207 1.566 1.183 2.072 1.675.869 2.363 2.476 2.363 5.523v2.606l2.742 3.334c5.86 7.128 11.067 16.012 14.714 25.099 2.065 5.145 4.524 14.429 4.527 17.085.002 1.541-.108 1.731-1.22 2.119-1.182.414-1.214.484-.984 2.242.153 1.171.765 7.442 1.574 16.052h11.63a1.5 1.5 0 0 1 0 3H1.5a1.5 1.5 0 0 1 0-3h11.665c.204-1.213.411-2.447.624-3.697.966-5.676 1.758-10.679 1.758-11.118 0-.663-.256-.798-1.513-.798-3.127 0-6.297-.505-6.5-1.034-.638-1.672 7.897-24.907 11.62-31.631 1.475-2.665 6.725-9.669 10.653-14.213l2.93-3.39.285-4.678c.313-5.102.843-6.694 2.357-7.076.535-.135.974-.314.976-.399 0-.085.804-8.144 1.788-17.908.983-9.765 1.727-17.815 1.653-17.89-.075-.073-.836.116-1.69.42-3.417 1.22-6.107.352-7.476-2.412-1.651-3.335-.54-11.607 2.009-14.957 1.899-2.495 5.723-3.315 7.805-1.673.58.457 1.128.757 1.218.668.133-.133 3.724-32.99 3.722-34.053-.003-.17-1.902-.313-4.22-.318-3.752-.01-4.414-.119-5.953-.985-2.175-1.223-3.172-2.561-3.448-4.624-.296-2.21.04-3.28 1.542-4.901 1.364-1.473 3.05-2.472 5.6-3.318.93-.31 2.771-.469 4.516-.392 3.33.146 6.051 1.289 8.017 3.363l1.145 1.21 1.309-1.532ZM22.946 165.482c-.328-.328-4.883-.602-5.276-.317-.262.196-1.51 6.982-2.921 15.335h5.792a662.671 662.671 0 0 1 1.517-9.046c.565-3.205.965-5.891.888-5.972Zm11.26-49.79c-.112 0-2.077 2.259-4.367 5.019-8.035 9.68-9.703 12.566-15.07 26.072-2.263 5.694-5.66 15.716-5.413 15.965.082.072 3.32.254 7.205.404l7.074.275.494-2.713c1.073-5.892 4.116-19.27 4.494-19.755.327-.418.503-.409.955.044.44.442.469.874.137 2.108-1.72 6.405-5.077 23.466-7.405 37.389h57.65c.074-7.943.329-8.722 1.193-7.855.152.151.253 3.302.31 7.855h44.208a911.16 911.16 0 0 0-1.627-9.119 9226.167 9226.167 0 0 1-2.715-14.94c-.537-2.997-.366-4.16.529-3.606.21.13.59 1.433.844 2.897 1.028 5.921 1.219 6.48 2.13 6.261.461-.111 2.338-.418 4.173-.682 1.835-.266 3.479-.605 3.652-.755.487-.428-1.171-7.955-2.896-13.15-1.792-5.396-5.58-13.495-8.557-18.297-1.842-2.971-5.901-8.546-8.451-11.609l-.953-1.144-6.218 3.171c-5.825 2.971-16.901 7.972-17.656 7.973-.188.002-1.014.698-1.837 1.549-1.296 1.34-1.55 1.908-1.883 4.229-.922 6.428 1.437 13.865 5.584 17.603 1.102.993 2.253 1.806 2.556 1.806.602 0 .602 0-.65-7.478-.38-2.272-.608-4.267-.507-4.436.102-.167 1.277-.852 2.61-1.522 4.456-2.239 10.643-5.789 13.199-7.572 1.958-1.367 2.684-1.681 3.222-1.393 1.899 1.019 4.255 5.651 7.179 14.122l1.83 5.299-6.988 6.944c-6.41 6.372-7.263 7.078-10.332 8.564-6.282 3.042-12.529 3.558-18.378 1.519-4.6-1.604-6.92-3.888-9.669-9.521-2.362-4.841-3.798-12.242-4.402-22.676-.32-5.513-.447-5.67-5.232-6.48-2.052-.348-5.85-1.319-8.44-2.159-4.413-1.429-16.061-6.839-19.738-9.166-.902-.57-1.732-1.039-1.845-1.04Zm96.496 48.704c-.253-1.651-.315-1.666-4.052-.995-1.187.214-2.206.431-2.263.484-.053.075.862 5.493 2.035 12.059.285 1.599.542 3.112.78 4.556h5.103l-.542-5.774c-.459-4.87-.936-9.518-1.061-10.33ZM94.82 157.41c-.091.002-.677.981-1.3 2.177-.624 1.197-2.068 3.126-3.209 4.288l-2.073 2.112 1.244.186c2.752.41 8.557-.835 11.775-2.526l1.106-.582-3.687-2.828c-2.028-1.554-3.762-2.826-3.856-2.827Zm-22.658-18.498c-.437.001-.49.591-.277 3.051.247 2.847 1.587 10.282 1.912 10.609.081.08 1.43-.211 2.998-.647 1.569-.436 4.424-.911 6.345-1.057 1.92-.145 3.441-.371 3.379-.502-.064-.132-.633-1.213-1.265-2.402-.633-1.191-1.521-3.221-1.974-4.512-.703-2.008-.99-2.386-1.987-2.609l-4.876-1.096c-2.041-.459-3.956-.835-4.255-.835Zm37.58-6.577c-.31-.046-1.181.36-1.936.902-.756.543-2.964 1.895-4.908 3.003-1.942 1.108-3.617 2.086-3.723 2.174-.203.169-.174.193 4.571 3.862l6.358 4.919c1.804 1.397 3.671 2.841 4.148 3.209.829.64.914.626 1.912-.302l1.045-.971-1.915-5.493c-2.062-5.914-4.643-11.166-5.552-11.303Zm-39.814-12.314c-.313.001-.751.344-.975.762-1.048 1.963.306 7.999 1.894 8.446 3.563 1.004 11.787.447 13.462-.912.838-.68.827-.693-1.763-2.145-4.145-2.324-11.996-6.15-12.618-6.151Zm-31.29-13.995c-2.26-1.461-2.689-1.615-3.105-1.113-.601.727-1.14 8.428-.636 9.101.728.968 16.815 8.713 20.959 10.09 3.957 1.314 9.21 2.608 10.591 2.608.48 0 .546-.311.333-1.574-.426-2.531.142-4.594 2.028-7.355.962-1.409 1.694-2.617 1.628-2.685-.076-.067-2.16-.319-4.637-.563-12.919-1.269-18.822-3.118-27.16-8.509Zm70.63 1.808c-.265.007-.804.258-1.199.559-2.143 1.628-13.395 4.899-19.893 5.784-1.835.25-3.4.505-3.475.566-.074.062.33.724.9 1.473 1.31 1.722 2.575 5.296 2.575 7.272 0 .835.1 1.619.224 1.744.417.418 15.967-6.74 21.268-9.791 1.205-.693 1.274-.855 1.276-3.014.003-2.355-.822-4.615-1.676-4.593ZM42.661 57.41c-.25 2.293-1.406 13.555-2.568 25.028l-2.113 20.858.8.687c2.648 2.278 10.52 5.917 15.437 7.137 6.633 1.646 19.91 2.519 28.024 1.841 9.043-.755 14.979-2.047 22.165-4.822l3.077-1.189-.232-2.614c-.128-1.438-.501-7.13-.829-12.65-.328-5.52-.94-15.084-1.36-21.252-.419-6.169-.802-12.056-.85-13.085-.102-2.195.281-2.115-6.985-1.463-7.172.642-6.953.576-7.214 2.19-.384 2.365-2.11 4.864-3.936 5.696-1.96.892-5.979 1.003-7.855.217-1.432-.6-3.688-3.1-4.038-4.476-.298-1.166-.78-1.124-1.085.092-.64 2.552-4.297 4.925-7.59 4.925-4.96 0-7.718-2.536-8.277-7.61l-.267-2.425-5.104-.468c-2.807-.257-5.923-.54-6.924-.627l-1.82-.159-.456 4.17Zm71.074-3.994c-1.496-3.84-3.973-4.596-6.559-2.003l-1.441 1.444.27 5.345c.381 7.571.514 8.22 1.834 8.904 1.286.667 3.614.75 4.699.167 1.617-.867 2.137-2.66 2.107-7.268-.023-3.505-.197-4.76-.91-6.589Zm-73.378-3.364c-1.623-1.742-3.79-1.771-5.715-.077-.741.652-1.623 1.875-1.96 2.717-.977 2.45-1.544 6.545-1.242 8.97.513 4.113 3.46 5.587 7.074 3.54l1.57-.89.464-3.727c1.122-9.017 1.12-9.126-.19-10.533Zm47.116-2.44c-1.543-2.127-5.196-3.25-7.541-2.319-.54.214-1.65 1.04-2.465 1.837-1.795 1.751-2.643 4.304-2.631 7.929.014 4.332 1.733 7.008 5.068 7.896 3.4.905 6.648-.379 8.106-3.205 1.336-2.592 1.008-10.006-.537-12.138ZM72.092 49.81c-1.417-4.303-5.6-6.089-9.47-4.04-1.347.712-1.99 1.42-2.895 3.191-1.025 2.006-1.163 2.68-1.162 5.677.003 4.02.789 6.032 2.915 7.463 1.19.8 1.751.905 4.2.785 3.299-.162 4.61-.908 5.793-3.3.952-1.923 1.315-7.66.619-9.776ZM62.13 1.866c-1.993-.419-2.258-.378-4.38.662-1.739.853-2.531 1.548-3.445 3.023-.653 1.053-1.3 1.914-1.439 1.914-.138 0-.934-.82-1.768-1.82-2.5-2.999-6.845-4.5-10.684-3.693-3.46.729-6.541 3.002-7.018 5.18-.393 1.793.854 3.857 2.869 4.75 1.458.648 2.444.75 6.19.646 2.448-.067 4.557-.018 4.687.11.128.13-.685 8.85-1.806 19.378-1.12 10.518-1.91 19.254-1.756 19.426.278.279 9.193 1.203 12.108 1.255 1.043.019 1.472-.141 1.472-.55 0-1.232 1.327-4.41 2.418-5.795.782-.992 1.859-1.722 3.389-2.3 2-.754 2.466-.796 4.327-.382 2.571.571 4.59 2.258 5.778 4.828l.87 1.879.522-1.265c1.857-4.494 6.957-6.64 11.16-4.696 2.973 1.376 4.036 3.218 4.456 7.718.245 2.625.303 2.752 1.237 2.705.54-.027 3.609-.274 6.82-.547l5.839-.497-.23-2.405c-.127-1.324-.704-10.172-1.282-19.663-1.147-18.804-1.187-18.206 1.17-17.529.672.194 2.372.35 3.776.349 5.273-.005 7.265-1.37 7.265-4.979 0-1.983-.118-2.271-1.424-3.471-3.201-2.94-8.442-2.763-12.338.419-1.168.953-2.204 1.734-2.304 1.736-.097 0-.646-.86-1.217-1.913-1.291-2.377-3.282-3.597-5.874-3.597-2.344 0-4.13.85-5.884 2.796-.76.843-1.537 1.533-1.725 1.533-.188 0-.807-.705-1.375-1.566-1.284-1.944-3.563-3.156-5.937-3.156-2.35 0-4.08.76-6.206 2.725-.956.883-1.899 1.604-2.095 1.604-.197-.002-.698-.634-1.112-1.406C66.18 3.404 64.7 2.407 62.13 1.866Z"/><path fill-rule="evenodd" clip-rule="evenodd" d="M42.661 57.41c-.25 2.293-1.406 13.555-2.568 25.028l-2.113 20.858.8.687c2.648 2.278 10.52 5.917 15.437 7.137 6.633 1.646 19.91 2.519 28.024 1.841 9.043-.755 14.979-2.047 22.165-4.822l3.077-1.189-.232-2.614c-.128-1.438-.501-7.13-.829-12.65-.328-5.52-.94-15.084-1.36-21.252-.419-6.169-.802-12.056-.85-13.085-.102-2.195.281-2.115-6.985-1.463-7.172.642-6.953.576-7.214 2.19-.384 2.365-2.11 4.864-3.936 5.696-1.96.892-5.979 1.003-7.855.217-1.432-.6-3.688-3.1-4.038-4.476-.298-1.166-.78-1.124-1.085.092-.64 2.552-4.297 4.925-7.59 4.925-4.96 0-7.718-2.536-8.277-7.61l-.267-2.425-5.104-.468c-2.807-.257-5.923-.54-6.924-.627l-1.82-.159-.456 4.17ZM83.33 71.242c-1.132-1.715-4.702-4.743-5.592-4.744-1.154 0-.472 1.118 1.73 2.833 2.81 2.187 3.744 3.988 3.749 7.233.009 5.401-3.49 8.231-10.154 8.213-3.32-.009-5.297-.638-7.163-2.279-4.44-3.909-3.438-11.32 1.9-14.05.843-.432 1.533-1.047 1.533-1.367 0-.743-.656-.726-2.249.062-4.565 2.256-6.823 8.774-4.585 13.235 1.955 3.897 5.69 5.948 10.792 5.925 5.303-.025 9.75-2.549 10.958-6.22.803-2.439.335-6.942-.919-8.84Z" fill="#FEE3BA"/><path d="M62.13 1.866c-1.992-.419-2.258-.378-4.379.662-1.739.853-2.531 1.548-3.445 3.023-.653 1.053-1.3 1.914-1.439 1.914-.138 0-.934-.82-1.768-1.82-2.5-2.999-6.845-4.5-10.684-3.693-3.46.729-6.541 3.002-7.018 5.18-.393 1.793.854 3.857 2.869 4.75 1.458.648 2.444.75 6.19.646 2.448-.067 4.557-.018 4.687.11.128.13-.685 8.85-1.806 19.378-1.12 10.518-1.91 19.254-1.756 19.426.278.279 9.193 1.203 12.108 1.255 1.043.019 1.472-.141 1.472-.55 0-1.232 1.327-4.41 2.418-5.795.782-.992 1.859-1.722 3.389-2.3 2-.754 2.466-.796 4.327-.382 2.571.571 4.59 2.258 5.778 4.828l.87 1.879.522-1.265c1.857-4.494 6.957-6.64 11.16-4.696 2.973 1.376 4.036 3.218 4.456 7.718.245 2.625.303 2.752 1.237 2.705.54-.027 3.609-.274 6.82-.547l5.839-.497-.23-2.405c-.127-1.324-.704-10.172-1.282-19.663-1.147-18.804-1.187-18.206 1.17-17.529.672.194 2.372.35 3.776.349 5.273-.005 7.265-1.37 7.265-4.979 0-1.983-.118-2.271-1.424-3.471-3.201-2.94-8.442-2.763-12.338.419-1.168.953-2.204 1.734-2.304 1.736-.097 0-.646-.86-1.217-1.913-1.291-2.377-3.282-3.597-5.874-3.597-2.344 0-4.13.85-5.884 2.796-.76.843-1.537 1.533-1.725 1.533-.188 0-.807-.705-1.375-1.566-1.284-1.944-3.563-3.156-5.937-3.156-2.35 0-4.08.76-6.206 2.725-.956.883-1.899 1.604-2.095 1.604-.197-.002-.698-.634-1.112-1.406C66.18 3.404 64.7 2.407 62.13 1.866Z" fill="#FEE3BA"/><path fill-rule="evenodd" clip-rule="evenodd" d="M40.357 50.052c-1.623-1.742-3.79-1.771-5.715-.077-.741.652-1.623 1.875-1.96 2.717-.977 2.45-1.544 6.545-1.242 8.97.513 4.113 3.46 5.587 7.074 3.54l1.57-.89.464-3.727c1.122-9.017 1.12-9.126-.19-10.533Zm-2.014 2.293c-1.006-.54-1.266-.518-2.283.197-1.103.774-2.062 4-2.062 6.935 0 2.012.12 2.358 1.005 2.94.948.622 1.06.618 2.004-.089 1.236-.925 1.075-1.569-.359-1.436-1.04.096-1.08.032-1.077-1.77.002-1.97.515-4.225 1.185-5.218.348-.516.464-.503.925.099.752.983 1.422.85 1.422-.281 0-.556-.325-1.143-.76-1.377Zm75.392 1.071c-1.496-3.84-3.973-4.596-6.559-2.003l-1.441 1.444.27 5.345c.381 7.571.514 8.22 1.834 8.904 1.286.667 3.614.75 4.699.167 1.617-.867 2.137-2.66 2.107-7.268-.023-3.505-.197-4.76-.91-6.589Zm-1.354 5.689c-.309-3.315-1.293-5.358-2.66-5.517-.671-.078-1.115.105-1.276.524-.411 1.075-.278 1.76.342 1.76.324 0 .589-.177.589-.394 0-.216.156-.393.346-.393.503 0 1.225 3.193 1.218 5.39-.006 1.939-.65 3.539-1.038 2.58-.279-.69-1.704-.616-1.704.09.001.78 1.7 1.856 2.467 1.561 1.234-.475 1.97-2.877 1.716-5.602Z" fill="#FEE3BA"/><path d="M69.928 120.021c-.313.001-.751.344-.975.762-1.048 1.963.306 7.999 1.894 8.446 3.563 1.004 11.787.447 13.462-.912.838-.68.827-.693-1.763-2.145-4.145-2.324-11.996-6.15-12.618-6.151Zm2.234 18.891c-.437.001-.49.591-.277 3.051.247 2.847 1.587 10.282 1.912 10.609.081.08 1.43-.211 2.998-.647 1.569-.436 4.424-.911 6.345-1.057 1.92-.145 3.441-.371 3.379-.502-.064-.132-.633-1.213-1.265-2.402-.633-1.191-1.521-3.221-1.974-4.512-.703-2.008-.99-2.386-1.987-2.609l-4.876-1.096c-2.041-.459-3.956-.835-4.255-.835ZM94.82 157.41c-.091.002-.677.981-1.3 2.177-.624 1.197-2.068 3.126-3.209 4.288l-2.073 2.112 1.244.186c2.752.41 8.557-.835 11.775-2.526l1.106-.582-3.687-2.828c-2.028-1.554-3.762-2.826-3.856-2.827Zm14.922-25.075c-.31-.046-1.181.36-1.936.902-.756.543-2.964 1.895-4.908 3.003-1.942 1.108-3.617 2.086-3.723 2.174-.203.169-.174.193 4.571 3.862l6.358 4.919c1.804 1.397 3.671 2.841 4.148 3.209.829.64.914.626 1.912-.302l1.045-.971-1.915-5.493c-2.062-5.914-4.643-11.166-5.552-11.303Z" fill="#E53E45"/><path d="M34.205 115.692c-.11 0-2.076 2.259-4.366 5.019-8.035 9.68-9.703 12.566-15.07 26.072-2.263 5.694-5.66 15.716-5.413 15.965.082.072 3.32.254 7.205.404l7.074.275.494-2.713c1.073-5.892 4.116-19.27 4.494-19.755.327-.418.503-.409.955.044.44.442.469.874.137 2.108-1.72 6.405-5.077 23.466-7.405 37.389h57.65c.074-7.943.329-8.722 1.193-7.855.152.151.253 3.302.31 7.855h44.208a911.16 911.16 0 0 0-1.627-9.119 9226.167 9226.167 0 0 1-2.715-14.94c-.537-2.997-.366-4.16.529-3.606.21.13.59 1.433.844 2.897 1.028 5.921 1.219 6.48 2.13 6.261.461-.111 2.338-.418 4.173-.682 1.835-.266 3.479-.605 3.652-.755.487-.428-1.171-7.955-2.896-13.15-1.792-5.396-5.58-13.495-8.557-18.297-1.842-2.971-5.901-8.546-8.451-11.609l-.953-1.144-6.218 3.171c-5.825 2.971-16.901 7.972-17.656 7.973-.188.002-1.014.698-1.837 1.549-1.296 1.34-1.55 1.908-1.883 4.229-.922 6.428 1.437 13.865 5.584 17.603 1.102.993 2.253 1.806 2.556 1.806.602 0 .602 0-.65-7.478-.38-2.272-.608-4.267-.507-4.436.102-.167 1.277-.852 2.61-1.522 4.456-2.239 10.643-5.789 13.199-7.572 1.958-1.367 2.684-1.681 3.222-1.393 1.899 1.019 4.255 5.651 7.179 14.122l1.83 5.299-6.988 6.944c-6.41 6.372-7.263 7.078-10.332 8.564-6.282 3.042-12.529 3.558-18.378 1.519-4.6-1.604-6.92-3.888-9.669-9.521-2.362-4.841-3.798-12.242-4.402-22.676-.32-5.513-.447-5.67-5.232-6.48-2.052-.348-5.85-1.319-8.44-2.159-4.413-1.429-16.061-6.839-19.738-9.166-.902-.57-1.732-1.039-1.845-1.04Z" fill="#fff"/><path d="M38.639 106.026c-2.26-1.461-2.69-1.615-3.106-1.113-.601.727-1.14 8.428-.636 9.101.728.968 16.815 8.713 20.959 10.09 3.957 1.314 9.21 2.608 10.591 2.608.48 0 .546-.311.333-1.574-.426-2.531.142-4.594 2.028-7.355.962-1.409 1.694-2.617 1.628-2.685-.076-.067-2.16-.319-4.637-.563-12.919-1.269-18.822-3.118-27.16-8.509Zm70.629 1.808c-.265.007-.804.258-1.199.559-2.143 1.628-13.395 4.899-19.893 5.784-1.835.25-3.4.505-3.475.566-.074.062.33.724.9 1.473 1.31 1.722 2.575 5.296 2.575 7.272 0 .835.1 1.619.224 1.744.417.418 15.967-6.74 21.268-9.791 1.205-.693 1.274-.855 1.276-3.014.003-2.355-.822-4.615-1.676-4.593Z" fill="#fff"/><path d="M22.946 165.482c-.328-.328-4.883-.602-5.276-.317-.262.196-1.51 6.982-2.921 15.335h5.792a662.671 662.671 0 0 1 1.517-9.046c.565-3.205.965-5.891.888-5.972Zm107.756-1.086c-.253-1.651-.315-1.666-4.052-.995-1.187.214-2.206.431-2.263.484-.053.075.862 5.493 2.035 12.059.285 1.599.542 3.112.78 4.556h5.103l-.542-5.774c-.459-4.87-.936-9.518-1.061-10.33Z" fill="#FEE3BA"/><path d="M72.092 49.809c-1.417-4.303-5.6-6.089-9.47-4.04-1.347.712-1.99 1.42-2.895 3.191-1.025 2.006-1.163 2.68-1.162 5.677.003 4.02.789 6.032 2.915 7.463 1.19.8 1.751.905 4.2.785 3.299-.162 4.61-.908 5.793-3.3.952-1.923 1.315-7.66.619-9.776Zm15.381-2.197c-1.543-2.127-5.196-3.25-7.541-2.319-.54.214-1.65 1.04-2.465 1.837-1.795 1.751-2.643 4.304-2.631 7.929.014 4.332 1.733 7.008 5.068 7.896 3.4.905 6.648-.379 8.106-3.205 1.336-2.592 1.008-10.006-.537-12.138Z" fill="#fff"/></svg>