<svg width="32" height="32" xmlns="http://www.w3.org/2000/svg"><path d="M16 30a14 14 0 1 0 0-28v28Z" fill="#518AFD"/><ellipse cx="16.25" cy="16" rx="3.75" ry="14" fill="#236BFE"/><ellipse cx="8.875" cy="16" rx="3.125" ry="12.25" fill="#236BFE"/><path d="M4.25 15.625c0 1.8-.124 3.413-.319 4.56-.018.106-.037.207-.056.303a12.132 12.132 0 0 1-.056-.304c-.195-1.146-.319-2.758-.319-4.559 0-1.8.124-3.413.319-4.56.018-.106.037-.207.056-.303.019.096.038.197.056.304.195 1.146.319 2.758.319 4.559Zm.75 0C5 11.966 4.496 9 3.875 9S2.75 11.966 2.75 15.625s.504 6.625 1.125 6.625S5 19.284 5 15.625Z" fill="#FE813C"/></svg>