<svg width="32" height="32" xmlns="http://www.w3.org/2000/svg"><mask id="logo-antigravity__a" style="mask-type:alpha" maskUnits="userSpaceOnUse" x="2" y="3" width="28" height="26"><path d="M27.377 28.41c1.563 1.18 3.908.393 1.758-1.774C22.687 20.333 24.055 3 16.043 3S9.399 20.333 2.95 26.636C.605 29 3.145 29.591 4.708 28.41c6.058-4.136 5.667-11.424 11.334-11.424s5.276 7.288 11.334 11.424Z"/></mask><g mask="url(#logo-antigravity__a)"><g filter="url(#logo-antigravity__b)"><path d="M.812-2.87C.337 1.352 3.947 5.232 8.875 5.796c4.928.564 9.31-2.402 9.785-6.624.475-4.223-3.135-8.103-8.063-8.667-4.928-.564-9.31 2.402-9.785 6.625Z" fill="#FFE432"/></g><g filter="url(#logo-antigravity__c)"><path d="M19.814 10.934c1.235 5.36 6.64 8.672 12.073 7.4 5.434-1.272 8.837-6.647 7.602-12.006-1.234-5.359-6.64-8.672-12.073-7.4C21.983.2 18.579 5.575 19.814 10.934Z" fill="#FC413D"/></g><g filter="url(#logo-antigravity__d)"><path d="M-12.516 14.529c1.56 5.53 8.587 8.362 15.695 6.325 7.107-2.038 11.604-8.173 10.044-13.703-1.56-5.53-8.587-8.362-15.695-6.325C-9.579 2.864-14.076 9-12.516 14.53Z" fill="#00B95C"/></g><g filter="url(#logo-antigravity__e)"><path d="M-12.516 14.529c1.56 5.53 8.587 8.362 15.695 6.325 7.107-2.038 11.604-8.173 10.044-13.703-1.56-5.53-8.587-8.362-15.695-6.325C-9.579 2.864-14.076 9-12.516 14.53Z" fill="#00B95C"/></g><g filter="url(#logo-antigravity__f)"><path d="M-6.876 19.113c3.911 4.027 10.647 3.773 15.046-.567 4.398-4.34 4.792-11.124.881-15.15C5.14-.633-1.596-.378-5.994 3.962c-4.399 4.34-4.793 11.123-.882 15.15Z" fill="#00B95C"/></g><g filter="url(#logo-antigravity__g)"><path d="M13.588 34.3c1.214 5.272 6.28 8.59 11.316 7.41 5.036-1.179 8.134-6.407 6.919-11.679-1.215-5.27-6.281-8.588-11.317-7.41-5.036 1.18-8.133 6.409-6.918 11.68Z" fill="#3186FF"/></g><g filter="url(#logo-antigravity__h)"><path d="M5.002-7.801C2.458-2.091 5.24 4.73 11.216 7.434c5.976 2.704 12.882.267 15.425-5.444 2.543-5.71-.24-12.532-6.215-15.236-5.975-2.703-12.881-.266-15.424 5.445Z" fill="#FBBC04"/></g><g filter="url(#logo-antigravity__i)"><path d="M-1.811 47.318c-6.157-2.436 4.365-22.48 6.981-29.2 2.617-6.716 9.73-10.188 15.886-7.751 6.157 2.437 13.455 15.855 10.838 22.574-2.616 6.718-27.548 16.814-33.705 14.378Z" fill="#3186FF"/></g><g filter="url(#logo-antigravity__j)"><path d="M35.495 22.37c-1.649 1.938-5.95.95-9.608-2.21-3.658-3.159-5.287-7.292-3.639-9.23 1.649-1.94 5.95-.951 9.608 2.208 3.658 3.159 5.287 7.292 3.639 9.231Z" fill="#749BFF"/></g><g filter="url(#logo-antigravity__k)"><path d="M23.19 12.499c6.78 4.622 14.586 4.926 17.437.678 2.851-4.248-.334-11.44-7.113-16.062-6.78-4.623-14.587-4.926-17.438-.678-2.85 4.248.335 11.439 7.114 16.062Z" fill="#FC413D"/></g><g filter="url(#logo-antigravity__l)"><path d="M.933 4.98c-1.68 4.084-1.131 8.193 1.225 9.177 2.356.985 5.628-1.528 7.307-5.612C11.145 4.461 10.596.352 8.24-.632 5.884-1.617 2.612.896.933 4.98Z" fill="#FFEE48"/></g></g><defs><filter id="logo-antigravity__b" x="-1.295" y="-11.629" width="22.063" height="19.559" filterUnits="userSpaceOnUse" color-interpolation-filters="sRGB"><feFlood flood-opacity="0" result="BackgroundImageFix"/><feBlend in="SourceGraphic" in2="BackgroundImageFix" result="shape"/><feGaussianBlur stdDeviation="1.033" result="effect1_foregroundBlur_1714_1805"/></filter><filter id="logo-antigravity__c" x="9.575" y="-11.33" width="40.154" height="39.922" filterUnits="userSpaceOnUse" color-interpolation-filters="sRGB"><feFlood flood-opacity="0" result="BackgroundImageFix"/><feBlend in="SourceGraphic" in2="BackgroundImageFix" result="shape"/><feGaussianBlur stdDeviation="4.993" result="effect1_foregroundBlur_1714_1805"/></filter><filter id="logo-antigravity__d" x="-21.314" y="-8.324" width="43.336" height="38.327" filterUnits="userSpaceOnUse" color-interpolation-filters="sRGB"><feFlood flood-opacity="0" result="BackgroundImageFix"/><feBlend in="SourceGraphic" in2="BackgroundImageFix" result="shape"/><feGaussianBlur stdDeviation="4.245" result="effect1_foregroundBlur_1714_1805"/></filter><filter id="logo-antigravity__e" x="-21.314" y="-8.324" width="43.336" height="38.327" filterUnits="userSpaceOnUse" color-interpolation-filters="sRGB"><feFlood flood-opacity="0" result="BackgroundImageFix"/><feBlend in="SourceGraphic" in2="BackgroundImageFix" result="shape"/><feGaussianBlur stdDeviation="4.245" result="effect1_foregroundBlur_1714_1805"/></filter><filter id="logo-antigravity__f" x="-18.059" y="-7.955" width="38.293" height="38.42" filterUnits="userSpaceOnUse" color-interpolation-filters="sRGB"><feFlood flood-opacity="0" result="BackgroundImageFix"/><feBlend in="SourceGraphic" in2="BackgroundImageFix" result="shape"/><feGaussianBlur stdDeviation="4.245" result="effect1_foregroundBlur_1714_1805"/></filter><filter id="logo-antigravity__g" x="5.257" y="14.317" width="34.897" height="35.699" filterUnits="userSpaceOnUse" color-interpolation-filters="sRGB"><feFlood flood-opacity="0" result="BackgroundImageFix"/><feBlend in="SourceGraphic" in2="BackgroundImageFix" result="shape"/><feGaussianBlur stdDeviation="4.034" result="effect1_foregroundBlur_1714_1805"/></filter><filter id="logo-antigravity__h" x="-3.252" y="-21.66" width="38.146" height="37.508" filterUnits="userSpaceOnUse" color-interpolation-filters="sRGB"><feFlood flood-opacity="0" result="BackgroundImageFix"/><feBlend in="SourceGraphic" in2="BackgroundImageFix" result="shape"/><feGaussianBlur stdDeviation="3.656" result="effect1_foregroundBlur_1714_1805"/></filter><filter id="logo-antigravity__i" x="-10.244" y="3.058" width="49.214" height="51.16" filterUnits="userSpaceOnUse" color-interpolation-filters="sRGB"><feFlood flood-opacity="0" result="BackgroundImageFix"/><feBlend in="SourceGraphic" in2="BackgroundImageFix" result="shape"/><feGaussianBlur stdDeviation="3.265" result="effect1_foregroundBlur_1714_1805"/></filter><filter id="logo-antigravity__j" x="15.763" y="4.094" width="26.218" height="25.11" filterUnits="userSpaceOnUse" color-interpolation-filters="sRGB"><feFlood flood-opacity="0" result="BackgroundImageFix"/><feBlend in="SourceGraphic" in2="BackgroundImageFix" result="shape"/><feGaussianBlur stdDeviation="2.921" result="effect1_foregroundBlur_1714_1805"/></filter><filter id="logo-antigravity__k" x="10.097" y="-11.495" width="36.509" height="32.604" filterUnits="userSpaceOnUse" color-interpolation-filters="sRGB"><feFlood flood-opacity="0" result="BackgroundImageFix"/><feBlend in="SourceGraphic" in2="BackgroundImageFix" result="shape"/><feGaussianBlur stdDeviation="2.467" result="effect1_foregroundBlur_1714_1805"/></filter><filter id="logo-antigravity__l" x="-6.148" y="-6.953" width="22.694" height="27.432" filterUnits="userSpaceOnUse" color-interpolation-filters="sRGB"><feFlood flood-opacity="0" result="BackgroundImageFix"/><feBlend in="SourceGraphic" in2="BackgroundImageFix" result="shape"/><feGaussianBlur stdDeviation="3.054" result="effect1_foregroundBlur_1714_1805"/></filter></defs></svg>