<svg xmlns="http://www.w3.org/2000/svg" width="32" height="33" fill="none"><path fill="#8CC84B" d="M17.172 3.241a2.452 2.452 0 0 0-2.345 0C11.269 5.205 7.71 7.17 4.152 9.131c-.692.365-1.16 1.108-1.152 1.88v11.864c-.005.787.486 1.538 1.197 1.897 1.022.544 2.015 1.143 3.055 1.65 1.203.591 2.706.722 3.923.106.988-.51 1.427-1.646 1.425-2.69.008-3.915.002-7.83.003-11.746.024-.174-.107-.36-.297-.356-.454-.007-.91-.004-1.364-.001-.172-.016-.34.127-.327.3-.006 3.89.001 7.78-.004 11.672a1.318 1.318 0 0 1-.872 1.237c-1.198.42-4.617-1.8-4.617-1.8a.337.337 0 0 1-.193-.33V11.072a.362.362 0 0 1 .225-.364c3.546-1.952 7.09-3.91 10.637-5.862a.384.384 0 0 1 .418 0c3.546 1.953 7.091 3.908 10.638 5.86a.366.366 0 0 1 .224.366c0 3.914.001 7.828-.001 11.742a.337.337 0 0 1-.19.333c-3.514 1.942-7.067 3.82-10.549 5.818-.151.087-.323.186-.494.09-.915-.506-1.82-1.032-2.732-1.544-.1-.062-.226-.088-.33-.02-.408.216-.793.391-1.263.577-.66.261-.554.368.04.715 1.068.604 2.137 1.205 3.204 1.81.703.438 1.646.47 2.372.064 3.558-1.96 7.116-3.924 10.675-5.885.708-.362 1.202-1.11 1.197-1.897V11.011c.007-.756-.442-1.486-1.114-1.856-3.57-1.973-7.142-3.942-10.713-5.914Z"/><path fill="#8CC84B" d="M22.542 12.149c-1.397-.748-3.058-.787-4.61-.69-1.122.111-2.301.42-3.118 1.224-.838.808-1.02 2.113-.622 3.168.285.745 1.003 1.23 1.745 1.486.957.338 1.96.442 2.966.547.916.095 1.833.19 2.713.463.36.119.78.301.89.693.101.463-.01 1.002-.387 1.324-1.195.947-4.521.802-5.702.057-.478-.317-.684-.88-.768-1.415-.009-.166-.143-.32-.324-.307a68.556 68.556 0 0 0-1.36 0c-.159-.014-.323.1-.332.26-.093 2.452 2.158 3.521 4.27 3.756 1.208.115 2.441.109 3.63-.15.893-.204 1.789-.578 2.404-1.266.758-.837.907-2.082.567-3.123-.26-.778-1.003-1.276-1.762-1.533-1.033-.354-2.258-.544-3.193-.634-1.36-.129-2.976-.076-3.361-.97-.153-.468-.023-1.049.407-1.336 1.138-.772 3.453-.67 4.632-.093.54.27.854.827.983 1.389.024.165.135.337.326.33.45.009.901.002 1.351.003.155.01.325-.077.355-.235-.02-1.174-.619-2.376-1.7-2.948Z"/></svg>