<svg xmlns="http://www.w3.org/2000/svg" width="32" height="33" fill="none"><path fill="#38BDF8" fill-rule="evenodd" d="M16 8.542c-3.733 0-6.067 1.867-7 5.6 1.4-1.866 3.033-2.566 4.9-2.1 1.065.267 1.826 1.04 2.669 1.895C17.94 15.33 19.53 16.942 23 16.942c3.733 0 6.067-1.866 7-5.6-1.4 1.867-3.033 2.567-4.9 2.1-1.065-.265-1.826-1.039-2.669-1.894C21.06 10.155 19.47 8.542 16 8.542Zm-7 8.4c-3.733 0-6.067 1.867-7 5.6 1.4-1.866 3.033-2.566 4.9-2.1 1.065.267 1.826 1.04 2.669 1.895C10.94 23.73 12.53 25.343 16 25.343c3.733 0 6.067-1.867 7-5.6-1.4 1.866-3.033 2.566-4.9 2.1-1.065-.267-1.826-1.04-2.669-1.895C14.06 18.555 12.47 16.942 9 16.942Z" clip-rule="evenodd"/></svg>