<svg width="115" height="25" xmlns="http://www.w3.org/2000/svg"><g clip-path="url(#Purina__a)"><path d="M114.9 0H0v24.2h114.9V0Z" fill="#fff"/><path d="M23.5 20.1V.7H.8v22.7h113.4v-3.3H23.5Zm-2.4 1h-18v-18h18v18Z" fill="#ED1C24"/><path d="M9.4 3.9H3.9v5.5h5.5V3.9Zm0 10.9H3.9v5.5h5.5v-5.5Zm5.5-5.5H9.4v5.5h5.5V9.3Z" fill="#ED1C24"/><path d="M20.4 3.9h-5.5v5.5h5.5V3.9Zm0 10.9h-5.5v5.5h5.5v-5.5Z" fill="#ED1C24"/><path d="M114.2.7H23.5V21h90.7V.7Z" fill="#231F20"/><path d="M81.2 5.3c0-.2.1-.4.4-.4h1.8c.2 0 .3.1.4.2l4.4 6.6c.4.6.9 1.3 1.3 2.1.1.1.2.1.2 0 0-.7-.1-1.8-.1-2.6v-6c0-.2.1-.4.4-.4h1.5c.2 0 .4.1.4.4v12c0 .2-.1.4-.4.4h-1.7c-.2 0-.3-.1-.4-.2L85 10.8c-.4-.6-.9-1.3-1.3-2.1-.1-.1-.2-.1-.2 0 0 .7.1 1.8.1 2.6v6c0 .2-.1.4-.4.4h-1.5c-.2 0-.4-.1-.4-.4v-12h-.1Zm-7.8 0c0-.2.1-.4.4-.4h1.5c.2 0 .4.1.4.4v12c0 .2-.1.4-.4.4h-1.5c-.2 0-.4-.1-.4-.4v-12Zm-4.7 10.5c-.5 0-.9 0-1.1-.1-.3-.1-.4-.2-.5-.4l-1.5-2.2c-.1-.1 0-.2.1-.2.4-.2.8-.5 1.2-.8.7-.7 1.2-1.8 1.2-3s-.4-2.3-1.2-3c-.7-.7-1.6-1.1-3-1.1h-5c-.2 0-.4.1-.4.4v12c0 .2.1.4.4.4h1.5c.2 0 .4-.1.4-.4v-3.9c0-.1.1-.2.2-.2h1.8c.2 0 .4.1.5.3l2.1 3.1c.7 1.1 1.5 1.3 2.6 1.3.2 0 .7 0 .8-.1.2-.1.3-.2.3-.3v-1.3c0-.4-.1-.5-.4-.5Zm-3.5-5.3c-.4.3-.8.5-1.5.5h-2.8c-.1 0-.2-.1-.2-.2V7.3c0-.1.1-.2.2-.2h2.8c.7 0 1.1.2 1.5.5.4.3.6.9.6 1.5 0 .5-.2 1.1-.6 1.4Zm-21 5.9c-.9-.9-1.4-2.1-1.4-3.9V5.3c0-.2.1-.4.4-.4h1.5c.2 0 .4.1.4.4v7.5c0 1 .3 1.6.8 2.2.5.6 1.3.8 2.2.8.9 0 1.7-.3 2.2-.8.5-.6.8-1.2.8-2.2V5.3c0-.2.1-.4.4-.4H53c.2 0 .4.1.4.4v7.3c0 1.8-.5 2.9-1.4 3.8-.9 1-2.4 1.5-3.9 1.5s-3-.6-3.9-1.5ZM37.3 6.1c-.8-.8-1.7-1.2-3.2-1.2h-5.2c-.2 0-.4.1-.4.4v12c0 .2.1.4.4.4h1.4c.2 0 .4-.1.4-.4V14c0-.1.1-.2.2-.2H34c1.6 0 2.5-.4 3.3-1.2.8-.8 1.3-2 1.3-3.2 0-1.3-.5-2.5-1.3-3.3ZM35.7 11c-.4.4-.9.6-1.7.6h-3.1c-.1 0-.2-.1-.2-.2V7.3c0-.1.1-.2.2-.2H34c.8 0 1.3.2 1.7.6.4.4.7 1.1.7 1.7-.1.6-.3 1.2-.7 1.6Zm72.7 6.2-5-12c-.1-.2-.2-.3-.4-.3h-1.9c-.2 0-.3.1-.4.3l-4.9 12c-.1.3 0 .4.3.4h1.6c.2 0 .3-.1.4-.3l1-2.4c.1-.1.1-.2.3-.2h5.4c.1 0 .2.1.3.2l1 2.4c.1.2.2.3.4.3h1.6c.3 0 .4-.1.3-.4Zm-4.5-4.6h-3.6c-.2 0-.3-.1-.2-.3l.8-2.1c.4-.9.7-1.8 1.1-2.7.1-.2.2-.2.3 0 .4 1 .7 1.8 1.1 2.7l.8 2.1c-.1.2-.1.3-.3.3Zm4.8-8.6c-1.2 0-2.1.9-2.1 2.1 0 1.2.9 2.1 2.1 2.1 1.2 0 2.1-.9 2.1-2.1-.1-1.2-1-2.1-2.1-2.1Zm0 3.8c-.9 0-1.7-.8-1.7-1.7 0-.9.8-1.7 1.7-1.7.9 0 1.7.8 1.7 1.7 0 .9-.8 1.7-1.7 1.7Z" fill="#fff"/><path d="m109.3 6.7-.2-.4c.3-.1.5-.4.5-.7 0-.4-.3-.7-.7-.7h-.9v2.2h.4v-.7h.4l.4.6c.2.2.3.2.6.2v-.4c-.3 0-.4 0-.5-.1Zm-.5-.7h-.5v-.7h.5c.2 0 .3.1.3.3 0 .3-.1.4-.3.4Z" fill="#fff"/></g><defs><clipPath id="Purina__a"><path fill="#fff" d="M0 0h114.9v24.2H0z"/></clipPath></defs></svg>