<svg xmlns="http://www.w3.org/2000/svg" width="32" height="33" fill="none"><path fill="#77E7FF" d="M23.516 3.594c2.465-1.804 5.652.902 4.33 3.608l-4.871 7.576c-.481.962-.36 2.164.24 3.006l6.073 6.675c1.804 2.465-.901 5.652-3.607 4.329l-7.576-4.81c-.963-.482-2.165-.361-3.007.24l-6.674 6.073c-2.466 1.804-5.652-.902-4.33-3.608l4.87-7.576c.482-.962.362-2.165-.24-3.006L2.651 9.366c-1.803-2.465.902-5.652 3.608-4.33l7.576 4.871c.962.481 2.165.361 3.007-.24l6.674-6.073Z"/><path fill="#B377FF" d="M25.801 5.157c2.766-1.323 5.412 1.924 3.608 4.33L23.276 16.1a2.864 2.864 0 0 0-.301 3.006l4.81 7.636c1.323 2.766-1.924 5.412-4.329 3.608l-6.614-6.133a2.864 2.864 0 0 0-3.007-.3L6.2 28.727c-2.766 1.322-5.412-1.925-3.608-4.33l6.133-6.614a2.864 2.864 0 0 0 .301-3.006L4.215 7.14C2.892 4.375 6.139 1.73 8.544 3.534l6.614 6.133a2.864 2.864 0 0 0 3.007.3l7.636-4.81Z"/><path fill="#3F20FB" d="M24.659 4.255c2.585-1.563 5.592 1.383 3.968 3.969l-5.11 7.155a2.986 2.986 0 0 0 0 3.006l5.11 7.156c1.564 2.585-1.383 5.592-3.968 3.968l-7.156-5.11a2.987 2.987 0 0 0-3.006 0l-7.156 5.11c-2.645 1.684-5.592-1.323-4.028-3.908l5.11-7.155a2.987 2.987 0 0 0 0-3.007l-5.11-7.155C1.749 5.698 4.696 2.692 7.28 4.315l7.156 5.111a2.987 2.987 0 0 0 3.006 0l7.216-5.17Z"/></svg>