<svg width="204" height="180" xmlns="http://www.w3.org/2000/svg"><path d="m102 0 47.696 22.83 11.78 51.299-33.007 41.138H75.531L42.524 74.129l11.78-51.299L102 0Z" fill="#E60000"/><path fill-rule="evenodd" clip-rule="evenodd" d="M102 .91 55.016 23.4 43.414 73.925l32.51 40.521h52.151l32.511-40.521L148.984 23.4 102 .91Zm47.696 21.92L102 0 54.304 22.83l-11.78 51.299 33.007 41.138h52.938l33.007-41.138-11.78-51.299Z" fill="#fff" fill-opacity=".75"/><path d="m102 16.47 1.731 24.79 5.177-24.308-1.748 24.789 8.522-23.355-5.193 24.306 11.701-21.946-8.538 23.35 14.652-20.11-11.716 21.937 17.319-17.881-14.666 20.1 19.648-15.307-17.331 17.87 21.594-12.432-19.658 15.292 23.121-9.316-21.603 12.417 24.197-6.02-23.127 9.302 24.803-2.606-24.202 6.004 24.926.858-24.805 2.59 24.563 4.306-24.925-.875 23.722 7.671-24.559-4.323 22.419 10.886-23.717-7.688 20.681 13.89-22.412-10.902 18.54 16.622-20.672-13.903 16.038 19.031-18.529-16.634 13.224 21.07-16.025-19.042 10.152 22.698-13.209-21.078 6.882 23.885-10.136-22.705 3.479 24.607-6.866-23.89.008 24.85L102 90.66l-3.463 24.61.009-24.85-6.867 23.89 3.48-24.607-10.137 22.705 6.883-23.885-13.21 21.078 10.153-22.698-16.025 19.042 13.223-21.07-18.528 16.634 16.037-19.03L62.884 96.38l18.54-16.622L59.01 90.661l20.681-13.89-23.717 7.688 22.42-10.886-24.56 4.323 23.722-7.671-24.924.876 24.562-4.307-24.804-2.59 24.925-.858-24.201-6.004 24.803 2.606-23.128-9.301 24.197 6.02-21.602-12.418 23.12 9.316-19.658-15.292 21.595 12.432-17.331-17.87 19.648 15.306-14.667-20.1 17.32 17.882-11.717-21.937 14.653 20.11-8.538-23.35L93.51 42.692l-5.194-24.306 8.523 23.355-1.749-24.79 5.177 24.31L102 16.47Z" fill-opacity=".25"/><g filter="url(#logo-ricardo-zea-full__a)"><path d="M114.515 25.1c-10.41 2.999-15.589 10.093-20.525 22.608 4.312-13.465 4.493-19.336 2.11-31.265 6.75 24.3 36.614-7.934 39.612-10.953-1.395 2.87-15.293 26.584-27.358 39.711-17.511 19.054-17.658 28.53-17.653 28.526.005.001 28.463 4.603 44.291-30.48-9.928 22.12-11.216 27.057-6.661 41.615-22.358-29.64-54.184 11.601-63.332 30.406 2.955-18.274 21.444-48.831 30.519-58.701 9.074-9.87 15.658-21.03 18.997-31.468Z" fill="#F7F7F7"/></g><path d="M41.195 133.32c2.948 0 5.204.657 6.768 1.972 1.565 1.302 2.381 3.15 2.45 5.544l.021.395h-5.356v-.27c0-1.135-.319-2.021-.956-2.658-.623-.637-1.536-.955-2.74-.955-1.37 0-2.437.471-3.198 1.412-.748.927-1.121 2.298-1.121 4.111v.976c0 1.716.366 3.08 1.1 4.09.734.997 1.8 1.495 3.198 1.495 1.232 0 2.166-.318 2.803-.955.65-.637.976-1.529.976-2.678v-.291h5.315v.415c-.041 2.339-.858 4.174-2.45 5.503-1.578 1.328-3.834 1.993-6.769 1.993-2.962 0-5.329-.865-7.1-2.596-1.759-1.744-2.638-4.118-2.638-7.121v-.686c0-3.031.872-5.405 2.616-7.122 1.758-1.716 4.119-2.574 7.08-2.574Z" fill="#F7F7F7"/><path fill-rule="evenodd" clip-rule="evenodd" d="M120.344 133.32c3.073 0 5.524.893 7.351 2.678 1.841 1.786 2.761 4.125 2.761 7.018v.686c0 2.92-.92 5.274-2.761 7.059-1.827 1.772-4.278 2.658-7.351 2.658-3.073 0-5.53-.886-7.371-2.658-1.827-1.785-2.74-4.139-2.74-7.059v-.686c0-2.893.92-5.232 2.761-7.018 1.841-1.785 4.291-2.678 7.35-2.678Zm0 4.028c-1.481 0-2.609.512-3.384 1.537-.775 1.024-1.163 2.353-1.163 3.986v.955c0 1.647.381 2.997 1.142 4.049.775 1.038 1.91 1.557 3.405 1.557 1.495 0 2.631-.519 3.406-1.557.775-1.052 1.163-2.402 1.163-4.049v-.955c0-1.633-.388-2.962-1.163-3.986-.775-1.025-1.911-1.537-3.406-1.537Zm53.383-4.008c2.935 0 5.184.838 6.748 2.513 1.578 1.661 2.367 3.973 2.367 6.935v1.557h-13.438c.082 1.493.464 2.69 1.147 3.592.789 1.024 1.916 1.537 3.384 1.537 1.052 0 1.931-.208 2.637-.623a4.542 4.542 0 0 0 1.64-1.682l4.506 1.474c-.595 1.44-1.599 2.595-3.011 3.468-1.398.872-3.308 1.308-5.731 1.308-3.197 0-5.675-.872-7.433-2.617-1.744-1.744-2.616-4.118-2.616-7.121v-.665c0-2.934.886-5.281 2.658-7.039 1.785-1.758 4.166-2.637 7.142-2.637Zm-.041 3.904c-1.412 0-2.485.505-3.219 1.516-.529.733-.863 1.605-1.003 2.616h8.063v-.145c0-1.08-.305-2.014-.914-2.803-.609-.789-1.585-1.184-2.927-1.184Zm-66.339 15.697h-5.274l-.021-2.761h-.021c-.567.872-1.377 1.619-2.429 2.242-1.038.623-2.284.934-3.737.934-2.464 0-4.41-.906-5.835-2.72-1.426-1.827-2.139-4.132-2.139-6.914v-.664c0-2.782.727-5.08 2.18-6.894 1.468-1.813 3.399-2.72 5.794-2.72 1.467 0 2.706.243 3.716.727 1.024.471 1.82 1.094 2.388 1.869v-13.393h5.378v30.294Zm-9.552-15.593c-1.494 0-2.595.54-3.3 1.619-.693 1.08-1.039 2.471-1.039 4.174v.519c0 1.703.346 3.101 1.038 4.194.706 1.08 1.807 1.62 3.301 1.62.997 0 1.848-.284 2.554-.852.706-.567 1.212-1.218 1.516-1.951v-6.707c-.304-.733-.81-1.35-1.516-1.848-.706-.512-1.557-.768-2.554-.768Zm-35.38-3.966c2.768 0 4.852.519 6.25 1.558 1.411 1.024 2.118 2.713 2.118 5.066v8.347c0 .83.062 1.619.186 2.366.125.734.326 1.371.603 1.911v.311h-5.358a4.689 4.689 0 0 1-.54-1.246 11.119 11.119 0 0 1-.27-1.536c-.456.775-1.252 1.481-2.387 2.118-1.121.623-2.54.934-4.257.934-2.02 0-3.606-.484-4.755-1.453-1.148-.969-1.723-2.395-1.723-4.277 0-1.883.748-3.385 2.243-4.506 1.495-1.135 3.488-1.703 5.98-1.703h4.775v-1.453c0-1.024-.256-1.8-.768-2.326-.499-.526-1.315-.789-2.45-.789-1.121 0-1.986.229-2.595.685-.596.457-.893 1.108-.893 1.952v.457l-5.087-.021v-.581c0-1.717.796-3.115 2.387-4.194 1.592-1.08 3.772-1.62 6.54-1.62Zm-.25 10.838c-1.522 0-2.65.236-3.384.707-.72.47-1.08 1.204-1.08 2.201 0 .941.277 1.647.83 2.117.555.471 1.344.706 2.368.706 1.107 0 2.111-.387 3.01-1.162.914-.776 1.371-1.648 1.371-2.617v-1.952h-3.114Zm132.679-10.838c2.768 0 4.851.519 6.249 1.558 1.412 1.024 2.118 2.712 2.118 5.066v8.347c0 .83.062 1.619.187 2.366.124.734.325 1.371.602 1.911v.311h-5.357a4.722 4.722 0 0 1-.54-1.246 11.301 11.301 0 0 1-.27-1.536c-.456.775-1.253 1.481-2.388 2.118-1.121.623-2.539.934-4.256.934-2.021 0-3.606-.484-4.755-1.453-1.149-.969-1.723-2.395-1.723-4.277 0-1.883.747-3.385 2.242-4.506 1.495-1.135 3.489-1.703 5.98-1.703h4.776v-1.453c0-1.024-.256-1.8-.768-2.326-.499-.526-1.316-.789-2.451-.789-1.121 0-1.986.229-2.595.685-.595.457-.893 1.108-.893 1.952v.457l-5.087-.021v-.581c0-1.717.796-3.115 2.388-4.194 1.592-1.08 3.772-1.62 6.541-1.62Zm-.25 10.838c-1.522 0-2.651.236-3.384.707-.72.47-1.08 1.204-1.08 2.201 0 .941.277 1.647.831 2.117.553.471 1.342.706 2.367.706 1.107 0 2.111-.387 3.01-1.162.914-.776 1.371-1.648 1.371-2.617v-1.952h-3.115ZM10.735 122.71c2.865 0 5.087.851 6.665 2.554 1.592 1.688 2.388 3.903 2.388 6.644 0 2.796-.831 5.08-2.492 6.852a7.987 7.987 0 0 1-2.345 1.75l6.041 12.431h-6.208l-5.237-11.523H5.67v11.523H0V122.71h10.735Zm-5.066 14.825h3.924c1.66 0 2.824-.499 3.488-1.495.664-.997.997-2.277.997-3.841 0-1.565-.333-2.838-.997-3.821-.664-.997-1.827-1.495-3.488-1.495H5.669v10.652Z" fill="#F7F7F7"/><path d="M28.487 152.941h-5.585V133.86h5.585v19.081Zm56.975-19.434c.36 0 .72.027 1.08.083.36.041.609.09.747.145v4.153a4.627 4.627 0 0 0-.913-.187 7.857 7.857 0 0 0-1.184-.083c-.927 0-1.84.304-2.74.913a6.281 6.281 0 0 0-2.098 2.388v12.022h-5.627V133.86h5.503l.02 2.657h.021a6.79 6.79 0 0 1 2.139-2.159c.872-.567 1.89-.851 3.052-.851Zm76.43-7.579-13.538 22.611h14.182v4.402h-21.407v-3.073l13.6-22.611h-12.853v-4.547h20.016v3.218ZM25.726 124.06c1.01 0 1.786.276 2.325.83.54.553.81 1.253.81 2.097 0 .817-.277 1.516-.83 2.097-.554.581-1.343.872-2.367.872-1.01 0-1.786-.291-2.326-.872s-.81-1.28-.81-2.097c0-.83.277-1.523.83-2.076.555-.568 1.344-.851 2.368-.851ZM0 172.235v-.477h1.04v.448c0 .986.296 1.733.887 2.242.592.502 1.412.754 2.461.754 1.05 0 1.857-.255 2.423-.764.573-.508.859-1.173.859-1.994 0-.775-.242-1.389-.725-1.841-.477-.458-1.406-.919-2.786-1.383-1.386-.471-2.385-.979-2.995-1.526-.604-.554-.906-1.368-.906-2.443 0-1.03.356-1.869 1.068-2.518.712-.649 1.714-.973 3.005-.973s2.296.35 3.015 1.049c.725.7 1.087 1.597 1.087 2.69v.382h-1.03v-.382c0-.82-.254-1.494-.763-2.022-.51-.534-1.279-.801-2.309-.801-1.05 0-1.819.225-2.309.677-.49.452-.734 1.078-.734 1.879 0 .732.242 1.314.725 1.746.483.433 1.412.881 2.786 1.345 1.38.465 2.375 1.002 2.986 1.613.61.61.915 1.44.915 2.489 0 1.094-.388 1.982-1.164 2.662-.775.681-1.825 1.021-3.148 1.021-1.329 0-2.394-.337-3.196-1.011C.397 174.416 0 173.462 0 172.235Zm10.618 3.644v-9.216h.935l.028 1.355h.02c.26-.432.61-.805 1.049-1.116.439-.312.96-.468 1.564-.468.147 0 .3.013.458.039.166.025.28.054.344.085v.945a4.15 4.15 0 0 0-.401-.067 3.071 3.071 0 0 0-.496-.038c-.54 0-1.03.162-1.47.486a3.225 3.225 0 0 0-1.02 1.231v6.764h-1.011Zm5.018-.63c0-.222.07-.41.21-.563.14-.159.337-.238.591-.238.26 0 .458.079.592.238.14.153.21.341.21.563 0 .229-.07.42-.21.573-.14.152-.337.229-.592.229-.26 0-.46-.077-.6-.229a.862.862 0 0 1-.201-.573Zm10.694.706-3.263-13.966h1.05l2.604 11.467c.038.159.07.318.096.477.025.152.054.337.085.553h.058c.031-.216.063-.401.095-.553.032-.159.067-.318.105-.477l2.843-11.467h1.173l2.89 11.467c.039.159.07.318.096.477.032.152.064.337.096.553h.057c.025-.223.05-.41.076-.563.032-.152.067-.308.105-.467l2.576-11.467h.992l-3.263 13.976h-1.078l-2.9-11.582c-.038-.146-.08-.321-.124-.524a10.321 10.321 0 0 1-.114-.611h-.048c-.032.204-.07.407-.114.611-.039.197-.077.372-.115.524l-2.89 11.572H26.33Zm12.497-4.56v-.267c0-1.406.363-2.538 1.088-3.396.731-.865 1.704-1.298 2.919-1.298 1.208 0 2.127.392 2.757 1.174.636.782.954 1.847.954 3.196v.467h-7.126v-.849h6.115v-.124c0-.82-.217-1.523-.649-2.108-.426-.592-1.107-.887-2.042-.887-.979 0-1.726.356-2.241 1.068-.51.706-.764 1.619-.764 2.738v.305c0 1.12.267 2.039.802 2.757.534.713 1.326 1.069 2.375 1.069.662 0 1.224-.134 1.689-.401a3.26 3.26 0 0 0 1.097-.992l.668.591c-.274.42-.7.805-1.279 1.155-.572.343-1.294.515-2.165.515-1.342 0-2.379-.429-3.11-1.288-.725-.865-1.088-2.007-1.088-3.425Zm9.511 4.484v-14.176h1.012v6.201a3.422 3.422 0 0 1 1.211-1.021c.509-.274 1.12-.41 1.832-.41 1.164 0 2.08.426 2.747 1.278.674.846 1.011 1.952 1.011 3.32v.276c0 1.374-.337 2.506-1.01 3.397-.669.884-1.59 1.326-2.767 1.326-.713 0-1.336-.147-1.87-.439-.534-.293-.929-.646-1.183-1.059h-.02l-.028 1.307h-.935Zm1.012-2.404c.222.451.569.852 1.04 1.202.476.343 1.074.515 1.793.515.967 0 1.698-.359 2.194-1.078.496-.719.744-1.638.744-2.757v-.296c0-1.106-.248-2-.744-2.68-.49-.687-1.234-1.031-2.232-1.031-.687 0-1.272.172-1.756.515-.477.344-.823.738-1.04 1.183v4.427Zm12.03-1.202c0-.929.276-1.717.83-2.366.559-.649 1.319-1.285 2.28-1.908l1.383-.897c.483-.318.84-.668 1.068-1.049.235-.388.353-.856.353-1.403 0-.585-.15-1.078-.448-1.478-.3-.401-.741-.601-1.326-.601-.58 0-1.043.216-1.393.648-.344.433-.515.977-.515 1.632 0 .496.101.97.305 1.421.21.445.61 1.05 1.202 1.813l6.086 7.794h-1.211l-5.667-7.279c-.661-.852-1.113-1.539-1.355-2.061a3.963 3.963 0 0 1-.362-1.688c0-.941.273-1.701.82-2.28.554-.579 1.25-.868 2.09-.868.846 0 1.517.273 2.013.82.496.541.744 1.24.744 2.099 0 .706-.166 1.31-.496 1.812a4.58 4.58 0 0 1-1.317 1.298l-1.412.916c-.897.585-1.564 1.154-2.003 1.707a2.974 2.974 0 0 0-.649 1.899c0 .846.26 1.548.782 2.108s1.209.84 2.061.84c1.221 0 2.248-.516 3.081-1.546.84-1.037 1.26-2.439 1.26-4.207h.973c0 1.902-.503 3.482-1.508 4.741-1.005 1.253-2.273 1.88-3.806 1.88-1.196 0-2.14-.357-2.833-1.069-.687-.718-1.03-1.628-1.03-2.728Zm15.368 3.606v-13.89h3.864c1.373 0 2.407.375 3.1 1.126.693.75 1.04 1.726 1.04 2.928s-.347 2.182-1.04 2.939c-.693.756-1.727 1.135-3.1 1.135h-2.824v5.762h-1.04Zm1.04-6.659h2.805c1.138 0 1.942-.305 2.413-.916.47-.61.706-1.361.706-2.251 0-.903-.235-1.654-.706-2.252-.47-.604-1.275-.909-2.413-.915h-2.805v6.334Zm8.672 6.659v-9.216h.934l.03 1.355h.018c.261-.432.61-.805 1.05-1.116.438-.312.96-.468 1.564-.468.146 0 .299.013.458.039.165.025.28.054.344.085v.945a4.155 4.155 0 0 0-.401-.067 3.072 3.072 0 0 0-.496-.038c-.54 0-1.03.162-1.47.486a3.225 3.225 0 0 0-1.02 1.231v6.764H86.46Zm4.989-4.484v-.267c0-1.406.378-2.538 1.135-3.396.757-.865 1.778-1.298 3.063-1.298 1.29 0 2.311.433 3.062 1.298.757.858 1.135 1.994 1.135 3.406v.257c0 1.418-.382 2.56-1.145 3.425-.757.859-1.774 1.288-3.052 1.288-1.279 0-2.3-.433-3.063-1.298-.757-.865-1.135-2.003-1.135-3.415Zm1.03-.277v.306c0 1.1.27 2.009.811 2.728.547.719 1.332 1.078 2.356 1.078 1.024 0 1.807-.359 2.347-1.078.547-.719.82-1.628.82-2.728v-.306c0-1.113-.27-2.025-.81-2.737-.534-.713-1.323-1.069-2.366-1.069-1.03 0-1.816.356-2.356 1.069-.535.712-.802 1.624-.802 2.737Zm8.662.268v-.277c0-1.361.344-2.474 1.031-3.339.687-.865 1.609-1.297 2.766-1.297.719 0 1.329.13 1.832.391.509.26.9.588 1.173.982v-6.143h1.012v14.176h-.935l-.029-1.374h-.019c-.261.413-.652.776-1.173 1.088-.522.305-1.136.458-1.842.458-1.183 0-2.114-.436-2.795-1.307-.68-.872-1.021-1.991-1.021-3.358Zm1.031.009c0 1.107.248 2.013.744 2.719.502.706 1.253 1.059 2.251 1.059.681 0 1.259-.175 1.736-.525.477-.356.824-.76 1.04-1.211v-4.417c-.21-.452-.556-.843-1.04-1.174-.483-.33-1.065-.496-1.745-.496-1.005 0-1.756.35-2.252 1.05-.489.699-.734 1.599-.734 2.699v.296Zm9.206 1.431v-6.163h1.011v6.173c0 .852.194 1.456.582 1.812.394.356.954.534 1.679.534.629 0 1.18-.168 1.65-.505.477-.337.852-.76 1.126-1.269v-6.745h1.011v9.216h-.935l-.038-1.422h-.009a3.786 3.786 0 0 1-1.298 1.174c-.528.292-1.132.439-1.812.439-.916 0-1.641-.248-2.176-.744-.527-.503-.791-1.336-.791-2.5Zm8.938-1.431v-.267c0-1.437.36-2.579 1.078-3.425.726-.846 1.718-1.269 2.977-1.269 1.202 0 2.102.315 2.7.945.604.629.906 1.396.906 2.299v.124h-.992v-.124c0-.687-.213-1.253-.639-1.698-.426-.445-1.085-.668-1.975-.668-.992 0-1.746.343-2.261 1.03-.509.687-.763 1.609-.763 2.767v.315c0 1.132.254 2.051.763 2.757.515.699 1.272 1.049 2.27 1.049.884 0 1.543-.222 1.975-.668.439-.451.658-1.03.658-1.736v-.124h.983v.124c0 .903-.308 1.676-.925 2.318-.611.643-1.508.964-2.691.964-1.265 0-2.26-.423-2.986-1.269-.718-.852-1.078-2-1.078-3.444Zm8.243-3.883v-.849h5.075v.849h-5.075Zm1.698 5.934v-9.845h1.011v9.883c0 .674.112 1.132.334 1.374.223.235.553.353.992.353.185 0 .356-.016.515-.048.166-.031.315-.076.449-.133v.877a2.432 2.432 0 0 1-.496.134 3.2 3.2 0 0 1-.687.067c-.649 0-1.164-.197-1.546-.592-.381-.394-.572-1.084-.572-2.07Zm8.939 2.433v-13.89h3.406c1.717 0 3.084.594 4.102 1.784 1.024 1.189 1.536 2.798 1.536 4.827v.668c0 2.073-.519 3.695-1.555 4.865-1.031 1.164-2.392 1.746-4.083 1.746h-3.406Zm1.04-.897h2.366c1.392 0 2.505-.499 3.339-1.498.833-.998 1.249-2.404 1.249-4.216v-.659c0-1.78-.413-3.176-1.24-4.188-.82-1.017-1.937-1.529-3.348-1.535h-2.366v12.096Zm9.597-3.587v-.267c0-1.406.362-2.538 1.087-3.396.732-.865 1.705-1.298 2.92-1.298 1.208 0 2.127.392 2.757 1.174.636.782.954 1.847.954 3.196v.467h-7.127v-.849h6.115v-.124c0-.82-.216-1.523-.648-2.108-.427-.592-1.107-.887-2.042-.887-.979 0-1.727.356-2.242 1.068-.509.706-.763 1.619-.763 2.738v.305c0 1.12.267 2.039.801 2.757.535.713 1.326 1.069 2.376 1.069.661 0 1.224-.134 1.688-.401.465-.267.83-.598 1.097-.992l.668.591c-.273.42-.699.805-1.278 1.155-.573.343-1.294.515-2.166.515-1.342 0-2.378-.429-3.11-1.288-.725-.865-1.087-2.007-1.087-3.425Zm9.063 1.698h1.001v.153c0 .687.223 1.189.668 1.507.445.318 1.059.477 1.841.477.789 0 1.393-.153 1.813-.458.426-.305.639-.731.639-1.278 0-.541-.188-.938-.563-1.193-.375-.26-1.075-.521-2.099-.782-1.024-.261-1.787-.585-2.289-.973-.496-.394-.744-.951-.744-1.669 0-.738.289-1.33.868-1.775.579-.445 1.364-.668 2.356-.668.992 0 1.784.236 2.376.706.597.465.896 1.129.896 1.994v.134h-1.001v-.134c0-.629-.197-1.091-.592-1.383-.388-.293-.951-.439-1.688-.439-.725 0-1.275.134-1.651.401-.375.267-.563.642-.563 1.125 0 .446.178.795.535 1.05.362.254 1.046.512 2.051.773 1.017.26 1.79.594 2.318 1.001.534.401.801.986.801 1.756 0 .801-.286 1.45-.858 1.946-.573.496-1.441.744-2.605.744-1.151 0-2.025-.251-2.623-.754-.592-.502-.887-1.205-.887-2.108v-.153Zm9.053 2.786v-9.216h1.002v9.216h-1.002Zm-.2-12.459a.71.71 0 0 1 .181-.496c.121-.134.296-.201.525-.201.228 0 .4.067.515.201a.689.689 0 0 1 .181.496c0 .197-.06.362-.181.496-.121.133-.296.2-.525.2-.229 0-.404-.067-.525-.2a.738.738 0 0 1-.171-.496Zm3.567 15.416.573-.792c.299.28.699.525 1.202.735.502.21 1.072.315 1.708.315.877 0 1.583-.286 2.117-.859.535-.572.802-1.444.802-2.614v-1.03c-.286.407-.684.75-1.193 1.03s-1.122.42-1.841.42c-1.164 0-2.083-.429-2.757-1.288-.674-.865-1.011-1.987-1.011-3.367v-.277c0-1.361.337-2.474 1.011-3.339.674-.865 1.6-1.297 2.776-1.297.693 0 1.307.146 1.841.438.541.293.942.643 1.202 1.05h.019l.029-1.298h.935v8.958c0 1.438-.359 2.525-1.078 3.263-.712.744-1.666 1.116-2.862 1.116-.725 0-1.383-.111-1.975-.334a5.052 5.052 0 0 1-1.498-.83Zm.621-7.441c0 1.119.248 2.029.744 2.729.502.693 1.256 1.039 2.261 1.039.68 0 1.259-.175 1.736-.524.483-.35.83-.751 1.04-1.202v-4.379c-.217-.445-.566-.84-1.05-1.183-.477-.35-1.055-.525-1.736-.525-1.005 0-1.755.35-2.251 1.05-.496.699-.744 1.599-.744 2.699v.296Zm9.291 4.484v-9.216h.935l.029 1.403h.019c.312-.49.735-.878 1.269-1.164.534-.286 1.141-.429 1.822-.429.916 0 1.641.251 2.175.753.534.496.801 1.323.801 2.481v6.172h-1.001v-6.125c0-.858-.201-1.472-.601-1.841-.395-.369-.954-.553-1.679-.553-.63 0-1.183.168-1.66.505a3.34 3.34 0 0 0-1.097 1.25v6.764h-1.012Zm8.863-4.484v-.267c0-1.406.362-2.538 1.087-3.396.732-.865 1.705-1.298 2.92-1.298 1.208 0 2.127.392 2.757 1.174.636.782.954 1.847.954 3.196v.467h-7.127v-.849h6.115v-.124c0-.82-.216-1.523-.648-2.108-.426-.592-1.107-.887-2.042-.887-.979 0-1.727.356-2.242 1.068-.508.706-.763 1.619-.763 2.738v.305c0 1.12.267 2.039.801 2.757.535.713 1.327 1.069 2.376 1.069.661 0 1.224-.134 1.688-.401.465-.267.83-.598 1.098-.992l.667.591c-.273.42-.699.805-1.278 1.155-.572.343-1.294.515-2.166.515-1.342 0-2.378-.429-3.11-1.288-.725-.865-1.087-2.007-1.087-3.425Zm9.511 4.484v-9.216h.935l.029 1.355h.019c.26-.432.61-.805 1.049-1.116.439-.312.96-.468 1.565-.468.146 0 .299.013.458.039.165.025.279.054.343.085v.945a4.116 4.116 0 0 0-.401-.067 3.066 3.066 0 0 0-.496-.038c-.54 0-1.03.162-1.469.486a3.219 3.219 0 0 0-1.021 1.231v6.764h-1.011Z" fill="#F7F7F7"/><defs><filter id="logo-ricardo-zea-full__a" x="62.399" y="4.89" width="75.913" height="114.978" filterUnits="userSpaceOnUse" color-interpolation-filters="sRGB"><feFlood flood-opacity="0" result="BackgroundImageFix"/><feColorMatrix in="SourceAlpha" values="0 0 0 0 0 0 0 0 0 0 0 0 0 0 0 0 0 0 127 0" result="hardAlpha"/><feOffset dy="2"/><feGaussianBlur stdDeviation="1.3"/><feComposite in2="hardAlpha" operator="out"/><feColorMatrix values="0 0 0 0 0 0 0 0 0 0 0 0 0 0 0 0 0 0 0.5 0"/><feBlend in2="BackgroundImageFix" result="effect1_dropShadow_881_4773"/><feBlend in="SourceGraphic" in2="effect1_dropShadow_881_4773" result="shape"/></filter></defs></svg>