<svg xmlns="http://www.w3.org/2000/svg" width="32" height="33" fill="none"><path fill="#1ABCFE" fill-rule="evenodd" d="M16 16.942a4.5 4.5 0 1 1 9 0 4.5 4.5 0 0 1-9 0Z" clip-rule="evenodd"/><path fill="#0ACF83" fill-rule="evenodd" d="M7 25.942a4.5 4.5 0 0 1 4.5-4.5H16v4.5a4.5 4.5 0 1 1-9 0Z" clip-rule="evenodd"/><path fill="#FF7262" fill-rule="evenodd" d="M16 3.442v9h4.5a4.5 4.5 0 1 0 0-9H16Z" clip-rule="evenodd"/><path fill="#F24E1E" fill-rule="evenodd" d="M7 7.942a4.5 4.5 0 0 0 4.5 4.5H16v-9h-4.5a4.5 4.5 0 0 0-4.5 4.5Z" clip-rule="evenodd"/><path fill="#A259FF" fill-rule="evenodd" d="M7 16.942a4.5 4.5 0 0 0 4.5 4.5H16v-9h-4.5a4.5 4.5 0 0 0-4.5 4.5Z" clip-rule="evenodd"/></svg>