<svg width="400" height="69" xmlns="http://www.w3.org/2000/svg"><path fill-rule="evenodd" clip-rule="evenodd" d="M48.568 9 37.613 2.674h-.005c-1.121-.647-2.323-.97-3.525-.97s-2.404.323-3.526.97L19.597 9l.002.003-10.951 6.321a7.032 7.032 0 0 0-2.605 2.575 7.024 7.024 0 0 0-.93 3.536v25.297c0 1.283.324 2.486.93 3.536a7.031 7.031 0 0 0 2.605 2.575l10.951 6.322-.001.002 10.96 6.324c1.12.647 2.323.971 3.525.971s2.404-.324 3.525-.97l10.96-6.325-.002-.002 10.952-6.322a7.03 7.03 0 0 0 2.604-2.575 7.024 7.024 0 0 0 .931-3.536V21.434a7.024 7.024 0 0 0-.93-3.536 7.032 7.032 0 0 0-2.605-2.575L48.566 9.002l.002-.003ZM36.38 4.803l10.954 6.325 10.96 6.324a4.79 4.79 0 0 1 1.106.871L46.378 25.78a14.953 14.953 0 0 0-1.825-2.23 14.715 14.715 0 0 0-10.47-4.362c-4.09 0-7.791 1.667-10.47 4.362a14.955 14.955 0 0 0-1.792 2.18L8.854 18.233a4.819 4.819 0 0 1 1.018-.78L31.786 4.804l-.001-.002a4.825 4.825 0 0 1 1.01-.44v10.976c.005.333.14.652.378.887a1.294 1.294 0 0 0 1.82 0 1.27 1.27 0 0 0 .377-.887V4.363c.345.104.683.25 1.01.439v.002ZM7.687 20.394c-.071.331-.108.68-.108 1.04v25.297c0 .407.047.798.137 1.169l9.57-5.558.014-.008c.289-.163.63-.204.952-.115a1.313 1.313 0 0 1 .91 1.586c-.084.325-.29.602-.575.772l-.013.008-9.527 5.532c.247.222.522.421.825.596L31.786 63.36l-.001.002a4.8 4.8 0 0 0 1.033.447l.012-14.886a14.722 14.722 0 0 1-9.217-4.31 14.892 14.892 0 0 1-4.337-10.531c0-2.217.481-4.32 1.344-6.21l-12.933-7.48Zm27.611 43.43c.37-.105.732-.259 1.083-.46l-.001-.003 21.914-12.648a4.89 4.89 0 0 0 .824-.596l-9.526-5.532-.014-.008a1.27 1.27 0 0 1-.575-.771 1.31 1.31 0 0 1 .91-1.587c.322-.09.664-.048.953.115l.013.008 9.57 5.557c.09-.37.137-.76.137-1.168V21.434c0-.315-.028-.62-.082-.914L47.57 27.927a14.913 14.913 0 0 1 1.32 6.156 14.89 14.89 0 0 1-4.337 10.531 14.724 14.724 0 0 1-9.242 4.312l-.013 14.898ZM22.816 29.142l10.026 5.798-.01 11.44a12.221 12.221 0 0 1-7.438-3.558 12.358 12.358 0 0 1-3.6-8.74c0-1.756.365-3.427 1.022-4.94Zm1.196-2.143c.413-.592.875-1.146 1.382-1.656a12.214 12.214 0 0 1 8.689-3.62c3.393 0 6.465 1.384 8.688 3.62.519.521.99 1.089 1.41 1.696l-10.098 5.783L24.013 27Zm21.357 2.188-10.047 5.754-.01 11.44a12.221 12.221 0 0 0 7.46-3.559 12.358 12.358 0 0 0 3.599-8.74c0-1.739-.358-3.394-1.002-4.895Z" fill="#1D5D2E"/><path d="M102.546 17.714v29.94a2.012 2.012 0 0 1-.35 1.131c-.227.33-.547.58-.916.713a1.819 1.819 0 0 1-1.144.03 1.882 1.882 0 0 1-.95-.662l-19.418-25.52v24.308c0 .52-.198 1.017-.552 1.384a1.85 1.85 0 0 1-1.332.573c-.5 0-.979-.206-1.332-.573A1.995 1.995 0 0 1 76 47.654v-29.94c0-.407.122-.803.348-1.134.227-.332.548-.581.918-.715a1.82 1.82 0 0 1 1.146-.03c.376.114.708.347.95.666l19.416 25.521V17.714c0-.519.198-1.016.551-1.383a1.85 1.85 0 0 1 1.333-.573c.499 0 .979.206 1.332.573.353.367.552.864.552 1.383Zm38.656 14.97c0 9.692-7.2 17.576-16.047 17.576-8.848 0-16.047-7.884-16.047-17.576 0-9.693 7.199-17.577 16.047-17.577 8.847 0 16.047 7.886 16.047 17.577Zm-3.768 0c0-7.535-5.508-13.665-12.28-13.665-6.773 0-12.28 6.13-12.28 13.665 0 7.534 5.507 13.664 12.28 13.664 6.772 0 12.28-6.13 12.28-13.664Zm132.707 0c0 9.692-7.2 17.576-16.047 17.576-8.846 0-16.047-7.884-16.047-17.576 0-9.693 7.199-17.577 16.047-17.577s16.047 7.886 16.047 17.577Zm-3.768 0c0-7.535-5.509-13.665-12.281-13.665s-12.28 6.13-12.28 13.665c0 7.534 5.509 13.664 12.28 13.664 6.771 0 12.281-6.13 12.281-13.664Zm34.613-16.926c-.5 0-.979.206-1.332.573a1.996 1.996 0 0 0-.552 1.383v18.291a10.323 10.323 0 0 1-.629 3.93 10.04 10.04 0 0 1-2.058 3.363 9.62 9.62 0 0 1-3.162 2.258 9.308 9.308 0 0 1-3.76.795 9.308 9.308 0 0 1-3.76-.795 9.609 9.609 0 0 1-3.162-2.258 10.042 10.042 0 0 1-2.059-3.363 10.342 10.342 0 0 1-.628-3.93V17.714c0-.519-.199-1.016-.552-1.383a1.85 1.85 0 0 0-1.332-.573c-.5 0-.979.206-1.333.573a1.995 1.995 0 0 0-.551 1.383v18.291a14.356 14.356 0 0 0 .922 5.42 13.96 13.96 0 0 0 2.877 4.624 13.375 13.375 0 0 0 4.381 3.1c1.645.72 3.412 1.09 5.197 1.09 1.785 0 3.552-.37 5.197-1.09a13.386 13.386 0 0 0 4.381-3.1 13.976 13.976 0 0 0 2.877-4.623c.653-1.725.966-3.568.922-5.421V17.714c0-.519-.198-1.016-.552-1.383a1.848 1.848 0 0 0-1.332-.573Zm-67.998 22.396a8.788 8.788 0 0 0-2.531-3.818 13.703 13.703 0 0 0-3.508-2.237 22.008 22.008 0 0 0-3.72-1.3c-.676-.19-1.163-.272-1.827-.429-.557-.12-1.113-.24-1.652-.39a17.422 17.422 0 0 1-3.036-1.078 6.96 6.96 0 0 1-2.237-1.608 3.853 3.853 0 0 1-.618-.998 4.092 4.092 0 0 1-.298-1.072 4.753 4.753 0 0 1 .204-2.397 4.588 4.588 0 0 1 1.344-1.96 8.02 8.02 0 0 1 4.31-1.746 12.629 12.629 0 0 1 4.266.179 14.08 14.08 0 0 1 3.148 1.114c.661.325 1.303.69 1.923 1.092.201.12.397.268.514.347l.183.127.018.012c.367.27.823.378 1.267.299a1.69 1.69 0 0 0 1.099-.719 1.81 1.81 0 0 0 .288-1.315 1.766 1.766 0 0 0-.692-1.142l-.712-.557a17.703 17.703 0 0 0-2.27-1.48 15.789 15.789 0 0 0-3.955-1.547 15.294 15.294 0 0 0-5.496-.3 11.615 11.615 0 0 0-6.33 2.653 8.597 8.597 0 0 0-2.375 3.422c-.133.34-.218.7-.322 1.055-.07.36-.133.725-.181 1.09l-.033.549-.012.275-.007.138.007.215.022.433c.004.17.018.339.042.506a7.998 7.998 0 0 0 1.848 4.315 10.62 10.62 0 0 0 3.463 2.556 20.872 20.872 0 0 0 3.694 1.327 37.32 37.32 0 0 0 1.847.436c.505.12 1.202.252 1.681.396a13.835 13.835 0 0 1 5.636 2.683 4.303 4.303 0 0 1 1.421 2.071c.262.824.279 1.71.048 2.543-.092.36-.228.706-.404 1.03-.087.18-.192.349-.314.504a3.341 3.341 0 0 1-.377.464 6.417 6.417 0 0 1-2.011 1.438 11.733 11.733 0 0 1-4.884 1.012 9.92 9.92 0 0 1-1.155-.05 10.346 10.346 0 0 1-1.023-.15 12.853 12.853 0 0 1-1.97-.562 17.434 17.434 0 0 1-3.117-1.49 19.743 19.743 0 0 1-1.874-1.25c-.413-.31-.611-.485-.611-.485a1.656 1.656 0 0 0-1.212-.426 1.67 1.67 0 0 0-1.153.576c-.298.34-.455.789-.438 1.248.018.46.207.894.529 1.21l.045.046s.247.24.724.648a20.465 20.465 0 0 0 5.837 3.532c.815.318 1.652.57 2.504.757.486.106.977.186 1.471.24.49.055.984.081 1.477.077 2.209.015 4.396-.45 6.42-1.366a8.925 8.925 0 0 0 3.328-2.48 9.375 9.375 0 0 0 1.907-3.763l.068-.301.03-.218.061-.435.016-.11.019-.178v-.07l.009-.285.011-.57c0-.383-.061-.777-.099-1.165a11.63 11.63 0 0 0-.275-1.168Zm-58.445-5.47c0 10.757-6.696 16.927-18.356 16.927h-6.686c-.5 0-.979-.206-1.332-.573a1.996 1.996 0 0 1-.552-1.384v-29.94c0-.519.199-1.016.552-1.383a1.848 1.848 0 0 1 1.332-.573h6.686c12.678 0 18.356 8.5 18.356 16.926Zm-3.769 0c0-7.905-5.727-13.014-14.59-13.014h-4.801v26.028h4.801c12.06 0 14.59-7.078 14.59-13.014Zm31.365-13.014c.5 0 .979-.206 1.332-.573.353-.367.552-.864.552-1.383s-.199-1.016-.552-1.383a1.848 1.848 0 0 0-1.332-.573h-19.254c-.248 0-.493.05-.721.149a1.88 1.88 0 0 0-.612.424 1.966 1.966 0 0 0-.408.634 2.014 2.014 0 0 0-.143.749v29.94c0 .52.198 1.017.551 1.384.354.367.833.573 1.333.573h19.258c.5 0 .979-.206 1.333-.573.353-.367.552-.865.552-1.384 0-.518-.199-1.016-.552-1.383a1.852 1.852 0 0 0-1.333-.573h-17.374V34.567h12.2c.5 0 .979-.206 1.332-.573.354-.367.552-.865.552-1.384 0-.518-.198-1.016-.552-1.383a1.848 1.848 0 0 0-1.332-.573h-12.205V19.67h17.375Zm194.977 0c.5 0 .979-.206 1.332-.573.354-.367.552-.864.552-1.383s-.198-1.016-.552-1.383a1.848 1.848 0 0 0-1.332-.573h-19.26c-.247 0-.492.05-.721.149a1.875 1.875 0 0 0-.611.424 1.969 1.969 0 0 0-.409.634 2.035 2.035 0 0 0-.143.749v29.94c0 .52.198 1.017.552 1.384.353.367.832.573 1.332.573h19.26c.5 0 .979-.206 1.332-.573.354-.367.552-.865.552-1.384 0-.518-.198-1.016-.552-1.383a1.848 1.848 0 0 0-1.332-.573H379.74V34.567h12.209a1.85 1.85 0 0 0 1.332-.573c.353-.367.552-.865.552-1.384 0-.518-.199-1.016-.552-1.383a1.851 1.851 0 0 0-1.332-.573H379.74V19.67h17.376Zm-62.189 26.856a1.999 1.999 0 0 1 .318 1.461 2.004 2.004 0 0 1-.264.712 1.943 1.943 0 0 1-.507.554 1.816 1.816 0 0 1-2.093.055 1.923 1.923 0 0 1-.533-.526l-9.673-14.229h-8.363v13.101c0 .52-.198 1.017-.552 1.384a1.848 1.848 0 0 1-1.332.573c-.5 0-.979-.206-1.332-.573a1.996 1.996 0 0 1-.552-1.384v-29.94c0-.519.199-1.016.552-1.383a1.848 1.848 0 0 1 1.332-.573h13.373c5.694 0 9.826 3.955 9.826 9.397 0 4.98-3.463 8.7-8.402 9.303l8.202 12.069Zm-9.628-15.885c3.567 0 6.058-2.256 6.058-5.486s-2.491-5.485-6.058-5.485h-11.487v10.971h11.487Zm18.555.458c.087-.46.115-.9.231-1.376.209-.963.519-1.899.923-2.792a13.786 13.786 0 0 1 3.312-4.563 12.9 12.9 0 0 1 4.472-2.648 13.574 13.574 0 0 1 4.588-.692c2.332.069 4.607.757 6.609 1.999.564.346 1.104.733 1.616 1.158l.534.468.087.076c.338.288.77.43 1.207.395a1.675 1.675 0 0 0 1.134-.583c.291-.339.445-.782.429-1.236a1.793 1.793 0 0 0-.515-1.2l-.636-.627a17.364 17.364 0 0 0-1.963-1.583 15.922 15.922 0 0 0-8.416-2.77 16.914 16.914 0 0 0-5.867.882 16.642 16.642 0 0 0-5.755 3.406 17.7 17.7 0 0 0-4.259 5.867 17.99 17.99 0 0 0-1.181 3.595c-.144.625-.213 1.319-.312 1.982-.037.322-.033.579-.053.871l-.044.952a18.082 18.082 0 0 0 3.214 10.28c2.082 2.992 5.017 5.23 8.39 6.398.998.34 2.026.58 3.068.719a9.87 9.87 0 0 0 1.4.132l.635.033.256.009.175-.006.347-.011a15.858 15.858 0 0 0 8.401-2.771 17.41 17.41 0 0 0 1.987-1.607l.577-.576a1.807 1.807 0 0 0 .084-2.447 1.673 1.673 0 0 0-1.144-.578 1.656 1.656 0 0 0-1.209.41l-.015.013-.59.519a14.38 14.38 0 0 1-1.594 1.135 13.204 13.204 0 0 1-6.623 2h-.466l-.635-.034a6.963 6.963 0 0 1-1.2-.12 12.78 12.78 0 0 1-2.273-.548 12.903 12.903 0 0 1-4.471-2.649 13.695 13.695 0 0 1-3.35-4.647 14.158 14.158 0 0 1-1.2-5.668l.039-.754c.026-.257.026-.57.058-.813h-.002Z" fill="#0F1010"/></svg>