<svg xmlns="http://www.w3.org/2000/svg" width="32" height="33" fill="none"><g fill="#fff" clip-path="url(#a)"><path d="M5.533 22.942H0l4.746-9.276c.856-1.674 2.55-2.724 4.397-2.724h2.842l-6.452 12ZM12.325 22.942H6.578l6.452-12h5.747l-6.453 12ZM20.692 20.22c-.856 1.673-2.55 2.722-4.397 2.722h-2.842l6.452-12h5.533l-4.746 9.277ZM28.865 10.942c1.732 0 3.135 1.436 3.135 3.208 0 1.77-1.404 3.207-3.135 3.207-1.73 0-3.134-1.436-3.134-3.207 0-1.772 1.403-3.208 3.134-3.208Z"/></g><defs><clipPath id="a"><path fill="#fff" d="M0 .942h32v32H0z"/></clipPath></defs></svg>