<svg width="528" height="443" xmlns="http://www.w3.org/2000/svg"><path d="m263.61 0 114.078 54.605 28.175 122.694-78.945 98.394H200.301l-78.944-98.394 28.175-122.695L263.61 0Z" fill="#E60000"/><path fill-rule="evenodd" clip-rule="evenodd" d="m263.61 2.178-112.376 53.79-27.75 120.844 77.76 96.917h124.732l77.76-96.917-27.75-120.845L263.61 2.177Zm114.078 52.426L263.61 0 149.532 54.605 121.357 177.3l78.944 98.393h126.617l78.945-98.393-28.175-122.696Z" fill="#fff" fill-opacity=".75"/><path d="m263.609 39.393 4.141 59.293 12.383-58.142-4.181 59.29 20.383-55.858-12.422 58.134L311.9 49.62l-20.421 55.846 35.045-48.097-28.022 52.47 41.423-42.77-35.079 48.074 46.994-36.609-41.452 42.742 51.65-29.736-47.019 36.577 55.3-22.284-51.669 29.701 57.874-14.399-55.315 22.247 59.323-6.233-57.885 14.36 59.616 2.054-59.327 6.193 58.749 10.301-59.615-2.094 56.739 18.347-58.742-10.341 53.623 26.038-56.726-18.386 49.465 33.22-53.606-26.074 44.344 39.756-49.443-33.253 38.359 45.518-44.316-39.786 31.628 50.395-38.328-45.544 24.281 54.29-31.594-50.416 16.462 57.128-24.244-54.306 8.322 58.856-16.423-57.14.02 59.437-8.282-58.861-8.281 58.861.02-59.437-16.423 57.14 8.322-58.856-24.244 54.306 16.461-57.128-31.593 50.416 24.281-54.29-38.328 45.544 31.628-50.395-44.316 39.786 38.358-45.518-49.442 33.253 44.343-39.756-53.605 26.074 49.465-33.22-56.726 18.386 53.623-26.038-58.742 10.341 56.738-18.347-59.614 2.094 58.749-10.301-59.327-6.193 59.616-2.054-57.885-14.36 59.323 6.233-55.316-22.247 57.875 14.399-51.67-29.701 55.301 22.284-47.019-36.577 51.65 29.736-41.452-42.742 46.994 36.609-35.079-48.073 41.423 42.769-28.023-52.47 35.046 48.097-20.421-55.845 27.987 52.489-12.422-58.134 20.383 55.859-4.181-59.29 12.382 58.141 4.141-59.293Z" fill-opacity=".25"/><g filter="url(#is Dark=False__a)"><path d="M293.543 60.031c-24.899 7.175-37.285 24.143-49.092 54.075 10.315-32.204 10.747-46.246 5.047-74.78 16.144 58.123 87.574-18.974 94.745-26.195-3.338 6.864-36.579 63.582-65.435 94.981-41.884 45.573-42.234 68.234-42.222 68.226.011.003 68.077 11.011 105.934-72.902-23.746 52.906-26.828 64.715-15.931 99.535-53.476-70.892-129.598 27.748-151.477 72.725 7.066-43.707 51.29-116.794 72.994-140.401 21.703-23.607 37.451-50.297 45.437-75.264Z" fill="#F7F7F7"/></g><path d="M106.464 323.284c7.62 0 13.451 1.699 17.493 5.097 4.043 3.363 6.154 8.139 6.333 14.328l.053 1.019h-13.844v-.697c0-2.934-.823-5.224-2.469-6.869-1.61-1.646-3.971-2.468-7.084-2.468-3.541 0-6.296 1.216-8.263 3.648-1.932 2.397-2.897 5.939-2.897 10.626v2.522c0 4.435.947 7.959 2.843 10.57 1.896 2.576 4.651 3.864 8.264 3.864 3.184 0 5.599-.823 7.244-2.468 1.681-1.646 2.523-3.953 2.523-6.922v-.751h13.737v1.073c-.108 6.045-2.218 10.786-6.332 14.22-4.078 3.434-9.91 5.151-17.494 5.151-7.656 0-13.773-2.236-18.352-6.707-4.543-4.508-6.815-10.643-6.815-18.406v-1.771c0-7.834 2.254-13.97 6.761-18.406 4.544-4.436 10.643-6.653 18.299-6.653Z" fill="#F7F7F7"/><path fill-rule="evenodd" clip-rule="evenodd" d="M311.019 323.284c7.942 0 14.275 2.307 18.997 6.922 4.758 4.614 7.137 10.66 7.137 18.137v1.771c0 7.548-2.379 13.63-7.137 18.245-4.722 4.579-11.055 6.868-18.997 6.868-7.941 0-14.292-2.289-19.049-6.868-4.722-4.615-7.083-10.697-7.083-18.245v-1.771c0-7.477 2.379-13.523 7.137-18.137 4.757-4.615 11.089-6.922 18.995-6.922Zm0 10.41c-3.827 0-6.743 1.324-8.746 3.971-2.003 2.647-3.005 6.081-3.005 10.303v2.468c0 4.257.984 7.745 2.951 10.463 2.003 2.683 4.937 4.025 8.8 4.025 3.864 0 6.798-1.342 8.801-4.025 2.003-2.718 3.005-6.206 3.005-10.463v-2.468c0-4.222-1.002-7.656-3.005-10.303-2.003-2.647-4.937-3.971-8.801-3.971Zm137.963-10.357c7.584 0 13.398 2.164 17.44 6.493 4.079 4.293 6.117 10.267 6.117 17.923v4.025h-34.728c.21 3.857 1.197 6.951 2.961 9.282 2.04 2.648 4.955 3.971 8.747 3.971 2.718 0 4.99-.536 6.815-1.609 1.824-1.109 3.238-2.558 4.239-4.347l11.645 3.81c-1.539 3.721-4.133 6.708-7.782 8.961-3.613 2.254-8.549 3.381-14.81 3.381-8.263 0-14.668-2.254-19.211-6.761-4.507-4.508-6.761-10.643-6.761-18.406v-1.717c0-7.584 2.29-13.648 6.869-18.191 4.615-4.544 10.768-6.815 18.459-6.815Zm-.107 10.088c-3.649 0-6.421 1.306-8.317 3.917-1.369 1.896-2.233 4.15-2.594 6.761h20.838v-.375c0-2.79-.787-5.205-2.361-7.244-1.574-2.039-4.096-3.059-7.566-3.059Zm-171.447 40.568h-13.63l-.054-7.137h-.054c-1.466 2.254-3.559 4.186-6.277 5.795-2.683 1.61-5.903 2.415-9.66 2.415-6.367 0-11.394-2.343-15.078-7.03-3.685-4.722-5.528-10.678-5.528-17.869v-1.717c0-7.19 1.879-13.129 5.635-17.815 3.792-4.686 8.783-7.03 14.971-7.03 3.792 0 6.994.626 9.606 1.878 2.647 1.217 4.704 2.826 6.17 4.829v-34.61h13.899v78.291Zm-24.685-40.299c-3.863 0-6.707 1.395-8.531 4.185-1.789 2.79-2.683 6.386-2.683 10.786v1.341c0 4.401.894 8.014 2.683 10.84 1.824 2.79 4.668 4.185 8.531 4.185 2.576 0 4.776-.733 6.601-2.2 1.824-1.466 3.131-3.147 3.918-5.043v-17.333c-.787-1.896-2.094-3.488-3.918-4.776-1.825-1.323-4.025-1.985-6.601-1.985Zm-91.438-10.25c7.155 0 12.54 1.342 16.153 4.025 3.648 2.648 5.473 7.012 5.473 13.093v21.572c0 2.146.161 4.185.483 6.117.322 1.896.841 3.542 1.556 4.937v.805h-13.845c-.572-.894-1.037-1.968-1.394-3.22a28.715 28.715 0 0 1-.699-3.971c-1.18 2.004-3.237 3.828-6.17 5.474-2.898 1.61-6.565 2.414-11.001 2.414-5.223 0-9.319-1.252-12.289-3.756-2.969-2.504-4.453-6.189-4.453-11.054s1.931-8.747 5.795-11.645c3.863-2.933 9.015-4.399 15.454-4.399h12.343v-3.756c0-2.648-.663-4.651-1.986-6.01-1.288-1.36-3.398-2.04-6.332-2.04-2.897 0-5.133.591-6.707 1.771-1.538 1.18-2.308 2.862-2.308 5.044v1.181l-13.146-.054v-1.503c0-4.436 2.056-8.048 6.17-10.839 4.114-2.79 9.749-4.186 16.903-4.186Zm-.643 28.011c-3.935 0-6.851.609-8.747 1.825-1.86 1.216-2.79 3.113-2.79 5.688 0 2.433.715 4.258 2.145 5.474 1.431 1.216 3.471 1.824 6.118 1.824 2.862 0 5.456-1.002 7.781-3.005 2.361-2.003 3.542-4.257 3.542-6.761v-5.045h-8.049Zm342.894-28.011c7.154 0 12.538 1.342 16.151 4.025 3.649 2.648 5.474 7.012 5.474 13.093v21.572c0 2.146.16 4.185.482 6.117.322 1.896.841 3.542 1.557 4.937v.805h-13.844c-.573-.894-1.038-1.968-1.396-3.22a28.713 28.713 0 0 1-.697-3.971c-1.181 2.004-3.238 3.828-6.172 5.474-2.897 1.61-6.564 2.414-11 2.414-5.223 0-9.319-1.252-12.288-3.756-2.969-2.504-4.455-6.188-4.455-11.054 0-4.865 1.933-8.747 5.796-11.645 3.864-2.933 9.016-4.399 15.455-4.399h12.341v-3.756c0-2.648-.661-4.651-1.985-6.01-1.288-1.36-3.399-2.04-6.332-2.04-2.898 0-5.134.59-6.708 1.771-1.538 1.18-2.307 2.862-2.307 5.044v1.181l-13.147-.054v-1.503c0-4.436 2.057-8.049 6.171-10.839 4.114-2.79 9.749-4.186 16.904-4.186Zm-.645 28.011c-3.935 0-6.851.609-8.747 1.825-1.86 1.216-2.79 3.113-2.79 5.688 0 2.433.716 4.258 2.147 5.474 1.431 1.216 3.47 1.824 6.117 1.824 2.862 0 5.456-1.002 7.781-3.005 2.361-2.003 3.541-4.257 3.541-6.761v-5.045h-8.049ZM27.743 295.862c7.405 0 13.147 2.201 17.225 6.601 4.114 4.364 6.171 10.088 6.171 17.171 0 7.227-2.147 13.129-6.44 17.708a20.573 20.573 0 0 1-6.06 4.522l15.613 32.129H38.207l-13.533-29.782H14.65v29.782H0v-78.131h27.743ZM14.65 334.177h10.142c4.293 0 7.297-1.289 9.015-3.865 1.717-2.575 2.575-5.884 2.575-9.926 0-4.043-.858-7.334-2.575-9.874-1.718-2.576-4.723-3.864-9.015-3.864H14.65v27.529Z" fill="#F7F7F7"/><path d="M73.623 373.993H59.19v-49.315h14.434v49.315Zm147.246-50.227c.93 0 1.861.072 2.791.215.93.107 1.573.232 1.931.376v10.732c-.644-.215-1.431-.376-2.361-.483-.93-.143-1.95-.215-3.059-.215-2.396 0-4.757.787-7.082 2.361-2.29 1.538-4.097 3.596-5.421 6.172v31.069h-14.542v-49.315h14.22l.054 6.869h.053a17.526 17.526 0 0 1 5.528-5.58c2.253-1.467 4.883-2.201 7.888-2.201Zm197.526-19.586-34.986 58.437h36.65v11.376h-55.324v-7.942l35.147-58.436h-33.216v-11.753h51.729v8.318Zm-351.908-4.829c2.61 0 4.614.715 6.01 2.146 1.395 1.431 2.092 3.238 2.092 5.42 0 2.111-.716 3.917-2.147 5.42-1.43 1.502-3.47 2.253-6.116 2.253-2.612 0-4.615-.751-6.01-2.253-1.395-1.503-2.093-3.309-2.093-5.42 0-2.146.715-3.935 2.146-5.366 1.43-1.467 3.47-2.2 6.118-2.2ZM0 422.921v-1.233h2.687v1.159c0 2.547.765 4.479 2.293 5.794 1.529 1.298 3.65 1.947 6.361 1.947 2.712 0 4.8-.657 6.263-1.972 1.479-1.315 2.219-3.033 2.219-5.153 0-2.005-.625-3.591-1.874-4.758-1.233-1.184-3.633-2.375-7.2-3.575-3.583-1.217-6.163-2.532-7.741-3.945-1.562-1.43-2.342-3.534-2.342-6.312 0-2.662.92-4.832 2.761-6.509 1.84-1.676 4.43-2.514 7.766-2.514 3.337 0 5.934.904 7.791 2.712 1.874 1.808 2.81 4.125 2.81 6.952v.986h-2.662v-.986c0-2.12-.657-3.862-1.972-5.227-1.315-1.38-3.304-2.071-5.967-2.071-2.712 0-4.7.584-5.966 1.751-1.266 1.167-1.899 2.786-1.899 4.857 0 1.89.625 3.394 1.874 4.512 1.25 1.117 3.65 2.276 7.2 3.476 3.566 1.2 6.139 2.589 7.716 4.167 1.578 1.578 2.367 3.723 2.367 6.435 0 2.827-1.002 5.12-3.008 6.878-2.005 1.759-4.717 2.639-8.136 2.639-3.435 0-6.188-.872-8.26-2.614C1.028 428.558 0 426.093 0 422.921Zm27.44 9.418v-23.817h2.417l.074 3.501h.05c.673-1.118 1.577-2.079 2.711-2.884 1.135-.806 2.482-1.209 4.044-1.209.378 0 .772.033 1.183.099.428.066.723.14.888.222v2.441a11.43 11.43 0 0 0-1.036-.173 7.786 7.786 0 0 0-1.282-.098 6.236 6.236 0 0 0-3.797 1.257 8.305 8.305 0 0 0-2.638 3.18v17.481h-2.613Zm12.97-1.627c0-.576.18-1.061.542-1.455.361-.411.87-.616 1.528-.616.674 0 1.184.205 1.529.616.361.394.542.879.542 1.455 0 .591-.18 1.084-.542 1.479-.362.394-.871.592-1.529.592-.674 0-1.191-.198-1.553-.592-.345-.411-.518-.904-.518-1.479Zm27.637 1.824-8.431-36.095h2.712l6.73 29.635c.099.411.181.822.247 1.233.066.395.14.871.222 1.43h.148a25.07 25.07 0 0 1 .246-1.43c.082-.411.173-.822.271-1.233l7.348-29.635h3.032l7.47 29.635c.1.411.181.822.247 1.233.082.395.165.871.247 1.43h.148c.065-.575.131-1.06.197-1.454.082-.395.172-.798.271-1.209l6.657-29.635h2.564l-8.432 36.12h-2.786L79.66 402.63c-.099-.378-.206-.83-.32-1.356a26.577 26.577 0 0 1-.297-1.578h-.123c-.082.526-.18 1.052-.296 1.578-.098.509-.197.961-.295 1.356l-7.47 29.906h-2.812Zm32.298-11.785v-.69c0-3.633.937-6.559 2.811-8.777 1.89-2.236 4.405-3.354 7.544-3.354 3.123 0 5.498 1.011 7.126 3.033 1.643 2.022 2.465 4.775 2.465 8.259v1.208h-18.417v-2.194h15.804v-.32c0-2.121-.559-3.937-1.677-5.449-1.101-1.529-2.86-2.293-5.276-2.293-2.531 0-4.463.921-5.794 2.761-1.315 1.825-1.972 4.184-1.972 7.076v.789c0 2.893.69 5.268 2.071 7.126 1.38 1.84 3.427 2.761 6.139 2.761 1.709 0 3.164-.345 4.364-1.036 1.2-.69 2.145-1.545 2.835-2.564l1.726 1.529c-.707 1.085-1.808 2.079-3.304 2.983-1.479.888-3.345 1.332-5.597 1.332-3.468 0-6.147-1.11-8.037-3.329-1.874-2.235-2.811-5.186-2.811-8.851Zm24.581 11.588v-36.637h2.614v16.025c.772-1.068 1.816-1.947 3.131-2.638 1.315-.707 2.893-1.06 4.734-1.06 3.007 0 5.374 1.101 7.1 3.304 1.742 2.186 2.614 5.046 2.614 8.58v.715c0 3.55-.872 6.476-2.614 8.777-1.726 2.285-4.109 3.427-7.15 3.427-1.841 0-3.451-.378-4.832-1.134-1.381-.756-2.4-1.669-3.057-2.737h-.05l-.074 3.378h-2.416Zm2.614-6.213c.575 1.167 1.471 2.202 2.687 3.106 1.233.888 2.778 1.332 4.635 1.332 2.499 0 4.389-.929 5.671-2.786 1.282-1.858 1.923-4.233 1.923-7.126v-.764c0-2.86-.641-5.169-1.923-6.928-1.266-1.775-3.189-2.663-5.769-2.663-1.776 0-3.288.444-4.537 1.332-1.233.887-2.129 1.906-2.687 3.057v11.44Zm31.089-3.107c0-2.399.715-4.438 2.145-6.114 1.447-1.677 3.411-3.32 5.893-4.931l3.575-2.318c1.249-.822 2.169-1.726 2.761-2.712.608-1.002.912-2.21.912-3.624 0-1.512-.386-2.786-1.158-3.821-.773-1.036-1.915-1.554-3.427-1.554-1.496 0-2.696.559-3.6 1.677-.888 1.117-1.331 2.523-1.331 4.216 0 1.282.263 2.506.789 3.673.542 1.151 1.578 2.712 3.106 4.685l15.73 20.143h-3.131l-14.645-18.812c-1.71-2.202-2.877-3.978-3.501-5.325-.625-1.348-.937-2.803-.937-4.364 0-2.433.707-4.397 2.12-5.893 1.43-1.495 3.23-2.243 5.4-2.243 2.186 0 3.92.706 5.202 2.12 1.282 1.397 1.923 3.205 1.923 5.424 0 1.825-.427 3.386-1.282 4.684-.838 1.283-1.973 2.4-3.403 3.354l-3.648 2.366c-2.318 1.513-4.044 2.984-5.178 4.414-1.118 1.413-1.676 3.049-1.676 4.906 0 2.186.673 4.002 2.021 5.449 1.348 1.446 3.123 2.169 5.326 2.169 3.155 0 5.81-1.331 7.963-3.994 2.17-2.679 3.255-6.303 3.255-10.873h2.514c0 4.915-1.298 8.999-3.895 12.254-2.597 3.238-5.876 4.857-9.837 4.857-3.09 0-5.531-.921-7.323-2.761-1.775-1.858-2.663-4.208-2.663-7.052Zm39.719 9.32v-35.898h9.986c3.55 0 6.221.97 8.012 2.91 1.792 1.939 2.688 4.462 2.688 7.569 0 3.106-.896 5.637-2.688 7.593-1.791 1.956-4.462 2.934-8.012 2.934h-7.298v14.892h-2.688Zm2.688-17.209h7.248c2.942 0 5.022-.789 6.238-2.367 1.216-1.578 1.824-3.518 1.824-5.819 0-2.334-.608-4.273-1.824-5.818-1.216-1.562-3.296-2.351-6.238-2.367h-7.248v16.371Zm22.411 17.209v-23.817h2.416l.074 3.501h.05c.673-1.118 1.577-2.079 2.712-2.884 1.134-.806 2.481-1.209 4.043-1.209.378 0 .772.033 1.183.099.428.066.724.14.888.222v2.441a11.414 11.414 0 0 0-1.036-.173 7.774 7.774 0 0 0-1.282-.098 6.234 6.234 0 0 0-3.796 1.257 8.292 8.292 0 0 0-2.638 3.18v17.481h-2.614Zm12.895-11.588v-.69c0-3.633.978-6.559 2.934-8.777 1.955-2.236 4.594-3.354 7.914-3.354 3.336 0 5.974 1.118 7.914 3.354 1.956 2.218 2.934 5.152 2.934 8.801v.666c0 3.665-.986 6.616-2.959 8.851-1.956 2.219-4.586 3.329-7.889 3.329-3.304 0-5.942-1.118-7.914-3.354-1.956-2.235-2.934-5.177-2.934-8.826Zm2.662-.715v.789c0 2.844.699 5.194 2.096 7.051 1.414 1.858 3.443 2.786 6.09 2.786 2.646 0 4.668-.928 6.065-2.786 1.413-1.857 2.12-4.207 2.12-7.051v-.789c0-2.876-.698-5.235-2.096-7.076-1.38-1.841-3.418-2.761-6.114-2.761-2.663 0-4.693.92-6.09 2.761-1.38 1.841-2.071 4.2-2.071 7.076Zm22.387.69v-.715c0-3.517.888-6.393 2.663-8.629 1.775-2.235 4.158-3.353 7.15-3.353 1.857 0 3.435.337 4.733 1.011 1.315.674 2.326 1.52 3.033 2.539v-15.877h2.613v36.637h-2.416l-.074-3.551h-.049c-.674 1.069-1.685 2.006-3.033 2.811-1.348.789-2.934 1.184-4.758 1.184-3.057 0-5.465-1.126-7.224-3.378-1.759-2.252-2.638-5.145-2.638-8.679Zm2.663.025c0 2.86.641 5.202 1.923 7.027 1.298 1.824 3.238 2.736 5.818 2.736 1.759 0 3.255-.452 4.487-1.356 1.233-.92 2.129-1.964 2.688-3.131v-11.415c-.543-1.167-1.438-2.178-2.688-3.033-1.249-.854-2.753-1.282-4.511-1.282-2.597 0-4.537.904-5.819 2.712-1.266 1.808-1.898 4.134-1.898 6.978v.764Zm23.792 3.698v-15.927h2.613v15.952c0 2.202.501 3.764 1.504 4.684 1.019.921 2.465 1.381 4.339 1.381 1.627 0 3.049-.436 4.266-1.307a9.446 9.446 0 0 0 2.909-3.279v-17.431h2.613v23.817h-2.416l-.099-3.674h-.024c-.855 1.249-1.973 2.26-3.353 3.033-1.365.756-2.926 1.134-4.685 1.134-2.367 0-4.24-.641-5.621-1.923-1.364-1.299-2.046-3.452-2.046-6.46Zm23.101-3.698v-.69c0-3.715.929-6.665 2.786-8.851 1.874-2.186 4.438-3.28 7.693-3.28 3.106 0 5.432.814 6.977 2.441 1.561 1.628 2.342 3.608 2.342 5.942v.321h-2.564v-.321c0-1.775-.551-3.238-1.652-4.388-1.101-1.151-2.802-1.726-5.103-1.726-2.565 0-4.512.887-5.844 2.662-1.315 1.776-1.972 4.159-1.972 7.15v.814c0 2.926.657 5.301 1.972 7.125 1.332 1.808 3.288 2.712 5.868 2.712 2.285 0 3.986-.575 5.104-1.726 1.134-1.167 1.701-2.662 1.701-4.487v-.32h2.539v.32c0 2.334-.797 4.331-2.391 5.991-1.578 1.66-3.896 2.491-6.953 2.491-3.271 0-5.843-1.094-7.717-3.28-1.857-2.202-2.786-5.169-2.786-8.9Zm21.302-10.035v-2.194h13.116v2.194h-13.116Zm4.389 15.336v-25.444h2.613v25.542c0 1.743.288 2.926.863 3.551.575.608 1.43.912 2.564.912.477 0 .92-.041 1.331-.123a5.74 5.74 0 0 0 1.159-.345v2.268c-.312.131-.739.246-1.282.345a8.34 8.34 0 0 1-1.775.173c-1.677 0-3.008-.51-3.994-1.529-.986-1.019-1.479-2.803-1.479-5.35Zm23.101 6.287v-35.898h8.802c4.438 0 7.972 1.537 10.602 4.611 2.646 3.073 3.969 7.232 3.969 12.475v1.726c0 5.358-1.34 9.55-4.019 12.574-2.662 3.008-6.18 4.512-10.552 4.512h-8.802Zm2.688-2.318h6.114c3.6 0 6.476-1.29 8.629-3.871 2.153-2.58 3.23-6.213 3.23-10.897v-1.701c0-4.602-1.068-8.21-3.205-10.824-2.12-2.63-5.005-3.953-8.654-3.969h-6.114v31.262Zm24.802-9.27v-.69c0-3.633.937-6.559 2.811-8.777 1.89-2.236 4.405-3.354 7.544-3.354 3.123 0 5.498 1.011 7.126 3.033 1.643 2.022 2.465 4.775 2.465 8.259v1.208h-18.417v-2.194h15.804v-.32c0-2.121-.559-3.937-1.677-5.449-1.101-1.529-2.86-2.293-5.276-2.293-2.531 0-4.462.921-5.794 2.761-1.315 1.825-1.972 4.184-1.972 7.076v.789c0 2.893.69 5.268 2.071 7.126 1.38 1.84 3.427 2.761 6.139 2.761 1.709 0 3.164-.345 4.364-1.036 1.2-.69 2.145-1.545 2.835-2.564l1.726 1.529c-.707 1.085-1.808 2.079-3.304 2.983-1.479.888-3.345 1.332-5.596 1.332-3.469 0-6.148-1.11-8.038-3.329-1.874-2.235-2.811-5.186-2.811-8.851Zm23.423 4.389h2.588v.394c0 1.775.576 3.074 1.726 3.896 1.151.821 2.737 1.232 4.759 1.232 2.038 0 3.599-.394 4.684-1.183 1.101-.789 1.652-1.89 1.652-3.304 0-1.397-.485-2.424-1.455-3.082-.97-.674-2.778-1.348-5.424-2.021-2.646-.674-4.619-1.513-5.917-2.515-1.282-1.019-1.923-2.458-1.923-4.315 0-1.907.748-3.435 2.243-4.586 1.496-1.15 3.526-1.726 6.09-1.726s4.611.609 6.139 1.825c1.545 1.2 2.318 2.917 2.318 5.153v.345h-2.589v-.345c0-1.627-.509-2.819-1.529-3.575-1.002-.756-2.457-1.134-4.363-1.134-1.874 0-3.296.345-4.266 1.035-.97.691-1.454 1.66-1.454 2.91 0 1.15.46 2.054 1.38 2.712.937.657 2.704 1.323 5.301 1.997 2.63.673 4.627 1.536 5.991 2.588 1.381 1.036 2.071 2.548 2.071 4.537 0 2.071-.739 3.747-2.219 5.029-1.479 1.282-3.723 1.924-6.73 1.924-2.976 0-5.236-.65-6.781-1.948-1.528-1.299-2.292-3.115-2.292-5.449v-.394Zm23.397 7.199v-23.817h2.589v23.817h-2.589Zm-.518-32.199c0-.51.156-.937.469-1.283.312-.345.764-.517 1.356-.517.591 0 1.035.172 1.331.517.312.329.468.757.468 1.283 0 .509-.156.936-.468 1.282-.312.345-.764.517-1.356.517-.592 0-1.044-.172-1.356-.517-.296-.346-.444-.773-.444-1.282Zm9.221 39.842 1.479-2.047c.773.724 1.808 1.356 3.107 1.899 1.298.542 2.77.813 4.413.813 2.268 0 4.093-.739 5.474-2.218 1.38-1.48 2.071-3.732 2.071-6.756v-2.663c-.74 1.052-1.767 1.94-3.082 2.663-1.315.723-2.901 1.085-4.759 1.085-3.008 0-5.383-1.11-7.125-3.328-1.742-2.236-2.613-5.137-2.613-8.704v-.715c0-3.517.871-6.393 2.613-8.629 1.742-2.235 4.134-3.353 7.175-3.353 1.791 0 3.377.378 4.758 1.134 1.397.756 2.433 1.66 3.107 2.712h.049l.074-3.353h2.416v23.151c0 3.715-.929 6.525-2.786 8.432-1.841 1.923-4.306 2.885-7.396 2.885-1.874 0-3.575-.288-5.104-.863-1.529-.559-2.819-1.274-3.871-2.145Zm1.603-19.231c0 2.893.641 5.243 1.923 7.051 1.298 1.792 3.246 2.688 5.843 2.688 1.759 0 3.254-.452 4.487-1.356 1.249-.904 2.145-1.94 2.688-3.107v-11.316c-.559-1.151-1.463-2.17-2.712-3.058-1.233-.904-2.729-1.356-4.488-1.356-2.597 0-4.536.904-5.818 2.712-1.282 1.808-1.923 4.134-1.923 6.978v.764Zm24.014 11.588v-23.817h2.416l.074 3.624h.049c.805-1.265 1.898-2.268 3.279-3.007 1.381-.74 2.95-1.11 4.709-1.11 2.367 0 4.241.649 5.622 1.948 1.38 1.282 2.071 3.419 2.071 6.41v15.952H484V416.51c0-2.219-.518-3.805-1.553-4.758-1.02-.953-2.466-1.43-4.34-1.43-1.627 0-3.057.436-4.29 1.307a8.624 8.624 0 0 0-2.835 3.229v17.481h-2.613Zm22.904-11.588v-.69c0-3.633.937-6.559 2.811-8.777 1.89-2.236 4.405-3.354 7.544-3.354 3.123 0 5.498 1.011 7.125 3.033 1.644 2.022 2.466 4.775 2.466 8.259v1.208h-18.417v-2.194h15.803v-.32c0-2.121-.559-3.937-1.676-5.449-1.101-1.529-2.86-2.293-5.276-2.293-2.532 0-4.463.921-5.794 2.761-1.315 1.825-1.973 4.184-1.973 7.076v.789c0 2.893.691 5.268 2.071 7.126 1.381 1.84 3.427 2.761 6.139 2.761 1.71 0 3.164-.345 4.364-1.036 1.2-.69 2.145-1.545 2.836-2.564l1.725 1.529c-.706 1.085-1.808 2.079-3.303 2.983-1.48.888-3.345 1.332-5.597 1.332-3.468 0-6.147-1.11-8.037-3.329-1.874-2.235-2.811-5.186-2.811-8.851Zm24.581 11.588v-23.817h2.416l.074 3.501h.049c.674-1.118 1.578-2.079 2.712-2.884 1.134-.806 2.482-1.209 4.044-1.209.378 0 .772.033 1.183.099.428.066.723.14.888.222v2.441a11.414 11.414 0 0 0-1.036-.173 7.782 7.782 0 0 0-1.282-.098 6.237 6.237 0 0 0-3.797 1.257 8.31 8.31 0 0 0-2.638 3.18v17.481h-2.613Z" fill="#F7F7F7"/><defs><filter id="is Dark=False__a" x="172.512" y="12.531" width="174.33" height="267.765" filterUnits="userSpaceOnUse" color-interpolation-filters="sRGB"><feFlood flood-opacity="0" result="BackgroundImageFix"/><feColorMatrix in="SourceAlpha" values="0 0 0 0 0 0 0 0 0 0 0 0 0 0 0 0 0 0 127 0" result="hardAlpha"/><feOffset dy="2"/><feGaussianBlur stdDeviation="1.3"/><feComposite in2="hardAlpha" operator="out"/><feColorMatrix values="0 0 0 0 0 0 0 0 0 0 0 0 0 0 0 0 0 0 0.5 0"/><feBlend in2="BackgroundImageFix" result="effect1_dropShadow_1251_2443"/><feBlend in="SourceGraphic" in2="effect1_dropShadow_1251_2443" result="shape"/></filter></defs></svg>