<svg width="1752" height="50" xmlns="http://www.w3.org/2000/svg"><path d="M33.166 17.718h5.611c3.578 0 6.533 2.05 6.533 6.73v.984c0 4.717-2.764 6.838-6.425 6.838h-5.72V17.718ZM36.3 20.36v9.256h2.404c2.034 0 3.398-1.316 3.398-4.243v-.77c0-2.927-1.435-4.243-3.505-4.243H36.3Zm10.672.143h2.513l.406 2.737c.479-1.86 1.7-2.856 3.913-2.856h.778v3.14H53.29c-2.548 0-3.17.877-3.17 3.366v5.416h-3.1V20.503h-.047Zm8.232 6.138v-.332c0-3.946 2.548-6.103 6.018-6.103 3.541 0 6.018 2.157 6.018 6.103v.332c0 3.875-2.405 5.96-6.018 5.96-3.84-.035-6.018-2.073-6.018-5.96Zm8.865-.035v-.297c0-2.192-1.112-3.507-2.883-3.507-1.735 0-2.883 1.208-2.883 3.507v.297c0 2.12 1.112 3.33 2.883 3.33 1.77-.036 2.883-1.21 2.883-3.33Zm4.798-6.103h2.585l.299 2.227c.622-1.493 1.95-2.524 3.912-2.524 3.027 0 5.025 2.157 5.025 6.15v.332c0 3.876-2.213 5.926-5.025 5.926-1.878 0-3.17-.842-3.805-2.193v5.961h-3.027l.036-15.88Zm8.675 6.103v-.261c0-2.346-1.22-3.508-2.848-3.508-1.735 0-2.883 1.316-2.883 3.508v.225c0 2.086 1.112 3.401 2.847 3.401 1.783-.035 2.883-1.161 2.883-3.365Zm7.729 3.52-.264 2.156h-2.656V16.557h3.027v6.031c.67-1.54 1.998-2.382 3.877-2.382 2.847.036 4.953 1.98 4.953 5.89v.367c0 3.911-1.998 6.15-5.025 6.15-1.998-.047-3.29-.96-3.912-2.488Zm5.755-3.663v-.296c0-2.157-1.185-3.365-2.848-3.365-1.699 0-2.883 1.35-2.883 3.4v.261c0 2.193 1.148 3.473 2.847 3.473 1.819 0 2.884-1.126 2.884-3.473Zm4.51.178v-.332c0-3.946 2.549-6.103 6.018-6.103 3.542 0 6.019 2.157 6.019 6.103v.332c0 3.875-2.441 5.96-6.019 5.96-3.84-.035-6.018-2.073-6.018-5.96Zm8.89-.035v-.297c0-2.192-1.113-3.507-2.883-3.507-1.735 0-2.884 1.208-2.884 3.507v.297c0 2.12 1.113 3.33 2.884 3.33 1.782-.036 2.883-1.21 2.883-3.33Zm7.203-.439-4.176-5.664h3.577l2.405 3.543 2.441-3.543h3.542l-4.236 5.628 4.463 6.15h-3.506l-2.728-3.91-2.656 3.91h-3.661l4.535-6.114Zm-97.75-8.449-6.94 4.384 6.94 4.385-6.94 4.385L0 26.463l6.94-4.384L0 17.718l6.94-4.385 6.939 4.385ZM6.904 32.282l6.939-4.385 6.94 4.385-6.94 4.385-6.94-4.385Zm6.975-5.819 6.94-4.384-6.94-4.361 6.903-4.385 6.94 4.385-6.94 4.384 6.94 4.385-6.94 4.385-6.903-4.409ZM180 5.75h25.905V18.5h-12.953L180 5.75Zm0 12.75h12.952l12.953 12.75H180V18.5Zm0 12.75h12.952V44L180 31.25Zm40.521-15.442h10.471v3.276h-6.508v4.552h6.508v3.203h-6.508v5.828h-3.963V15.808Zm12.624 5.25h3.743v2.433c.196-.836.596-1.478 1.199-1.927a3.34 3.34 0 0 1 2.055-.698c.392 0 .718.033.979.096v3.42c-.374-.044-.75-.068-1.126-.072-1.027 0-1.801.328-2.324.987-.521.642-.783 1.605-.783 2.89v4.48h-3.741V21.058h-.002ZM247.03 32.98c-1.141 0-2.137-.265-2.985-.795a5.17 5.17 0 0 1-1.908-2.168c-.44-.93-.662-1.983-.662-3.154 0-1.157.23-2.2.686-3.131a5.254 5.254 0 0 1 1.957-2.192c.864-.53 1.851-.795 2.961-.795.831 0 1.575.177 2.226.53.652.355 1.142.836 1.468 1.445v-1.662h3.719v11.609h-3.719v-1.638c-.326.578-.832 1.05-1.517 1.42-.685.358-1.45.54-2.226.531Zm1.077-3.059c.896 0 1.59-.289 2.079-.867.489-.578.734-1.309.734-2.191 0-.867-.245-1.59-.734-2.168-.489-.578-1.183-.867-2.079-.867-.85 0-1.533.28-2.056.843-.505.562-.758 1.292-.758 2.192 0 .9.253 1.637.758 2.215.523.562 1.208.843 2.056.843Zm9.003-8.863h3.743v1.686a3.209 3.209 0 0 1 1.272-1.445c.604-.368 1.305-.554 2.104-.554 1.86 0 3.092.714 3.695 2.144a3.681 3.681 0 0 1 1.492-1.541 4.334 4.334 0 0 1 2.275-.603c2.79 0 4.184 1.573 4.184 4.72v7.202h-3.768V26.14c0-.786-.147-1.364-.44-1.734-.294-.368-.734-.554-1.322-.554-.635 0-1.125.217-1.467.65-.343.418-.514 1.148-.514 2.192v5.973h-3.768v-6.551c0-.786-.146-1.357-.44-1.71-.276-.368-.71-.554-1.296-.554-.653 0-1.15.217-1.493.65-.342.418-.514 1.148-.514 2.192v5.973h-3.742V21.058h-.001Zm32.827 5.203c0 .497-.033 1.035-.099 1.613h-8.709c.034.755.294 1.332.783 1.734.49.401 1.152.602 1.982.602 1.158 0 1.893-.346 2.202-1.036h3.67c-.18 1.14-.816 2.063-1.909 2.77-1.076.69-2.398 1.036-3.963 1.036-2.022 0-3.613-.538-4.771-1.614-1.141-1.076-1.713-2.577-1.713-4.503 0-1.253.261-2.337.783-3.252a5.13 5.13 0 0 1 2.226-2.12c.963-.496 2.08-.746 3.354-.746 1.206 0 2.274.233 3.204.699.945.466 1.672 1.116 2.177 1.95.522.837.783 1.792.783 2.867Zm-3.696-.675c-.016-.77-.236-1.357-.661-1.758-.423-.4-1.035-.602-1.834-.602-.799 0-1.435.216-1.908.65-.457.418-.693.987-.71 1.71h5.113Zm5.346-4.528h3.744v2.433c.195-.836.595-1.478 1.199-1.927a3.341 3.341 0 0 1 2.055-.698c.391 0 .718.033.978.096v3.42a10.49 10.49 0 0 0-1.125-.072c-1.028 0-1.802.328-2.324.987-.523.642-.783 1.605-.783 2.89v4.48h-3.744V21.058ZM466 21.2c0 .892-.427 1.464-1.407 2.176-.981.713-3.278 1.255-4.765 1.255h-5.887c-1.516 0-3.167-.266-4.341-.512-1.174-.244-2.341-1.084-2.617-1.359-.275-.274-.727-1.128-.727-1.589v-4.5c0-.801.444-1.722 1.544-2.346a9.439 9.439 0 0 1 3.011-1.091c.914-.17 1.747-.233 2.185-.233h7.061c.7 0 2.943.256 4.059.857 1.116.602 1.884 1.544 1.884 2.443v4.9Zm-3.191-.162v-4.546c0-.415-.579-.846-1.159-1.047-.58-.2-1.658-.294-2.416-.294h-6.304c-.729 0-2.111.316-2.624.525-.511.207-.869.698-.869 1.21v4.18c0 .468.907.973 1.472 1.114.564.14 1.382.244 2.268.244h6.51c.641 0 1.487-.155 2.186-.451.698-.298.936-.647.936-.935Zm-10.091 8.837h12.989V40h-12.989V29.875Zm-16.175 0h12.99V40h-12.99V29.875Zm7.516-15.766c0 .688-.359 1.042-1.062 1.042h-2.367c-.566 0-.882.03-1.356.15-.474.12-1.459.592-1.459 1.12v7.285c0 .515-.37.924-1.671.924-1.301 0-1.558-.527-1.558-.702v-7.572c0-.7.557-1.686 1.239-2.101.682-.417 1.65-.753 2.159-.871.511-.122 2.052-.385 2.868-.385h2.182c.432 0 1.025.42 1.025 1.11Zm-23.287 15.766h12.991V40h-12.991V29.875ZM408.863 10.86c0-.86.754-.86 1.083-.86h14.452c1.301 0 3.146.128 4.65.595 1.504.467 2.35 1.312 2.489 1.628.139.316.24 1.073.24 2.183 0 1.11-.114 1.767-.215 2.095-.1.329-.467.972-1.212 1.464-.746.491-1.467.758-2.238.947-.77.19-2.715.454-3.801.454H412.18v4.38c0 .29-.125.883-1.664.883-1.543 0-1.651-.62-1.651-.77-.002-.328-.002-12.138-.002-12.999Zm19.527 4.695v-2.334c0-.353-.809-.758-1.301-.896-.493-.14-1.403-.23-2.362-.23h-12.548v5.037h12.8c.632 0 1.731-.188 2.363-.466.632-.278 1.048-.846 1.048-1.11Zm-23.539 14.32h12.991V40h-12.991V29.875Zm-14.929-14.18c-.342.15-.859.567-.859 1.047v4.279c0 .415.669.844 1.099 1.008.43.165 1.415.395 2.35.395h6.974c.669 0 1.818-.42 2.159-.546.342-.127.732-.391.732-.858V16.3c0-.291-.668-.707-1.224-.897-.556-.19-1.39-.252-2.213-.252h-6.682c-.784 0-1.996.39-2.336.543Zm12.797 8.354c-.91.315-2.882.581-3.386.581h-6.658c-1.087 0-2.301-.241-3.336-.494-1.034-.252-1.945-.67-2.489-1.148-.543-.48-.987-1.06-.987-1.564v-4.91c0-.831.899-1.968 1.645-2.297.746-.328 1.478-.68 2.25-.858.77-.176 2.008-.36 2.614-.36h7.24c1.136 0 2.249.209 3.22.538.974.327 1.732.73 2.084 1.172.355.442.692 1.035.692 1.54v5.174c0 .706-.463 1.25-.855 1.577-.393.33-1.125.732-2.034 1.049Zm-21.237-.897c-.758.606-1.996.998-2.591 1.149-.595.152-1.718.33-2.476.33h-9.348c-1.201 0-2.338-.154-3.348-.38-1.013-.228-2.035-.72-2.529-1.087-.49-.366-1.19-1.134-1.19-1.731v-8.078c0-.785.672-1.485 1.321-1.912.663-.434 1.158-.667 1.953-.867.454-.11.91-.212 1.367-.303.727-.145 1.493-.273 1.91-.273h4.3c.608 0 1.3.26 1.3 1.064 0 .806-.407 1.03-.985 1.03h-3.146c-.608 0-1.595.072-2.381.217-.761.14-1.179.208-1.51.389-.332.18-.787.496-.787.982v7.338c0 .925 2.03 1.403 2.889 1.403h9.3c1.175 0 1.831-.193 2.451-.369.619-.177 1.337-.611 1.337-.91v-1.778h-4.951c-.694 0-.872-.506-.872-.974 0-.466.034-1.262 1.113-1.262h7.252c.773 0 .773.437.773.695v3.42c0 .56-.395 1.302-1.152 1.907Z" fill="#fff"/><g clip-path="url(#logos-companies-I-havent-worked-for-lol__a)" fill="#fff"><path d="M628.74 25.247h5.248l-2.648-4.08-2.6 4.08Zm-8.664 6.394v-1.775l1.829-.204c.633-.079.901-.647.98-.777l4.559-7.276c.37-.572.008-1.075-.469-1.127l-2.395-.276v-1.793h10.391c.584 0 .953.389 1.192.727l6.069 9.096c.478.726.849 1.299 1.458 1.378l1.91.21v1.817h-11.689v-1.793l1.484-.182c.716-.077 1.3-.39.716-1.248l-.556-.833h-8.299l-.636 1.015c-.395.623 0 .989.611 1.066l1.484.182v1.793h-8.639Zm-9.807-2.549h-3.445v-8.16h3.445c3.286 0 4.666.756 4.666 4.08 0 3.354-1.38 4.08-4.666 4.08Zm2.066-10.68h-13.364l-.003 1.794 1.674.17c.628.089.881.53.881 1.127v7.122c0 .494-.213.964-.769 1.04l-1.794.23v1.74l13.375.006c6.15 0 8.801-2.937 8.801-6.809 0-3.482-2.651-6.42-8.801-6.42ZM526.4 31.641h10.813v-1.768l-1.853-.207c-.426-.052-.85-.311-.85-1.198v-2.129h8.323v2.027c0 .595-.106 1.17-.821 1.248l-1.883.21v1.817h10.814v-1.818l-1.909-.21c-.369-.05-.794-.337-.794-1.091v-6.887c0-.702.264-1.17.82-1.221l1.883-.208v-1.793h-10.814v1.767l1.883.234c.635.078.821.572.821 1.22v2.054h-8.323v-2.079c0-.78.318-1.144.875-1.195l1.828-.208v-1.793h-10.788v1.793l1.804.208c.717.078.901.597.874 1.274v6.703c0 .754-.212 1.198-.9 1.275l-1.803.207v1.768Zm36.1-11.203c-3.073 0-4.824 1.119-4.824 4.548 0 3.482 1.751 4.603 4.824 4.603 3.075 0 4.825-1.121 4.825-4.603 0-3.43-1.75-4.548-4.825-4.548Zm-11.025 4.523c0-4.157 3.42-7.069 11.052-7.069 7.581 0 11.001 2.912 11.001 7.069 0 4.262-3.42 7.147-11.001 7.147-7.632 0-11.052-2.885-11.052-7.147Zm22.655 6.68h8.641v-1.768l-1.857-.207c-.531-.052-.848-.49-.848-1.093v-6.73l7.185 9.278c.236.312.687.52 1.111.52h6.785V21.61c0-.47.128-1.115.823-1.195l1.88-.208v-1.793h-8.64v1.767l1.883.234c.665.078.821.623.821 1.246v6.55l-7.13-9.226c-.264-.338-.609-.571-1.113-.571h-9.541v1.793l1.801.208c.635.092.875.409.875 1.274v6.703c0 .795-.221 1.178-.902 1.275l-1.774.207v1.768Z"/></g><path fill-rule="evenodd" clip-rule="evenodd" d="M714.562 17.451c3.867 0 6.905 2.883 6.905 8.235 0 3.157-1.519 8.236-6.905 8.236-1.795 0-2.762-.687-3.867-1.373V39H706V17.862h4.143v1.51c0-.274.277-.412.415-.549.828-.823 2.209-1.372 4.004-1.372Zm-.829 3.432a2.778 2.778 0 0 0-1.333.318c-.41.216-.759.53-1.014.916-.691.824-.967 2.197-.967 3.706 0 2.06.553 3.294 1.105 3.98.553.55 1.381.825 2.072.825 2.347-.137 3.452-2.609 3.452-5.08-.138-1.92-.691-4.253-2.762-4.665h-.553Zm48.888-3.569c.829 0 3.59 0 5.524 2.196 2.209 2.196 2.209 5.353 2.347 7.137h-11.324c0 1.922 1.105 3.843 3.591 3.843 2.624 0 3.453-1.647 4.143-2.745l3.452 1.784-.276-.136a12.35 12.35 0 0 1-1.933 2.47c-1.381 1.372-3.453 2.333-5.939 2.333-4.695 0-8.01-3.02-8.01-8.235.138-3.706 2.073-8.647 8.425-8.647Zm-.443 3.08a3.33 3.33 0 0 0-2.32 1.038c-.552.686-.69 1.373-.828 2.196h6.353c0-.686-.139-1.648-.829-2.334a3.317 3.317 0 0 0-2.376-.9Zm49.468-3.08c.83 0 3.591 0 5.524 2.196 2.071 2.196 2.209 5.353 2.348 7.137h-11.325c.001 1.922 1.106 3.843 3.591 3.843 2.624 0 3.452-1.647 4.143-2.745l3.314 1.784a12.348 12.348 0 0 1-1.795 2.333c-1.381 1.373-3.452 2.334-5.938 2.334-4.695 0-8.01-3.02-8.01-8.235 0-3.843 1.934-8.647 8.148-8.647Zm-.167 3.216a3.33 3.33 0 0 0-2.319 1.038c-.552.687-.69 1.373-.828 2.197h6.353v-.137c0-.55-.139-1.373-.83-2.196a3.305 3.305 0 0 0-2.376-.902Z" fill="#fff"/><path d="M748.811 17.314a7.624 7.624 0 0 1 5.11 1.921c-.967.961-1.52 2.197-2.072 3.432-.277-.412-.552-.961-1.243-1.373-.276-.274-.966-.549-1.657-.549-2.485 0-3.314 2.882-3.314 4.804 0 2.059.966 4.667 3.452 4.667.276 0 1.381 0 2.348-1.099l.414-.549.138.138a7.273 7.273 0 0 0 1.934 3.432 7.762 7.762 0 0 1-5.11 1.92c-3.039 0-7.872-1.784-7.872-8.235.001-4.529 2.624-8.51 7.872-8.51Zm-16.434 4.392-1.52.274c-2.209.412-2.899.687-2.899 2.746v8.784h-4.695V17.726h4.556v1.646c.967-.823 2.072-1.51 4.558-1.784v4.118Zm1.934-3.844h4.557V33.51h-4.557V17.862Zm42.672 15.648h-4.695V11h4.695v22.51Zm3.176-15.648h4.558V33.51h-4.558V17.862Zm16.71-.411c.967 0 2.072 0 2.763.549 1.795.96 2.209 2.333 2.209 4.804V33.51h-4.695V22.255c-.415-.824-1.243-1.098-2.072-1.098-2.486 0-2.485 1.921-2.485 3.843v8.51h-4.696V17.862h4.696v1.2c.373-.44.782-.712 1.518-1.2.691-.137 1.657-.41 2.762-.41Z" fill="#fff"/><path fill-rule="evenodd" clip-rule="evenodd" d="M822.973 14.509c.392 0 .694.088.906.265.211.178.317.43.317.753 0 .22-.044.412-.133.575a.827.827 0 0 1-.391.362l.617.954h-.855l-.433-.808h-.553v.808h-.745v-2.91h1.27Zm-.525 1.514h.525a.529.529 0 0 0 .373-.124.447.447 0 0 0 .133-.344c0-.153-.044-.268-.133-.344a.556.556 0 0 0-.373-.115h-.525v.927Z" fill="#fff"/><path fill-rule="evenodd" clip-rule="evenodd" d="M822.891 12.948c.57 0 1.093.14 1.568.418a3.08 3.08 0 0 1 1.127 1.133c.276.477.414.998.414 1.56 0 .557-.138 1.077-.414 1.557a3.13 3.13 0 0 1-1.132 1.147 3.035 3.035 0 0 1-1.582.427c-.57 0-1.093-.141-1.568-.422a3.074 3.074 0 0 1-1.123-1.138 3.074 3.074 0 0 1-.41-1.552 3.08 3.08 0 0 1 .415-1.555c.276-.48.651-.863 1.126-1.148a3.018 3.018 0 0 1 1.579-.427Zm0 .762c-.442 0-.843.107-1.202.321a2.37 2.37 0 0 0-.85.864 2.32 2.32 0 0 0-.314 1.183 2.334 2.334 0 0 0 1.156 2.033c.358.211.756.317 1.191.317a2.32 2.32 0 0 0 1.205-.322c.362-.214.649-.5.861-.862.211-.36.317-.756.317-1.184a2.33 2.33 0 0 0-1.169-2.033 2.33 2.33 0 0 0-1.195-.317Z" fill="#fff"/><path d="M736.658 11.274a2.468 2.468 0 0 1 2.486 2.471c0 1.373-1.105 2.607-2.486 2.607-1.381 0-2.486-1.097-2.486-2.607a2.468 2.468 0 0 1 2.486-2.47Zm45.711 0a2.467 2.467 0 0 1 2.485 2.471c0 1.373-1.104 2.607-2.485 2.607-1.381 0-2.486-1.097-2.486-2.607a2.468 2.468 0 0 1 2.486-2.47Zm217.323 12.611v2.497h1.758v2.477c0 .221-.01.46-.05.651-.07.462-.51 1.249-1.752 1.249-1.238 0-1.67-.787-1.744-1.249a4.177 4.177 0 0 1-.045-.651v-7.824c0-.277.019-.58.077-.809.085-.417.455-1.24 1.702-1.24 1.312 0 1.632.868 1.712 1.24.05.247.05.66.05.66v.95h4.31v-.561s.02-.586-.03-1.133c-.32-3.211-2.97-4.227-6.004-4.227-3.039 0-5.631 1.025-6.009 4.227-.034.293-.086.82-.086 1.133v7.197c0 .314.01.556.068 1.13.281 3.122 2.988 4.229 6.015 4.229 3.046 0 5.736-1.107 6.016-4.23.06-.573.06-.815.07-1.129v-4.587h-6.058Zm-29.727-7.51h-4.33V29.04c.007.22 0 .468-.038.65-.09.425-.45 1.243-1.645 1.243-1.179 0-1.549-.818-1.632-1.243a2.758 2.758 0 0 1-.043-.65V16.375h-4.329v12.271c-.005.317.02.963.038 1.132.299 3.198 2.819 4.236 5.966 4.236 3.153 0 5.672-1.038 5.976-4.236.024-.169.056-.815.037-1.132v-12.27Zm-39.78 0-2.16 13.382-2.158-13.382h-6.984l-.371 17.119h4.279l.116-15.847 2.944 15.847h4.34l2.947-15.847.116 15.847h4.289l-.382-17.119h-6.976Zm-25.858 0-3.171 17.119h4.625l2.389-15.847 2.333 15.847h4.592l-3.158-17.119h-7.61Zm80.769 13.783-4.032-13.783h-6.352v16.94h4.202l-.244-14.223L983 33.316h6.092v-16.94h-4.23l.234 13.782Zm-38.872-9.328a2.306 2.306 0 0 1-.015-.885c.122-.548.491-1.145 1.552-1.145.988 0 1.568.616 1.568 1.541v1.047h4.22v-1.193c0-3.689-3.307-4.268-5.701-4.268-3.015 0-5.478.994-5.928 3.77-.118.754-.148 1.425.041 2.28.734 3.461 6.758 4.465 7.633 6.653.154.415.11.944.031 1.255-.131.57-.514 1.142-1.65 1.142-1.065 0-1.706-.612-1.706-1.535l-.002-1.643h-4.542v1.306c0 3.784 2.964 4.926 6.156 4.926 3.057 0 5.583-1.045 5.988-3.877.193-1.463.047-2.416-.03-2.775-.708-3.55-7.129-4.617-7.615-6.599m-55.674-.042a2.127 2.127 0 0 1-.017-.899c.117-.545.487-1.153 1.567-1.153 1.001 0 1.59.622 1.59 1.554v1.06h4.27v-1.203c0-3.724-3.357-4.317-5.777-4.317-3.041 0-5.526 1.01-5.98 3.805-.125.767-.146 1.442.034 2.307.741 3.5 6.825 4.512 7.71 6.727.166.411.116.94.034 1.264-.141.575-.527 1.156-1.672 1.156-1.07 0-1.709-.623-1.709-1.559l-.006-1.647H886v1.309c0 3.828 3.006 4.978 6.223 4.978 3.093 0 5.633-1.054 6.048-3.919.206-1.476.051-2.437-.018-2.802-.723-3.593-7.215-4.657-7.703-6.66" fill="#fff"/><g clip-path="url(#logos-companies-I-havent-worked-for-lol__b)" fill="#fff"><path d="M1157.27 15.526v2.37h2.3c1 0 1.65.638 2.03 1.05.3.34 6.9 7.899 7.06 8.098.16.198.16.2.16.327v3.745c0 .172-.02.343-.05.512a.844.844 0 0 1-.51.456c-.22.027-.44.041-.66.041l-2.29-.003v2.37h12.87v-2.37h-2.42a4.63 4.63 0 0 1-.65-.042.844.844 0 0 1-.51-.455 2.92 2.92 0 0 1-.05-.512V27.37a.539.539 0 0 1 .09-.349l7.14-8.227c.65-.738.99-.898 1.85-.898h2.37v-2.37h-10.61v2.366h1.61c.08-.006.17.014.24.056a.43.43 0 0 1 .18.183c.04.076.06.163.05.25a.504.504 0 0 1-.09.238c-.03.048-4.44 5.282-4.5 5.333-.05.051-.09.039-.13-.017-.04-.056-4.39-5.316-4.39-5.316-.31-.38-.07-.727.29-.727h1.56v-2.367l-12.94.001Zm-31.56 0v2.37h2.06c1.48 0 1.58.835 1.58 1.562v11.096c0 .664.04 1.576-.91 1.576h-2.53v2.368h10.82V32.13h-2.64c-1.05 0-1.1-.487-1.11-1.523v-9.505l14.86 13.396h3.78l-.2-15.13c.02-1.105.09-1.474 1.22-1.474h2.37v-2.368h-11.04v2.368h2.42c1.12 0 1.3.434 1.32 1.474l.13 7.918-12.9-11.76h-9.23Zm-48.73-1.193c-2.33 0-4.97.441-7.2 1.455-2.08.94-3.78 2.45-3.78 4.955 0 1.311.49 2.574 1.38 3.53.6.562 1.57 1.517 4.11 2.08 1.14.242 3.57.632 5.98.89 2.42.256 4.76.484 5.72.744.76.196 2.05.463 2.05 1.917 0 1.455-1.35 1.891-1.59 1.986-.23.094-1.86.846-4.77.846a20.118 20.118 0 0 1-5.68-.987c-1.09-.393-2.23-.91-3.29-2.22a3.773 3.773 0 0 1-.68-2.105h-2.64v7.467h2.93v-1.01c0-.076.02-.15.05-.215.04-.065.1-.118.16-.155a.407.407 0 0 1 .42.005 22.94 22.94 0 0 0 4.29 1.401c1.54.325 2.54.56 4.46.56 2.02.04 4.03-.248 5.96-.85 1.28-.355 2.49-.955 3.55-1.768a4.947 4.947 0 0 0 1.4-1.739c.33-.682.5-1.431.49-2.19a5.538 5.538 0 0 0-1.53-3.865 6.703 6.703 0 0 0-1.89-1.306 13.76 13.76 0 0 0-2.33-.822c-1.52-.376-4.94-.846-6.58-1.01-1.71-.18-4.68-.43-5.87-.801-.36-.114-1.1-.465-1.1-1.326 0-.613.34-1.132 1-1.552 1.06-.666 3.18-1.08 5.4-1.08 2.15-.027 4.28.393 6.25 1.233a6.5 6.5 0 0 1 1.49.897 4.511 4.511 0 0 1 1.47 2.478h2.37v-6.5h-2.64v.754c0 .243-.24.563-.72.298-1.19-.625-4.54-1.978-8.64-1.995Zm31.77 0c-4.16 0-8.57 1.455-11.07 3.745a9.348 9.348 0 0 0-3.01 6.907 9.158 9.158 0 0 0 .76 3.794 9.206 9.206 0 0 0 2.25 3.137c2.69 2.441 6.72 3.75 11.07 3.75 4.36 0 8.48-1.294 11.1-3.75a9.656 9.656 0 0 0 2.19-3.158 9.59 9.59 0 0 0 .78-3.773 9.212 9.212 0 0 0-.75-3.77 9.319 9.319 0 0 0-2.22-3.131c-2.81-2.58-6.5-3.75-11.1-3.75Zm0 2.774c2.28 0 4.47.826 5.94 2.293 1.43 1.42 2.18 3.428 2.18 5.576 0 2.25-.68 4.073-2.18 5.576-1.49 1.503-3.63 2.307-5.94 2.307-2.29 0-4.47-.821-5.95-2.308a7.73 7.73 0 0 1-1.63-2.57 7.909 7.909 0 0 1-.53-3.005c0-2.138.74-4.153 2.16-5.576 1.48-1.474 3.68-2.293 5.95-2.293Z"/></g><g clip-path="url(#logos-companies-I-havent-worked-for-lol__c)" fill="#fff"><path d="M1276.35 8.751v1h1v-1h-1Zm0 2v1h1v-1h-1Zm-2.99 1v1h1v-1h-1Zm-13.03.75c-7.92 0-14.33 6.434-14.33 14.373 0 7.94 6.41 14.375 14.33 14.375 7.91 0 14.32-6.434 14.32-14.375 0-7.94-6.41-14.373-14.32-14.373Zm0 4.583c5.38 0 9.75 4.388 9.75 9.79 0 5.402-4.37 9.791-9.75 9.791-5.39 0-9.72-4.389-9.72-9.791s4.33-9.79 9.72-9.79Z"/><path d="M1282.96 34.48c-2.06 0-3.78-.513-5.18-1.54l1.34-2.2c1.11.787 2.38 1.18 3.78 1.18.7 0 1.24-.133 1.64-.4.4-.28.6-.666.6-1.16 0-.133-.02-.253-.04-.36a1.06 1.06 0 0 0-.14-.3 2.174 2.174 0 0 0-.2-.26c-.09-.098-.2-.18-.32-.24-.13-.08-.25-.146-.36-.2a6.04 6.04 0 0 0-1-.38c-.13-.053-.34-.126-.61-.22-.28-.093-.52-.173-.7-.24a9.314 9.314 0 0 1-1.26-.54c-.37-.22-.73-.475-1.05-.76-.36-.32-.64-.72-.82-1.2-.19-.493-.28-1.053-.28-1.68 0-1.266.44-2.246 1.32-2.939.87-.707 2.03-1.06 3.46-1.06 1.73 0 3.13.32 4.21.96l-1.02 2.3a7.123 7.123 0 0 0-3.09-.72c-1.38 0-2.07.453-2.07 1.36 0 .213.04.4.12.56.08.16.17.293.26.4.09.106.26.213.5.32.25.106.46.186.61.24l.84.26.4.12c.47.146.86.286 1.2.42.33.133.69.326 1.09.58.4.24.73.513.98.82.25.306.46.693.64 1.16.17.466.26.986.26 1.56 0 1.252-.45 2.26-1.34 3.019-.88.76-2.13 1.14-3.77 1.14Zm10.03.28-3.77-10.82h3.13l1.93 7.56 1.63-7.56h2.93l-3.08 10.48c-.72 2.426-2.22 3.64-4.49 3.64-.53 0-1.1-.06-1.69-.18l.32-2.12c.53.053.87.08 1.01.08.55 0 .97-.087 1.28-.26.3-.16.57-.433.8-.82Zm15.74-9.46c.99-1.066 2.06-1.6 3.19-1.6 1.05 0 1.78.36 2.21 1.08.44.72.66 1.62.66 2.7v6.8h-3.03v-6.84c0-.826-.32-1.24-.96-1.24-.51 0-1.07.28-1.69.84v7.24h-3.03v-6.84c0-.826-.32-1.24-.96-1.24-.59 0-1.15.294-1.7.88v7.2h-3.02V23.94h1.87l.6 1.58c1.05-1.212 2.17-1.82 3.37-1.82 1.19 0 2.02.534 2.49 1.6Zm13.62 2.36v-.26c0-.466-.1-.806-.32-1.02-.2-.213-.55-.32-1.05-.32-.79 0-1.75.267-2.89.8l-1.04-2c1.33-.773 2.72-1.16 4.19-1.16 1.37 0 2.39.34 3.09 1.02.7.667 1.05 1.62 1.05 2.86v6.7h-1.87c-.35-.733-.53-1.1-.54-1.1-.94.867-1.95 1.3-3.03 1.3-.92 0-1.69-.267-2.31-.8-.61-.547-.92-1.287-.92-2.22 0-1.093.35-1.893 1.06-2.4.82-.613 2.35-1.08 4.58-1.4Zm0 4.06v-2.18c-1.31.267-2.11.56-2.39.88-.19.2-.28.473-.28.82 0 .734.35 1.1 1.06 1.1.58 0 1.12-.207 1.61-.62Zm5.45 2.56V23.94h1.87l.6 1.58c1.05-1.212 2.2-1.82 3.45-1.82 1.97 0 2.95 1.26 2.95 3.78v6.8h-3.03v-6.84c0-.826-.35-1.24-1.04-1.24-.63 0-1.23.294-1.77.88v7.2h-3.03Zm12.01-8.26h-1.52v-2.08h1.56l.51-2.939h2.47v2.94h2.2v2.08h-2.2V31c0 .452.08.766.22.94.15.172.45.26.9.26.25 0 .61-.068 1.06-.2l.36 2.099c-.76.253-1.53.38-2.32.38-2.16 0-3.24-1.107-3.24-3.32v-5.14Zm9.93 3.98c.06.707.26 1.227.58 1.56.33.334.82.5 1.47.5.36 0 .72-.053 1.08-.16.37-.106.64-.206.81-.3.19-.093.46-.24.82-.44l1.2 1.92c-.41.307-.77.547-1.06.72-.29.16-.71.313-1.25.46-.55.147-1.15.22-1.82.22-1.51 0-2.72-.467-3.63-1.4-.89-.947-1.33-2.233-1.33-3.86 0-1.626.42-2.953 1.27-3.98.85-1.026 2.02-1.54 3.51-1.54 1.53 0 2.67.514 3.43 1.54.76 1.027 1.14 2.347 1.14 3.96v.8h-6.22Zm0-1.78h3.13c0-1.56-.5-2.34-1.5-2.34-.48 0-.85.187-1.11.56-.27.36-.44.954-.52 1.78Zm12.69 6.26c-1.65 0-2.89-.487-3.72-1.46-.83-.987-1.24-2.273-1.24-3.86 0-1.586.43-2.893 1.3-3.92.86-1.026 2.08-1.54 3.66-1.54 1.4 0 2.53.387 3.41 1.16l-1.41 2.02c-.36-.266-.68-.446-.94-.54-.27-.106-.61-.16-1.04-.16-1.23 0-1.85.98-1.85 2.94 0 1.92.63 2.88 1.89 2.88.68 0 1.36-.273 2.06-.82l1.45 1.88c-.94.947-2.13 1.42-3.57 1.42Zm-98.04-14.73c-2.6 3.262-3.25 4.693-4.29 7.332-1.17-2.387-2.58-4.033-5.01-5.124-.46-.118-.68-.186-.99.25-.31.436-.12.829.25 1.292.97 1.213 2.06 2.333 2.82 3.707.89 1.612 1.99 4.267 2.37 4.958.29.55 1.01.792 1.28.792 1.47-.174 1.47-.925 1.75-2.225.46-2.132 1.05-4.335 3.82-6.983v-4l-2 .002Z"/><path d="M1275.36 9.751v1h.99v-1h-.99Zm0 1h-2v1h2v-1Zm-2 1h-.99v2h.99v-2Zm0 2v1h1v-1h-1Zm1 0h1v-1h-1v1Zm-1 1h-.99v1h-1v-1h-1.99v1h-1v1h1v1h-1v-1h-1v1h-.99v1h-1v4h1.99v-1h1v-1h1v-1h-1v-1h1v1h.99v-1h1v-1h1v-1h.99v-2Zm-1.99 0h1v-1h-1v1Zm0-1v-1h-1v1h1Z"/></g><g clip-path="url(#logos-companies-I-havent-worked-for-lol__d)" fill="#fff"><path d="M1430.95 31.426c.36.969.86 1.797 1.51 2.486.64.688 1.4 1.215 2.28 1.58.88.365 1.84.547 2.87.547 1.01 0 1.95-.19 2.84-.569a6.97 6.97 0 0 0 2.3-1.6 7.163 7.163 0 0 0 1.53-2.465c.37-.956.55-2.023.55-3.203V10h4.4v29.494h-4.36v-2.738a10.094 10.094 0 0 1-3.46 2.401c-1.33.562-2.76.843-4.3.843-1.56 0-3.02-.274-4.38-.822a10.184 10.184 0 0 1-3.52-2.338c-.99-1.011-1.78-2.226-2.35-3.645-.57-1.418-.86-2.998-.86-4.74V10h4.4v18.202c0 1.18.18 2.254.55 3.224ZM1456.82 10v10.744c.98-.983 2.11-1.762 3.4-2.338 1.28-.576 2.68-.864 4.19-.864 1.56 0 3.03.295 4.4.885a11.3 11.3 0 0 1 3.57 2.402c1 1.01 1.8 2.205 2.39 3.581.58 1.377.88 2.837.88 4.382 0 1.545-.3 2.999-.88 4.361a11.53 11.53 0 0 1-2.39 3.56 11.308 11.308 0 0 1-3.57 2.402c-1.37.59-2.84.885-4.4.885-1.51 0-2.92-.288-4.22-.864a11.122 11.122 0 0 1-3.41-2.338v2.696h-4.2V10h4.24Zm.48 21.7c.38.898.9 1.685 1.57 2.36a7.637 7.637 0 0 0 2.35 1.6c.9.394 1.86.59 2.9.59 1 0 1.95-.197 2.85-.59a7.274 7.274 0 0 0 2.32-1.6 7.942 7.942 0 0 0 1.58-2.36c.39-.9.58-1.869.58-2.908 0-1.04-.19-2.015-.58-2.928a7.867 7.867 0 0 0-1.58-2.38 7.001 7.001 0 0 0-2.32-1.58c-.9-.38-1.85-.57-2.85-.57a7.277 7.277 0 0 0-5.2 2.15 7.403 7.403 0 0 0-1.6 2.38 7.372 7.372 0 0 0-.58 2.928c0 1.04.18 2.009.56 2.907Zm20.74-7.248a11.262 11.262 0 0 1 2.3-3.56 10.75 10.75 0 0 1 3.48-2.423c1.34-.59 2.8-.885 4.36-.885 1.54 0 2.97.281 4.28.843 1.31.562 2.45 1.341 3.4 2.339.95.997 1.69 2.177 2.22 3.539.53 1.362.8 2.844.8 4.445v1.39h-17.41c.14.872.42 1.68.84 2.423.42.745.95 1.39 1.58 1.938a7.11 7.11 0 0 0 2.13 1.286 7 7 0 0 0 2.54.463c2.54 0 4.6-1.053 6.16-3.16l3.07 2.275a11.46 11.46 0 0 1-3.95 3.371c-1.56.815-3.32 1.222-5.28 1.222-1.59 0-3.08-.281-4.46-.843a10.82 10.82 0 0 1-3.61-2.36 11.248 11.248 0 0 1-2.41-3.56c-.59-1.362-.88-2.844-.88-4.445 0-1.517.28-2.95.84-4.298Zm5.89-1.664c-1.19.997-1.98 2.324-2.37 3.982h13.04c-.36-1.658-1.14-2.985-2.33-3.982-1.19-.997-2.58-1.496-4.17-1.496-1.59 0-2.98.499-4.17 1.496Zm22.87.484c-.89.984-1.34 2.318-1.34 4.003v12.22h-4.24v-21.49h4.2v2.655a5.97 5.97 0 0 1 2.07-2.064c.85-.506 1.87-.759 3.04-.759h1.47v3.96h-1.76c-1.4 0-2.54.492-3.44 1.475Z"/></g><path d="M1610.53 22.3c0-2.148-2.13-4.439-5.69-4.439-3.98 0-8.53 3.007-9.24 9.02-.71 6.013 2.99 8.733 6.83 8.733s5.68-1.431 7.67-3.436c-1.7-2.147-3.98-1.145-4.4-1.002-.43.286-1.14.573-2.28.573-1.42 0-2.98-.716-2.98-3.436 9.38-1.002 10.09-3.866 10.09-6.013Zm-4.55.286c0 .716-.28 1.861-4.98 2.434 1-3.58 2.85-3.866 3.7-3.866.85.143 1.28.716 1.28 1.432Zm-15.78.573s-1.99 6.299-2.13 6.872c0-.573-1.57-11.883-1.57-11.883-3.41 0-5.26 2.434-6.11 5.01 0 0-2.42 6.3-2.56 6.873-.14-.43-.43-6.73-.43-6.73-.28-3.149-3.13-5.153-5.4-5.153l2.84 17.18c3.56 0 5.55-2.434 6.54-5.011 0 0 2.14-5.584 2.28-5.87 0 .287 1.56 10.88 1.56 10.88 3.56 0 5.55-2.29 6.54-4.724l4.98-12.455c-3.7 0-5.55 2.434-6.54 5.01Zm33.55-5.44c-2.13 0-3.84 1.145-5.26 3.006l1.14-10.308c-2.99 0-5.26 2.577-5.83 6.3l-2.27 18.468c1.7 0 3.41-.43 4.4-1.718.86 1.145 2.14 2.004 3.98 2.004 4.98 0 8.39-5.727 8.39-11.167.15-5.01-2.27-6.586-4.55-6.586Zm-.57 8.876c-.56 3.006-2.13 5.01-3.83 5.01-1.57 0-2.28-.715-2.28-.715.29-2.577.57-4.295 1.14-5.727.57-1.432 1.99-3.58 3.41-3.58 1.42.144 2.13 2.005 1.56 5.012Zm17.64-8.447h-3.42v-.143c.29-2.291.71-3.436 2.56-3.58 1.14-.143 1.71-.715 1.85-1.431.14-.573.43-2.434.43-2.434-6.97 0-9.1 3.006-9.67 7.588v.143h-.14c-1.14 0-2.42 1.288-2.56 2.863l-.14.573h2.27l-1.99 16.035-.57 2.863h.29c3.27-.143 5.26-2.72 5.82-6.443l1.57-12.598h1.14c.99 0 2.27-1.002 2.56-2.863v-.573Zm17.91-.287c-3.98 0-7.68 3.007-8.82 7.588-1.13 4.582.57 10.165 6.4 10.165s9.24-5.726 9.24-10.451c-.14-4.724-3.27-7.302-6.82-7.302Zm1.56 8.59c-.14 2.148-1.13 5.298-3.69 5.298s-2.14-3.723-1.99-5.44c.28-1.862 1.28-4.582 3.55-4.582 2.13 0 2.42 2.434 2.13 4.724Zm24.89-3.292s-2 6.299-2.14 6.872c0-.573-1.56-11.883-1.56-11.883-3.41 0-5.26 2.434-6.12 5.01 0 0-2.41 6.3-2.55 6.873 0-.43-.43-6.73-.43-6.73-.14-3.149-3.13-5.01-5.4-5.01l2.84 17.18c3.55 0 5.54-2.434 6.54-5.01 0 0 2.13-5.584 2.28-5.87 0 .286 1.56 10.88 1.56 10.88 3.55 0 5.54-2.29 6.54-4.724l4.69-12.6c-3.55 0-5.4 2.435-6.25 5.012Zm-41.09-12.6-2.85 23.48-.57 2.864h.29c3.13 0 5.4-2.864 5.68-6.3l1.71-13.457c.43-4.01-2.13-6.586-4.26-6.586Z" fill="#fff"/><defs><clipPath id="logos-companies-I-havent-worked-for-lol__a"><path fill="#fff" transform="translate(526 17.5)" d="M0 0h120v15H0z"/></clipPath><clipPath id="logos-companies-I-havent-worked-for-lol__b"><path fill="#fff" transform="translate(1066 14.333)" d="M0 0h120v21.333H0z"/></clipPath><clipPath id="logos-companies-I-havent-worked-for-lol__c"><path fill="#fff" transform="translate(1246 6)" d="M0 0h120v38H0z"/></clipPath><clipPath id="logos-companies-I-havent-worked-for-lol__d"><path fill="#fff" transform="translate(1426 10)" d="M0 0h86v30H0z"/></clipPath></defs></svg>