<svg width="32" height="32" xmlns="http://www.w3.org/2000/svg"><path fill-rule="evenodd" clip-rule="evenodd" d="M16 2C8.265 2 2 8.423 2 16.354c0 6.352 4.008 11.717 9.572 13.619.7.125.963-.305.963-.682 0-.341-.018-1.471-.018-2.674-3.517.664-4.427-.879-4.707-1.686-.157-.413-.84-1.687-1.435-2.028-.49-.269-1.19-.933-.018-.95 1.103-.019 1.89 1.04 2.153 1.47 1.26 2.172 3.273 1.562 4.078 1.185.122-.933.49-1.561.892-1.92-3.115-.359-6.37-1.597-6.37-7.087 0-1.562.542-2.853 1.435-3.858-.14-.359-.63-1.83.14-3.804 0 0 1.172-.377 3.85 1.471a12.69 12.69 0 0 1 3.5-.484c1.19 0 2.38.161 3.5.484 2.677-1.866 3.85-1.471 3.85-1.471.77 1.974.28 3.445.14 3.804.893 1.005 1.435 2.279 1.435 3.857 0 5.509-3.273 6.729-6.387 7.088.507.448.944 1.31.944 2.655 0 1.92-.017 3.463-.017 3.948 0 .377.262.825.962.682a14.055 14.055 0 0 0 6.906-5.237A14.626 14.626 0 0 0 30 16.354C30 8.424 23.735 2 16 2Z" fill="#fff"/></svg>