<svg xmlns="http://www.w3.org/2000/svg" width="32" height="33" fill="none"><g clip-path="url(#a)"><mask id="b" width="32" height="33" x="0" y="0" maskUnits="userSpaceOnUse" style="mask-type:luminance"><path fill="#fff" d="M32 .942H0v32h32v-32Z"/></mask><g mask="url(#b)"><mask id="c" width="32" height="35" x="0" y="-2" maskUnits="userSpaceOnUse" style="mask-type:luminance"><path fill="#fff" d="M0 .943h32v32H0v-32ZM26.571-1.8H13.488v30.004h13.083V-1.8Z"/></mask><g mask="url(#c)"><path fill="#FBBC04" d="M1.371 27.457 14.63 6.428h8.228v2.926L11.43 27.457"/></g><path fill="#1A73E8" d="M22.857 27.457H14.63V6.428h8.228v21.029Z"/><path fill="#34A853" d="M28.8 21.514a5.943 5.943 0 0 1-5.943 5.943V15.57a5.943 5.943 0 0 1 5.943 5.943Z"/><path fill="#0D652D" d="M22.857 27.457a5.943 5.943 0 1 1 0-11.886v11.886Z"/><path fill="#1A73E8" d="M27.428 11a4.571 4.571 0 0 1-4.57 4.571V6.428A4.571 4.571 0 0 1 27.427 11Z"/><path fill="#174EA6" d="M22.857 15.571a4.571 4.571 0 1 1 0-9.143v9.143Z"/><path fill="#EA4335" d="M1.829 10.543a4.115 4.115 0 1 1 8.229 0 4.115 4.115 0 0 1-8.23 0Z"/></g></g><defs><clipPath id="a"><path fill="#fff" d="M0 .942h32v32H0z"/></clipPath></defs></svg>