<svg xmlns="http://www.w3.org/2000/svg" width="32" height="33" fill="none"><mask id="a" width="28" height="29" x="2" y="2" maskUnits="userSpaceOnUse" style="mask-type:alpha"><path fill="#000" d="M16 30.942c7.732 0 14-6.268 14-14s-6.268-14-14-14-14 6.268-14 14 6.268 14 14 14Z"/></mask><g mask="url(#a)"><path fill="#000" d="M16 30.942c7.732 0 14-6.268 14-14s-6.268-14-14-14-14 6.268-14 14 6.268 14 14 14Z"/><path fill="url(#b)" d="M25.257 27.445 12.755 11.342H10.4v11.196h1.884v-8.803l11.494 14.85a14.048 14.048 0 0 0 1.479-1.14Z"/><path fill="url(#c)" d="M21.756 11.342h-1.867v11.2h1.867v-11.2Z"/></g><defs><linearGradient id="b" x1="18.956" x2="24.478" y1="21.064" y2="27.909" gradientUnits="userSpaceOnUse"><stop stop-color="#fff"/><stop offset="1" stop-color="#fff" stop-opacity="0"/></linearGradient><linearGradient id="c" x1="20.822" x2="20.791" y1="11.342" y2="19.567" gradientUnits="userSpaceOnUse"><stop stop-color="#fff"/><stop offset="1" stop-color="#fff" stop-opacity="0"/></linearGradient></defs></svg>