<svg width="180" height="159" xmlns="http://www.w3.org/2000/svg"><path d="m90 0 48.838 23.377L150.9 75.903l-33.797 42.124H62.897L29.1 75.903l12.062-52.526L90 0Z" fill="#E60000"/><path fill-rule="evenodd" clip-rule="evenodd" d="M90 .932 41.89 23.96 30.01 75.695l33.29 41.491h53.4l33.289-41.491-11.88-51.735L90 .932Zm48.838 22.445L90 0 41.162 23.377 29.1 75.903l33.797 42.124h54.206L150.9 75.903l-12.062-52.526Z" fill="#fff" fill-opacity=".75"/><path d="m90 16.865 1.773 25.384 5.3-24.891-1.79 25.382 8.727-23.913-5.318 24.887 11.981-22.47-8.742 23.907 15.003-20.59-11.996 22.462 17.733-18.31-15.017 20.581 20.118-15.672-17.746 18.297 22.112-12.73-20.129 15.66 23.674-9.54-22.12 12.715 24.777-6.165-23.681 9.524 25.396-2.668-24.781 6.147 25.522.88-25.398 2.651 25.151 4.41-25.522-.897 24.291 7.855-25.148-4.427 22.956 11.147-24.284-7.871 21.176 14.222-22.949-11.163 18.983 17.02-21.166-14.236 16.422 19.487-18.973-17.033 13.54 21.575-16.408-19.498 10.395 23.242-13.526-21.584 7.048 24.458-10.38-23.25 3.563 25.197-7.03-24.462.008 25.446L90 92.831l-3.546 25.2.009-25.446-7.03 24.462 3.562-25.196-10.38 23.249 7.048-24.458-13.525 21.584 10.394-23.242-16.408 19.498 13.54-21.575-18.972 17.033 16.422-19.487L49.947 98.69l18.984-17.02-22.95 11.163L67.159 78.61l-24.286 7.87L65.83 75.334l-25.148 4.427 24.29-7.855-25.521.897 25.15-4.41-25.398-2.651 25.522-.88-24.78-6.147 25.396 2.668L41.66 51.86l24.776 6.164-22.12-12.715 23.675 9.54L47.86 39.19l22.113 12.73-17.747-18.297 20.119 15.672-15.018-20.58 17.734 18.31L63.065 24.56 78.07 45.151l-8.743-23.908 11.982 22.471-5.318-24.887 8.726 23.913-1.79-25.382 5.301 24.89L90 16.866Z" fill-opacity=".25"/><g filter="url(#logo-ricardo-zea-full__a)"><path d="M102.815 25.7c-10.66 3.072-15.962 10.336-21.017 23.15 4.416-13.787 4.6-19.799 2.16-32.014C90.87 41.72 121.45 8.713 124.52 5.622c-1.429 2.938-15.66 27.22-28.013 40.662-17.931 19.51-18.081 29.211-18.076 29.208.005.001 29.144 4.714 45.351-31.21-10.166 22.65-11.485 27.705-6.82 42.612-22.894-30.35-55.482 11.879-64.849 31.134 3.025-18.711 21.958-50 31.25-60.107 9.291-10.106 16.033-21.532 19.452-32.221Z" fill="#F7F7F7"/></g><path d="M36.348 133.634c2.602 0 4.593.58 5.973 1.741 1.38 1.148 2.1 2.778 2.162 4.891l.018.348h-4.727v-.238c0-1.001-.28-1.783-.843-2.345-.55-.562-1.355-.843-2.418-.843-1.21 0-2.15.416-2.821 1.246-.66.818-.99 2.028-.99 3.628v.861c0 1.514.324 2.717.971 3.609.648.879 1.588 1.319 2.822 1.319 1.087 0 1.911-.281 2.473-.843.574-.562.861-1.349.861-2.363v-.257h4.69v.367c-.036 2.064-.757 3.682-2.161 4.855-1.393 1.172-3.384 1.758-5.973 1.758-2.614 0-4.702-.763-6.266-2.29-1.55-1.539-2.326-3.633-2.326-6.283v-.605c0-2.675.769-4.77 2.308-6.284 1.551-1.515 3.633-2.272 6.247-2.272Z" fill="#F7F7F7"/><path fill-rule="evenodd" clip-rule="evenodd" d="M106.186 133.634c2.712 0 4.874.788 6.486 2.363 1.624 1.576 2.437 3.64 2.437 6.193v.605c-.001 2.577-.813 4.653-2.437 6.228-1.612 1.564-3.774 2.345-6.486 2.345-2.711 0-4.879-.781-6.504-2.345-1.612-1.575-2.418-3.651-2.418-6.228v-.605c0-2.553.812-4.617 2.437-6.193 1.624-1.575 3.786-2.363 6.485-2.363Zm0 3.554c-1.307 0-2.302.452-2.986 1.356-.684.904-1.026 2.076-1.026 3.518v.842c0 1.454.336 2.644 1.008 3.573.684.916 1.685 1.374 3.004 1.374s2.321-.458 3.005-1.374c.684-.929 1.026-2.119 1.026-3.573v-.842c0-1.442-.342-2.614-1.026-3.518-.684-.904-1.686-1.356-3.005-1.356Zm47.103-3.536c2.589 0 4.574.739 5.954 2.217 1.392 1.466 2.088 3.506 2.088 6.119v1.374h-11.856c.071 1.317.408 2.374 1.011 3.17.696.903 1.691 1.355 2.986 1.355.928 0 1.704-.183 2.327-.549a4.019 4.019 0 0 0 1.447-1.484l3.976 1.301c-.526 1.27-1.411 2.29-2.657 3.059-1.234.77-2.919 1.154-5.056 1.154-2.822 0-5.008-.769-6.559-2.308-1.539-1.539-2.309-3.634-2.309-6.284v-.586c0-2.589.782-4.66 2.345-6.211 1.576-1.551 3.677-2.327 6.303-2.327Zm-.037 3.445c-1.246 0-2.192.445-2.84 1.337-.467.647-.762 1.417-.885 2.308h7.114v-.128c0-.953-.269-1.777-.806-2.473s-1.398-1.044-2.583-1.044Zm-58.534 13.85h-4.654l-.018-2.437h-.019c-.5.77-1.215 1.429-2.143 1.979-.916.55-2.015.824-3.298.824-2.174 0-3.89-.8-5.148-2.4-1.258-1.612-1.887-3.645-1.887-6.1v-.587c0-2.455.641-4.482 1.924-6.082 1.294-1.6 2.998-2.4 5.111-2.4 1.295 0 2.388.214 3.28.641.903.415 1.606.965 2.106 1.649v-11.817h4.746v26.73Zm-8.428-13.759c-1.319 0-2.29.477-2.913 1.429-.61.953-.916 2.18-.916 3.683v.458c0 1.502.306 2.736.916 3.701.623.952 1.594 1.428 2.913 1.428.88 0 1.63-.25 2.253-.751.623-.5 1.07-1.074 1.338-1.722v-5.917c-.269-.648-.715-1.191-1.338-1.631-.622-.452-1.374-.678-2.253-.678Zm-31.218-3.499c2.443 0 4.28.458 5.514 1.374 1.246.904 1.87 2.394 1.87 4.47v7.365c0 .733.054 1.429.164 2.089.11.647.287 1.209.531 1.685v.275h-4.727a4.141 4.141 0 0 1-.476-1.099 9.7 9.7 0 0 1-.238-1.356c-.403.684-1.105 1.307-2.107 1.869-.99.549-2.241.824-3.756.824-1.783 0-3.181-.427-4.195-1.282-1.014-.855-1.52-2.113-1.52-3.774s.659-2.987 1.978-3.976c1.319-1.002 3.078-1.502 5.276-1.502H57.6v-1.282c0-.904-.226-1.588-.678-2.052-.44-.464-1.16-.697-2.162-.697-.989 0-1.752.202-2.29.605-.525.403-.787.977-.787 1.722v.403l-4.489-.018v-.513c0-1.515.702-2.748 2.107-3.701 1.404-.953 3.328-1.429 5.77-1.429Zm-.22 9.563c-1.343 0-2.339.208-2.986.623-.635.416-.953 1.063-.953 1.942 0 .831.244 1.454.733 1.869.488.415 1.185.623 2.088.623.978 0 1.863-.342 2.657-1.026.806-.684 1.21-1.453 1.21-2.308v-1.723h-2.749Zm117.069-9.563c2.442 0 4.281.458 5.514 1.374 1.246.904 1.869 2.394 1.869 4.47v7.365c0 .733.055 1.429.165 2.089.11.647.287 1.209.531 1.685v.275h-4.727a4.151 4.151 0 0 1-.476-1.099 9.848 9.848 0 0 1-.238-1.356c-.403.684-1.106 1.307-2.107 1.869-.989.549-2.241.824-3.756.824-1.783 0-3.181-.427-4.195-1.282-1.014-.855-1.521-2.113-1.521-3.774s.66-2.987 1.979-3.976c1.319-1.001 3.078-1.502 5.276-1.502h4.214v-1.282c0-.904-.226-1.588-.678-2.052-.44-.464-1.16-.697-2.162-.697-.989 0-1.752.202-2.29.605-.525.403-.788.977-.788 1.722v.403l-4.488-.018v-.513c0-1.515.702-2.748 2.107-3.701 1.404-.953 3.328-1.429 5.771-1.429Zm-.22 9.563c-1.344 0-2.339.208-2.987.623-.635.416-.952 1.063-.952 1.942 0 .831.244 1.454.733 1.869.488.415 1.184.623 2.088.623.977 0 1.863-.342 2.657-1.026.806-.684 1.209-1.453 1.209-2.308v-1.723h-2.748ZM9.472 124.272c2.528 0 4.488.751 5.88 2.254 1.405 1.49 2.108 3.444 2.108 5.862 0 2.467-.733 4.483-2.199 6.046a7.032 7.032 0 0 1-2.069 1.544l5.33 10.969h-5.477l-4.62-10.168H5.001v10.168H0v-26.675h9.472Zm-4.47 13.081h3.462c1.466 0 2.492-.44 3.078-1.319.586-.879.88-2.009.88-3.389s-.294-2.504-.88-3.371c-.586-.88-1.612-1.319-3.078-1.319H5.002v9.398Z" fill="#F7F7F7"/><path d="M25.136 150.947h-4.928V134.11h4.928v16.837Zm50.272-17.148c.317 0 .635.024.953.073.317.037.537.08.659.128v3.665a3.955 3.955 0 0 0-.806-.165 6.868 6.868 0 0 0-1.044-.074c-.819 0-1.625.269-2.419.806a5.539 5.539 0 0 0-1.85 2.108v10.607h-4.965V134.11h4.855l.018 2.345h.018a5.993 5.993 0 0 1 1.888-1.905c.769-.5 1.667-.751 2.693-.751Zm67.438-6.687-11.945 19.951h12.513v3.884h-18.889v-2.711l12-19.951h-11.34v-4.013h17.661v2.84ZM22.7 125.463c.89 0 1.575.244 2.051.733.477.488.715 1.105.715 1.85a2.59 2.59 0 0 1-.733 1.851c-.489.513-1.185.769-2.088.769-.892 0-1.576-.256-2.052-.769-.477-.513-.715-1.13-.715-1.851 0-.732.244-1.343.733-1.832.488-.501 1.185-.751 2.088-.751Z" fill="#F7F7F7"/><defs><filter id="logo-ricardo-zea-full__a" x="49.513" y="5.022" width="77.606" height="117.606" filterUnits="userSpaceOnUse" color-interpolation-filters="sRGB"><feFlood flood-opacity="0" result="BackgroundImageFix"/><feColorMatrix in="SourceAlpha" values="0 0 0 0 0 0 0 0 0 0 0 0 0 0 0 0 0 0 127 0" result="hardAlpha"/><feOffset dy="2"/><feGaussianBlur stdDeviation="1.3"/><feComposite in2="hardAlpha" operator="out"/><feColorMatrix values="0 0 0 0 0 0 0 0 0 0 0 0 0 0 0 0 0 0 0.5 0"/><feBlend in2="BackgroundImageFix" result="effect1_dropShadow_881_4773"/><feBlend in="SourceGraphic" in2="effect1_dropShadow_881_4773" result="shape"/></filter></defs></svg>