<svg xmlns="http://www.w3.org/2000/svg" width="32" height="33" fill="none"><path fill="#0056A6" d="M1.847 25.408V8.477c0-3.035 2.372-5.535 5.346-5.535h17.309c2.973 0 5.345 2.5 5.345 5.535v16.931c0 3.035-2.372 5.534-5.345 5.534H7.192c-2.973 0-5.345-2.499-5.345-5.534Z"/><path fill="#86C5FF" d="M2.43 8.477c0-2.735 2.132-4.951 4.762-4.951h17.31c2.63 0 4.762 2.216 4.762 4.95v16.932c0 2.735-2.132 4.951-4.762 4.951H7.192c-2.63 0-4.762-2.216-4.762-4.95V8.476Z"/><path fill="#EDF6FF" d="M22.095 7.697c1.354-1.354 3.668-.395 3.669 1.52v15.532a2.15 2.15 0 0 1-2.15 2.15H8.083c-1.915 0-2.873-2.316-1.52-3.67L22.095 7.697Zm1.52 18.617h.04c.025 0 .05-.004.075-.006-.038.003-.076.006-.115.006Zm-15.596 0h.064c-.037 0-.073-.002-.108-.005.014.001.029.004.044.004Zm-.159-.015Zm15.931.005ZM7.75 26.28l.044.008-.044-.008Zm16.203-.004Zm-16.342-.032Zm16.484-.006c.027-.008.053-.019.08-.03-.027.011-.053.022-.08.03Zm-16.58-.027.063.023-.063-.023Zm-.103-.043Zm16.822.018Zm-16.93-.075Zm17.07.006Zm-17.157-.059ZM24.5 26.04Zm-17.362-.036.027.02c-.01-.006-.018-.013-.027-.02Zm-.092-.076.035.032-.035-.032Zm17.571.023c.022-.018.042-.038.063-.058-.021.02-.041.04-.063.058Zm.109-.1.046-.051-.046.05ZM6.84 25.701l.015.022-.015-.022Zm18.183-.274ZM6.515 24.7Zm.07-.425-.01.036.01-.036Zm.038-.105Zm.05-.113Zm.06-.106Zm.063-.098Zm.076-.097Zm.059-.069a1.742 1.742 0 0 0 .045-.046l-.045.046Zm.043 2.168c.01.011.02.023.032.034l-.032-.034Zm18.084-.5c.011-.028.02-.056.03-.085-.01.029-.019.057-.03.084ZM6.515 24.7v.041-.04Z"/><mask id="a" width="20" height="20" x="6" y="7" maskUnits="userSpaceOnUse" style="mask-type:alpha"><path fill="#333" d="M22.507 8.11c.987-.986 2.673-.288 2.673 1.107V24.75c0 .865-.7 1.566-1.565 1.566H8.083c-1.395 0-2.094-1.687-1.107-2.673L22.507 8.11Z"/></mask><g mask="url(#a)"><path fill="#0285FF" d="M6.514-83.018h6.222v200H6.514z"/><path fill="#0056A6" d="M12.736-83.018h6.222v200h-6.222z"/><path fill="#001D38" d="M18.958-83.018h6.222v200h-6.222z"/></g></svg>