<svg xmlns="http://www.w3.org/2000/svg" width="32" height="33" fill="none"><path fill="#F7DF1E" d="M2 2.942h28v28H2z"/><path fill="#000" d="m19 26.23 2.061-1.364c.162.508 1.185 1.713 2.477 1.713 1.293 0 1.893-.706 1.893-1.174 0-1.275-1.32-1.724-1.954-1.94a3.624 3.624 0 0 1-.246-.09c-.03-.013-.075-.03-.133-.052-.705-.27-3.306-1.263-3.306-4.143 0-3.173 3.062-3.537 3.754-3.537.453 0 2.63.055 3.716 2.093l-2 1.396c-.439-.888-1.167-1.181-1.616-1.181-1.108 0-1.338.811-1.338 1.181 0 1.037 1.203 1.502 2.22 1.895.265.102.518.2.734.302 1.107.523 2.738 1.38 2.738 4.076 0 1.351-1.133 3.538-3.985 3.538-3.83 0-4.846-2.3-5.015-2.713ZM9 26.501l2.149-1.363c.168.507.822 1.442 1.772 1.442.949 0 1.435-.975 1.435-1.442v-9.195h2.642v9.195c.043 1.268-.66 3.805-3.765 3.805-2.854 0-4.04-1.697-4.233-2.442Z"/></svg>