<svg width="400" height="68" xmlns="http://www.w3.org/2000/svg"><path fill-rule="evenodd" clip-rule="evenodd" d="m48.632 8.934-10.97-6.278h-.004c-1.123-.642-2.327-.964-3.53-.964-1.204 0-2.408.322-3.53.964L19.624 8.934v.002L8.66 15.212a7.013 7.013 0 0 0-2.608 2.556 6.927 6.927 0 0 0-.932 3.51v25.113c0 1.274.325 2.467.932 3.51a7.02 7.02 0 0 0 2.608 2.556l10.966 6.276-.001.002 10.974 6.278c1.122.642 2.326.965 3.53.965 1.203 0 2.407-.322 3.53-.965l10.974-6.278-.002-.002 10.966-6.276a7.014 7.014 0 0 0 2.608-2.555 6.928 6.928 0 0 0 .932-3.51V21.277a6.928 6.928 0 0 0-.932-3.51 7.014 7.014 0 0 0-2.608-2.556L48.63 8.936l.002-.002ZM36.428 4.77l10.969 6.278 10.973 6.278a4.76 4.76 0 0 1 1.108.865L46.44 25.594a14.866 14.866 0 0 0-1.828-2.214 14.799 14.799 0 0 0-10.483-4.331 14.801 14.801 0 0 0-10.484 4.33 14.858 14.858 0 0 0-1.795 2.165L8.865 18.1a4.82 4.82 0 0 1 1.02-.774L31.828 4.77l-.002-.003a4.856 4.856 0 0 1 1.012-.436v10.895c.005.33.14.646.378.88a1.302 1.302 0 0 0 1.824 0 1.26 1.26 0 0 0 .377-.88V4.33a4.84 4.84 0 0 1 1.012.437l-.001.003ZM7.698 20.245c-.072.33-.109.675-.109 1.033v25.113c0 .404.047.792.137 1.16l9.583-5.517.014-.008c.289-.162.63-.203.953-.115a1.297 1.297 0 0 1 .911 1.575 1.26 1.26 0 0 1-.575.767l-.014.008-9.539 5.491c.247.22.523.418.826.591L31.828 62.9l-.002.002c.336.192.682.34 1.035.443l.012-14.777a14.794 14.794 0 0 1-9.23-4.279 14.72 14.72 0 0 1-4.342-10.454c0-2.2.482-4.289 1.347-6.166l-12.95-7.424Zm27.647 43.114a4.83 4.83 0 0 0 1.084-.457l-.001-.002L58.37 50.344a4.93 4.93 0 0 0 .826-.592l-9.539-5.492-.014-.008a1.261 1.261 0 0 1-.575-.765 1.3 1.3 0 0 1 .912-1.575c.321-.089.663-.048.953.114l.013.007 9.583 5.518c.09-.368.137-.756.137-1.16V21.278a4.88 4.88 0 0 0-.083-.907l-12.95 7.353a14.696 14.696 0 0 1 1.321 6.11c0 4.083-1.66 7.78-4.343 10.455a14.797 14.797 0 0 1-9.254 4.281l-.012 14.79ZM22.846 28.93l10.04 5.757h-.001l-.01 11.356a12.28 12.28 0 0 1-7.448-3.531 12.215 12.215 0 0 1-3.604-8.676c0-1.744.365-3.403 1.023-4.905Zm1.198-2.127a12.283 12.283 0 0 1 10.084-5.238c3.398 0 6.474 1.374 8.7 3.594.519.518.991 1.081 1.411 1.684l-10.111 5.741-10.084-5.78Zm21.385 2.173-10.06 5.711-.01 11.358a12.28 12.28 0 0 0 7.469-3.533 12.215 12.215 0 0 0 3.604-8.676 12.2 12.2 0 0 0-1.003-4.86Z" fill="#71D08B"/><path d="M102.681 17.585v29.722a1.982 1.982 0 0 1-.351 1.123 1.89 1.89 0 0 1-.917.707 1.835 1.835 0 0 1-1.145.03 1.885 1.885 0 0 1-.951-.657L79.873 23.177v24.131a1.97 1.97 0 0 1-.552 1.374 1.86 1.86 0 0 1-1.334.568c-.5 0-.98-.204-1.334-.568a1.971 1.971 0 0 1-.553-1.373V17.584c0-.404.122-.797.349-1.126.227-.33.548-.577.919-.71a1.847 1.847 0 0 1 2.099.632l19.44 25.335v-24.13c0-.515.2-1.009.553-1.373a1.86 1.86 0 0 1 1.334-.569c.501 0 .98.205 1.334.569.354.364.553.858.553 1.373Zm38.707 14.86c0 9.622-7.209 17.45-16.068 17.45-8.86 0-16.069-7.828-16.069-17.45 0-9.62 7.209-17.448 16.069-17.448 8.859 0 16.068 7.828 16.068 17.449Zm-3.773 0c0-7.48-5.516-13.564-12.297-13.564-6.781 0-12.296 6.085-12.296 13.565 0 7.48 5.515 13.565 12.296 13.565s12.297-6.086 12.297-13.565Zm132.882 0c0 9.622-7.21 17.45-16.068 17.45s-16.068-7.828-16.068-17.45c0-9.62 7.208-17.448 16.068-17.448 8.859 0 16.068 7.828 16.068 17.449Zm-3.773 0c0-7.48-5.516-13.564-12.297-13.564-6.781 0-12.297 6.085-12.297 13.565 0 7.48 5.517 13.565 12.297 13.565 6.779 0 12.297-6.086 12.297-13.565Zm34.659-16.802c-.501 0-.981.205-1.334.569a1.97 1.97 0 0 0-.553 1.373v18.158a10.18 10.18 0 0 1-.629 3.902 9.965 9.965 0 0 1-2.062 3.337 9.625 9.625 0 0 1-3.166 2.242 9.388 9.388 0 0 1-7.53 0 9.621 9.621 0 0 1-3.165-2.242 9.933 9.933 0 0 1-2.062-3.337 10.18 10.18 0 0 1-.63-3.902V17.585a1.97 1.97 0 0 0-.552-1.373 1.86 1.86 0 0 0-1.334-.569c-.5 0-.98.205-1.334.569a1.97 1.97 0 0 0-.553 1.373v18.158a14.14 14.14 0 0 0 .924 5.381 13.838 13.838 0 0 0 2.881 4.59 13.39 13.39 0 0 0 4.387 3.077 13.07 13.07 0 0 0 5.203 1.083 13.07 13.07 0 0 0 5.204-1.083 13.4 13.4 0 0 0 4.387-3.077 13.854 13.854 0 0 0 2.881-4.59 14.16 14.16 0 0 0 .923-5.381V17.585c0-.515-.199-1.009-.552-1.373a1.86 1.86 0 0 0-1.334-.569Zm-68.088 22.233a8.71 8.71 0 0 0-2.535-3.79 13.74 13.74 0 0 0-3.512-2.221 22.166 22.166 0 0 0-3.725-1.29c-.677-.19-1.164-.27-1.829-.426a28.737 28.737 0 0 1-1.654-.387 17.568 17.568 0 0 1-3.041-1.07 6.983 6.983 0 0 1-2.24-1.596 4.041 4.041 0 0 1-.917-2.055 4.686 4.686 0 0 1 .204-2.38 4.56 4.56 0 0 1 1.347-1.947 8.064 8.064 0 0 1 4.315-1.732 12.75 12.75 0 0 1 4.271.177 14.12 14.12 0 0 1 3.153 1.107c.662.322 1.305.684 1.925 1.084.202.119.398.265.515.344l.184.126.017.012c.368.268.824.375 1.269.297a1.7 1.7 0 0 0 1.101-.714c.26-.378.364-.848.288-1.306a1.757 1.757 0 0 0-.693-1.133l-.713-.553a17.754 17.754 0 0 0-2.273-1.469 15.892 15.892 0 0 0-3.96-1.536 15.449 15.449 0 0 0-5.504-.299 11.684 11.684 0 0 0-6.338 2.635 8.532 8.532 0 0 0-2.378 3.397c-.133.338-.218.695-.322 1.047-.071.357-.133.72-.182 1.083l-.032.544-.013.273-.007.137.007.213.022.431c.004.168.018.336.043.502a7.904 7.904 0 0 0 1.849 4.284 10.657 10.657 0 0 0 3.468 2.537 21.05 21.05 0 0 0 3.699 1.317c.619.166 1.235.301 1.85.433.505.119 1.203.25 1.683.393a13.916 13.916 0 0 1 5.644 2.664 4.274 4.274 0 0 1 1.422 2.056c.263.817.279 1.697.048 2.524a4.4 4.4 0 0 1-.405 1.023 2.693 2.693 0 0 1-.314.5 3.324 3.324 0 0 1-.377.46A6.43 6.43 0 0 1 226.641 45a11.836 11.836 0 0 1-4.891 1.005 9.72 9.72 0 0 1-1.156-.05c-.313-.023-.67-.084-1.024-.148-.671-.134-1.33-.32-1.973-.56a17.533 17.533 0 0 1-3.121-1.478 19.65 19.65 0 0 1-1.876-1.24c-.414-.308-.612-.482-.612-.482a1.667 1.667 0 0 0-1.214-.423 1.68 1.68 0 0 0-1.155.571 1.78 1.78 0 0 0-.437 1.24c.017.456.207.887.529 1.201l.045.045s.247.238.725.644a21.754 21.754 0 0 0 2.145 1.603 20.593 20.593 0 0 0 3.699 1.904c.817.315 1.655.566 2.508.75a14.1 14.1 0 0 0 1.472.239c.492.055.986.08 1.48.076a15.467 15.467 0 0 0 6.429-1.356 8.934 8.934 0 0 0 3.332-2.461 9.286 9.286 0 0 0 1.909-3.737l.068-.298.03-.217.061-.432.017-.108.018-.177v-.07l.009-.283.012-.566c0-.38-.061-.771-.1-1.157a11.474 11.474 0 0 0-.275-1.159Zm-58.523-5.43c0 10.679-6.704 16.803-18.38 16.803h-6.694c-.5 0-.98-.204-1.334-.568a1.97 1.97 0 0 1-.552-1.373V17.584c0-.515.198-1.009.552-1.373a1.86 1.86 0 0 1 1.334-.569h6.694c12.695 0 18.38 8.439 18.38 16.803Zm-3.773 0c0-7.848-5.734-12.92-14.609-12.92h-4.808v25.84h4.808c12.075 0 14.609-7.027 14.609-12.92Zm31.406-12.92c.5 0 .98-.204 1.334-.568a1.97 1.97 0 0 0 .553-1.373 1.97 1.97 0 0 0-.553-1.373 1.86 1.86 0 0 0-1.334-.569h-19.279c-.248 0-.493.05-.722.148a1.92 1.92 0 0 0-1.021 1.051 1.988 1.988 0 0 0-.144.743v29.722c0 .515.199 1.01.553 1.374.353.364.833.568 1.334.568h19.284c.5 0 .98-.204 1.334-.568a1.97 1.97 0 0 0 .552-1.373 1.97 1.97 0 0 0-.552-1.374 1.86 1.86 0 0 0-1.334-.568h-17.398V34.315h12.217c.5 0 .98-.205 1.334-.569.353-.364.552-.858.552-1.373s-.199-1.009-.552-1.373a1.86 1.86 0 0 0-1.334-.569h-12.221V19.527h17.397Zm195.234 0c.5 0 .98-.204 1.334-.568a1.97 1.97 0 0 0 .553-1.373 1.97 1.97 0 0 0-.553-1.373 1.86 1.86 0 0 0-1.334-.569h-19.285a1.874 1.874 0 0 0-1.334.568 1.988 1.988 0 0 0-.553 1.373v29.723c0 .515.199 1.01.553 1.374.354.364.833.568 1.334.568h19.285c.5 0 .98-.204 1.334-.568a1.97 1.97 0 0 0 .553-1.373 1.97 1.97 0 0 0-.553-1.374 1.86 1.86 0 0 0-1.334-.568H380.24V34.315h12.225c.5 0 .98-.205 1.334-.569a1.97 1.97 0 0 0 .552-1.373 1.97 1.97 0 0 0-.552-1.373 1.86 1.86 0 0 0-1.334-.569H380.24V19.527h17.399Zm-62.27 26.662a1.996 1.996 0 0 1 .317 1.45 1.98 1.98 0 0 1-.264.707 1.92 1.92 0 0 1-.507.55 1.834 1.834 0 0 1-2.096.055 1.904 1.904 0 0 1-.533-.523L322.6 34.302h-8.374v13.005a1.97 1.97 0 0 1-.553 1.374 1.86 1.86 0 0 1-1.334.568c-.5 0-.98-.204-1.334-.568a1.97 1.97 0 0 1-.552-1.373V17.584c0-.515.198-1.009.552-1.373a1.86 1.86 0 0 1 1.334-.569h13.391c5.701 0 9.839 3.927 9.839 9.329 0 4.943-3.468 8.636-8.414 9.235l8.214 11.98Zm-9.641-15.77c3.572 0 6.065-2.24 6.065-5.446 0-3.207-2.493-5.445-6.065-5.445h-11.502v10.891h11.502Zm18.579.455c.087-.456.115-.894.231-1.366.21-.956.52-1.885.925-2.772a13.675 13.675 0 0 1 3.316-4.53 12.953 12.953 0 0 1 4.477-2.628 13.704 13.704 0 0 1 4.595-.688c2.334.069 4.613.752 6.617 1.985.565.344 1.106.728 1.619 1.15l.535.464.086.076c.339.286.772.426 1.209.392a1.68 1.68 0 0 0 1.135-.58c.292-.336.446-.775.43-1.226a1.77 1.77 0 0 0-.516-1.191l-.637-.622a17.262 17.262 0 0 0-1.965-1.572 16.039 16.039 0 0 0-8.427-2.75 17.074 17.074 0 0 0-5.875.875 16.688 16.688 0 0 0-5.762 3.382 17.565 17.565 0 0 0-4.265 5.824 17.769 17.769 0 0 0-1.182 3.57c-.145.62-.214 1.308-.313 1.966-.037.32-.033.575-.053.865l-.044.945a17.848 17.848 0 0 0 3.218 10.205c2.085 2.97 5.024 5.192 8.401 6.351 1 .338 2.029.577 3.073.714.463.077.931.12 1.401.131l.636.033.256.009.176-.006.347-.01a15.97 15.97 0 0 0 8.412-2.752c.7-.48 1.365-1.014 1.989-1.594l.578-.573a1.782 1.782 0 0 0 .084-2.43 1.666 1.666 0 0 0-2.355-.167l-.015.014-.591.515a14.36 14.36 0 0 1-1.596 1.127 13.31 13.31 0 0 1-6.632 1.985h-.467l-.636-.033a7.034 7.034 0 0 1-1.201-.12 12.859 12.859 0 0 1-2.276-.543 12.938 12.938 0 0 1-4.477-2.63 13.6 13.6 0 0 1-3.355-4.613 13.97 13.97 0 0 1-1.201-5.627l.039-.749c.026-.254.026-.566.058-.806h-.002Z" fill="#F5F7F7"/></svg>