<svg xmlns="http://www.w3.org/2000/svg" width="23" height="24" fill="none"><g clip-path="url(#a)"><path fill="currentColor" d="m2.712 8.326 7.764-5.367v4.79l-4.257 2.963-3.507-2.386ZM6.26 10.74h-.08l.04-.028.04.028ZM4.352 12l-2.48 1.725v-3.451L4.353 12Zm6.204 4.2h-.08v4.842l-7.764-5.387L6.26 13.21l4.296 2.99Zm.944-6.606L14.958 12 11.5 14.408 8.042 12 11.5 9.594Zm0 14.405a.96.96 0 0 0 .503-.172l10.538-7.314c.007-.003.012-.009.017-.012l.045-.035a.81.81 0 0 0 .055-.049l.04-.04a1.308 1.308 0 0 0 .083-.1.969.969 0 0 0 .042-.063l.029-.048c.011-.022.023-.045.033-.068l.022-.05c.01-.026.017-.05.026-.077l.015-.05c.007-.028.012-.057.017-.086.001-.006.017-.013.035-.02v-7.63c-.017-.007-.032-.014-.034-.02a1.45 1.45 0 0 0-.017-.087c-.004-.017-.01-.033-.015-.05l-.025-.075-.023-.05a1.918 1.918 0 0 0-.033-.07l-.029-.047c-.013-.022-.027-.041-.042-.062l-.034-.044c-.015-.02-.032-.037-.049-.056l-.04-.04c-.017-.018-.036-.034-.055-.05l-.045-.035c-.005-.004-.01-.01-.017-.012L12.005.173A.964.964 0 0 0 11.5.001a.964.964 0 0 0-.504.172L.457 7.487l-.016.012-.045.035c-.019.016-.038.032-.056.05l-.04.04c-.016.019-.033.036-.048.056l-.034.044c-.015.02-.03.04-.042.062l-.029.048-.033.069-.023.05c-.01.025-.017.05-.025.075-.004.017-.01.033-.015.05a1.441 1.441 0 0 0-.018.087c0 .006-.016.013-.033.02v7.63c.018.007.034.014.035.02.005.029.01.058.017.086.004.017.01.033.015.05l.025.076.023.05c.01.024.022.047.033.07l.03.047a.848.848 0 0 0 .076.107c.015.02.031.038.048.056l.04.04a.824.824 0 0 0 .055.049l.045.035c.005.003.01.009.017.012l10.538 7.314a.96.96 0 0 0 .503.172Zm5.28-13.287L12.525 7.75V2.959l7.764 5.367-3.507 2.386Zm.04.028h-.08l.04-.028.04.028ZM18.648 12l2.48-1.726v3.45L18.647 12Zm-6.204 4.2 4.296-2.99 3.548 2.445-7.764 5.388V16.2h-.08Z"/></g><defs><clipPath id="a"><path fill="currentColor" d="M0 0h23v24H0z"/></clipPath></defs></svg>