<svg xmlns="http://www.w3.org/2000/svg" width="24" height="24" fill="none"><g clip-path="url(#a)"><path fill="currentColor" d="M21.079 3.75c.77 0 1.394.633 1.394 1.412v12.882h1.413v.976c0 .619-.496 1.12-1.107 1.12H.991c-.61 0-1.106-.501-1.106-1.12v-.976h1.413V5.16c0-.779.624-1.411 1.394-1.411H21.08ZM2.709 18.043h7.058c0 .369.297.668.662.668h2.914c.174.002.34-.069.464-.193a.68.68 0 0 0 .196-.474h7.06V5.177H2.708v12.866Zm13.68-6.85c1.405.635 2.482 2.236 2.796 4.217a1.058 1.058 0 0 1-.23.839.999.999 0 0 1-.775.364h-6.272a.998.998 0 0 1-.775-.363 1.044 1.044 0 0 1-.23-.839c.315-1.983 1.391-3.583 2.796-4.218a2.725 2.725 0 0 0 2.69 0Zm-8.016 3.7a.71.71 0 0 1 .65.99.72.72 0 0 1-.382.387.69.69 0 0 1-.27.053H5.517a.69.69 0 0 1-.498-.208.72.72 0 0 1-.208-.507c0-.394.317-.714.706-.714h2.857Zm.688-2.647a.711.711 0 0 1 .652.99.72.72 0 0 1-.382.387.691.691 0 0 1-.27.053H5.533a.691.691 0 0 1-.498-.208.72.72 0 0 1-.208-.507.71.71 0 0 1 .706-.715h3.528ZM7.685 9.6h2.788c.39 0 .707.32.707.714a.73.73 0 0 1-.208.507.704.704 0 0 1-.499.21H6.944l-.035-.003H5.532a.69.69 0 0 1-.499-.208.722.722 0 0 1-.208-.507c0-.394.317-.714.707-.714h2.153Zm7.36-3.03a2.087 2.087 0 0 1 1.493.624c.397.402.621.949.624 1.52a2.194 2.194 0 0 1-.164.823c-.107.26-.264.497-.46.696a2.07 2.07 0 0 1-1.493.624 2.072 2.072 0 0 1-1.494-.624 2.195 2.195 0 0 1-.625-1.52 2.197 2.197 0 0 1 .625-1.52c.196-.199.43-.356.686-.463.256-.106.53-.16.808-.16Zm-4.572.381a.711.711 0 0 1 .65.99.72.72 0 0 1-.382.386.69.69 0 0 1-.27.053H6.264l-.024.002-.706-.001a.691.691 0 0 1-.499-.207.719.719 0 0 1-.208-.507c0-.395.317-.715.707-.715h4.94Z"/></g><defs><clipPath id="a"><path fill="currentColor" d="M0 0h24v24H0z"/></clipPath></defs></svg>