<svg xmlns="http://www.w3.org/2000/svg" width="32" height="33" fill="none"><path fill="#53C1DE" d="M18.679 16.918c0-1.434-1.2-2.597-2.679-2.597-1.48 0-2.679 1.163-2.679 2.597 0 1.435 1.2 2.598 2.679 2.598 1.48 0 2.679-1.163 2.679-2.598Z"/><path fill="#53C1DE" fill-rule="evenodd" d="M24.7 12.096c.566-2.229 1.277-6.362-1.23-7.763-2.495-1.396-5.742 1.278-7.456 2.883-1.71-1.59-5.048-4.251-7.552-2.845-2.494 1.4-1.725 5.464-1.147 7.707-2.327.64-6.315 2.02-6.315 4.84 0 2.812 3.984 4.313 6.297 4.953-.58 2.256-1.311 6.262 1.186 7.659 2.514 1.406 5.842-1.193 7.572-2.815 1.726 1.614 4.942 4.23 7.437 2.829 2.504-1.405 1.852-5.483 1.273-7.74 2.242-.64 6.235-2.11 6.235-4.886 0-2.792-4.01-4.183-6.3-4.822Zm-.284 8.513a28.655 28.655 0 0 0-1.519-3.685 28.625 28.625 0 0 0 1.46-3.63c1.679.471 5.361 1.55 5.361 3.624 0 2.094-3.533 3.183-5.302 3.691Zm-1.566 7.86c-1.862 1.044-4.628-1.457-5.902-2.646a29.352 29.352 0 0 0 2.514-3.096c1.45-.124 2.821-.328 4.064-.607.407 1.596 1.194 5.299-.676 6.348Zm-13.726-.016c-1.863-1.04-1.011-4.616-.584-6.277 1.228.263 2.589.453 4.042.567a30.43 30.43 0 0 0 2.576 3.085c-1.083 1.015-4.163 3.671-6.034 2.625ZM2.28 16.918c0-2.102 3.661-3.172 5.378-3.643a29.25 29.25 0 0 0 1.462 3.673 29.696 29.696 0 0 0-1.48 3.726c-1.637-.454-5.36-1.652-5.36-3.756ZM9.104 5.446c1.87-1.05 4.77 1.506 6.012 2.657a29.981 29.981 0 0 0-2.556 3.066c-1.41.127-2.761.33-4.003.603-.466-1.809-1.321-5.278.547-6.326Zm11.275 7.074c.957.117 1.875.272 2.736.463-.259.803-.581 1.643-.96 2.505a41.165 41.165 0 0 0-1.776-2.968Zm-4.365-3.53c.591.621 1.183 1.315 1.766 2.067a38.897 38.897 0 0 0-3.546 0 27.654 27.654 0 0 1 1.78-2.067Zm-6.157 6.497a26.884 26.884 0 0 1-.954-2.517 29.727 29.727 0 0 1 2.72-.453 36.286 36.286 0 0 0-1.766 2.97Zm1.793 5.921a28.076 28.076 0 0 1-2.764-.43c.264-.83.59-1.692.972-2.569a36.306 36.306 0 0 0 1.792 3Zm4.4 3.526a28.162 28.162 0 0 1-1.805-2.095c1.188.046 2.378.046 3.566-.006a26.611 26.611 0 0 1-1.761 2.1Zm6.117-6.57c.4.887.739 1.744 1.007 2.56-.87.192-1.809.347-2.798.462.639-.983 1.239-1.99 1.79-3.021Zm-3.42 3.172a41.503 41.503 0 0 1-5.463.01 34.936 34.936 0 0 1-2.746-4.598 34.908 34.908 0 0 1 2.73-4.59c1.82-.133 3.65-.133 5.469.001a39.137 39.137 0 0 1 2.739 4.571 39.146 39.146 0 0 1-2.729 4.607ZM22.83 5.41c1.87 1.046 1.038 4.76.63 6.376a31.597 31.597 0 0 0-4.012-.614 29.376 29.376 0 0 0-2.536-3.07c1.258-1.174 4.066-3.728 5.918-2.692Z" clip-rule="evenodd"/></svg>