<svg xmlns="http://www.w3.org/2000/svg" width="180" height="160" fill="none"><path fill="#E60000" d="m90 .942 41.069 20.667 10.143 46.436-28.42 37.239H67.208l-28.42-37.239L48.931 21.61 90 .942Z"/><path fill="#fff" fill-opacity=".75" fill-rule="evenodd" d="M90 1.767 49.544 22.124l-9.99 45.737 27.994 36.68h44.904l27.994-36.68-9.99-45.737L90 1.767Zm41.069 19.842L90 .942 48.931 21.61 38.788 68.045l28.42 37.239h45.584l28.42-37.239-10.143-46.436Z" clip-rule="evenodd"/><path fill="#000" fill-opacity=".25" d="m90 15.852 1.49 22.44 4.458-22.005-1.505 22.44 7.338-21.141-4.472 22.002 10.076-19.866-7.352 21.136 12.617-18.203-10.089 19.858 14.913-16.187-12.629 18.195 16.918-13.856-14.923 16.177 18.595-11.254-16.927 13.843 19.908-8.434-18.601 11.241 20.835-5.45-19.914 8.42 21.357-2.359-20.839 5.435 21.462.778-21.358 2.343 21.15 3.9-21.462-.794 20.426 6.945-21.147-3.914 19.305 9.854-20.422-6.958 17.808 12.572-19.299-9.868 15.964 15.047-17.799-12.586 13.809 17.228-15.954-15.058 11.386 19.073-13.798-17.237 8.741 20.547-11.374-19.081 5.927 21.622-8.728-20.554 2.995 22.275-5.912-21.626.007 22.496L90 83.01l-2.982 22.278.008-22.495-5.913 21.625 2.996-22.275-8.728 20.554 5.927-21.622-11.374 19.081 8.74-20.547-13.797 17.237 11.386-19.073L60.309 92.83l13.81-17.228-17.8 12.586 15.963-15.047-19.298 9.868 17.808-12.572-20.422 6.958 19.305-9.854-21.148 3.914 20.427-6.945-21.462.793 21.15-3.899-21.358-2.343 21.462-.778-20.839-5.435 21.357 2.36-19.914-8.42 20.835 5.45-18.602-11.242 19.909 8.434-16.927-13.843 18.594 11.254-14.923-16.177 16.918 13.856-12.628-18.195 14.912 16.187L67.35 22.655l12.617 18.203-7.352-21.136 10.076 19.866-4.472-22.002 7.338 21.141-1.506-22.44 4.458 22.005L90 15.852Z"/><g filter="url(#a)"><path fill="#F7F7F7" d="M100.776 23.663c-8.964 2.715-13.423 9.137-17.673 20.465 3.713-12.188 3.869-17.503 1.817-28.302 5.812 21.998 31.527-7.18 34.108-9.914-1.201 2.598-13.168 24.064-23.556 35.947-15.079 17.249-15.205 25.825-15.2 25.822.003.002 24.507 4.168 38.136-27.59-8.548 20.022-9.658 24.492-5.735 37.67-19.252-26.83-46.656 10.502-54.533 27.524 2.544-16.541 18.465-44.203 26.278-53.137 7.814-8.935 13.483-19.036 16.358-28.486Z"/></g><path fill="#F7F7F7" d="M36.576 120.888c2.59 0 4.573.607 5.947 1.822 1.374 1.202 2.092 2.909 2.153 5.121l.018.364h-4.706v-.249c0-1.049-.28-1.867-.84-2.455-.547-.588-1.35-.882-2.408-.882-1.204 0-2.14.434-2.81 1.304-.656.856-.984 2.122-.984 3.797v.902c0 1.585.322 2.844.967 3.777.644.921 1.58 1.382 2.81 1.382 1.081-.001 1.902-.295 2.462-.883.571-.588.857-1.412.857-2.474v-.268h4.67v.383c-.036 2.161-.754 3.855-2.152 5.083-1.387 1.227-3.37 1.841-5.948 1.841-2.602 0-4.682-.799-6.238-2.398-1.545-1.61-2.317-3.803-2.317-6.578v-.633c0-2.8.766-4.993 2.298-6.578 1.545-1.585 3.619-2.378 6.221-2.378Z"/><path fill="#F7F7F7" fill-rule="evenodd" d="M106.117 120.888c2.7 0 4.853.825 6.459 2.474 1.617 1.649 2.426 3.81 2.426 6.482v.633c0 2.698-.809 4.872-2.426 6.521-1.606 1.637-3.759 2.455-6.459 2.455-2.699 0-4.858-.818-6.476-2.455-1.605-1.649-2.408-3.823-2.408-6.521v-.633c0-2.672.81-4.833 2.427-6.482s3.77-2.474 6.457-2.474Zm0 3.721c-1.301 0-2.292.473-2.973 1.419-.681.946-1.021 2.173-1.021 3.682v.882c0 1.522.334 2.768 1.003 3.74.681.959 1.678 1.438 2.991 1.439 1.314 0 2.311-.48 2.992-1.439.681-.972 1.022-2.218 1.022-3.74v-.882c0-1.508-.341-2.736-1.022-3.682-.681-.946-1.678-1.419-2.992-1.419ZM153.02 120.907c2.578 0 4.555.774 5.929 2.321 1.386 1.534 2.079 3.669 2.079 6.405v1.439h-11.806c.071 1.378.407 2.484 1.007 3.317.693.947 1.684 1.42 2.973 1.42.924 0 1.697-.192 2.317-.575a4.117 4.117 0 0 0 1.441-1.554l3.959 1.362c-.523 1.329-1.405 2.397-2.645 3.202-1.229.806-2.907 1.209-5.035 1.209-2.81 0-4.987-.806-6.531-2.417-1.533-1.611-2.299-3.803-2.299-6.578v-.614c0-2.71.779-4.877 2.335-6.501 1.569-1.624 3.661-2.436 6.276-2.436Zm-.037 3.606c-1.24 0-2.183.466-2.827 1.4-.466.677-.759 1.483-.882 2.416h7.084v-.134c0-.997-.267-1.86-.803-2.589-.535-.729-1.392-1.093-2.572-1.093ZM94.698 139.012h-4.634l-.018-2.551h-.019c-.498.805-1.21 1.496-2.134 2.071-.912.576-2.007.863-3.284.863-2.164 0-3.873-.837-5.126-2.512-1.252-1.688-1.879-3.817-1.879-6.387v-.613c0-2.57.639-4.693 1.915-6.367 1.29-1.675 2.986-2.513 5.09-2.513 1.29 0 2.378.224 3.266.671.9.435 1.599 1.01 2.098 1.726v-12.37h4.725v27.982Zm-8.392-14.403c-1.314 0-2.28.498-2.9 1.495-.609.998-.913 2.283-.913 3.855v.48c0 1.572.304 2.864.912 3.874.62.997 1.587 1.496 2.9 1.496.876 0 1.624-.262 2.245-.786.62-.525 1.064-1.126 1.332-1.803v-6.195a3.879 3.879 0 0 0-1.332-1.707c-.62-.473-1.369-.709-2.244-.709ZM55.22 120.946c2.433 0 4.263.479 5.491 1.438 1.24.946 1.861 2.506 1.861 4.679v7.71c0 .767.055 1.496.164 2.186.11.678.286 1.266.53 1.765v.288h-4.707a4.467 4.467 0 0 1-.474-1.151c-.11-.46-.19-.933-.238-1.419-.401.716-1.1 1.368-2.098 1.956-.985.575-2.232.863-3.74.863-1.775 0-3.168-.448-4.177-1.343-1.01-.895-1.514-2.211-1.514-3.95 0-1.739.656-3.127 1.97-4.162 1.313-1.049 3.065-1.573 5.254-1.573h4.196v-1.342c0-.946-.225-1.662-.675-2.148-.438-.486-1.156-.729-2.153-.729-.985 0-1.745.211-2.28.633-.523.422-.785 1.023-.785 1.803v.422l-4.469-.02v-.537c0-1.585.7-2.876 2.098-3.873 1.398-.998 3.314-1.496 5.746-1.496Zm-.219 10.011c-1.337 0-2.329.217-2.973.652-.633.435-.949 1.112-.949 2.033 0 .869.243 1.521.73 1.956.486.435 1.18.652 2.08.652.972 0 1.854-.358 2.645-1.074.802-.716 1.204-1.521 1.204-2.416v-1.803H55ZM171.573 120.946c2.432 0 4.262.479 5.491 1.438 1.24.946 1.861 2.506 1.861 4.679v7.71c0 .767.054 1.496.164 2.186.109.678.286 1.266.529 1.765v.288h-4.707a4.467 4.467 0 0 1-.474-1.151c-.11-.46-.189-.933-.237-1.419-.402.716-1.101 1.368-2.098 1.956-.985.575-2.232.863-3.74.863-1.776 0-3.168-.448-4.178-1.343-1.009-.895-1.514-2.211-1.514-3.95 0-1.739.657-3.127 1.971-4.162 1.313-1.049 3.064-1.573 5.253-1.573h4.196v-1.342c0-.946-.225-1.662-.675-2.148-.438-.486-1.155-.729-2.153-.729-.985 0-1.745.211-2.28.633-.523.422-.784 1.023-.784 1.803v.422l-4.47-.02v-.537c0-1.585.7-2.876 2.098-3.873 1.399-.998 3.314-1.496 5.747-1.496Zm-.219 10.011c-1.338 0-2.329.217-2.974.652-.632.435-.948 1.112-.948 2.033 0 .869.243 1.521.729 1.956.487.435 1.18.652 2.08.652.973 0 1.855-.358 2.645-1.074.803-.716 1.204-1.521 1.204-2.416v-1.803h-2.736ZM9.814 111.088c2.517 0 4.47.786 5.856 2.359 1.399 1.56 2.098 3.605 2.098 6.137 0 2.583-.73 4.692-2.19 6.329a7.05 7.05 0 0 1-2.06 1.616l5.308 11.483H13.37l-4.6-10.644H5.363v10.644H.383v-27.924h9.43Zm-4.451 13.693H8.81c1.459 0 2.48-.46 3.064-1.381.584-.92.876-2.103.876-3.548 0-1.444-.292-2.621-.876-3.529-.584-.92-1.605-1.38-3.064-1.38H5.363v9.838Z" clip-rule="evenodd"/><path fill="#F7F7F7" d="M25.412 139.012h-4.908v-17.625h4.907v17.625ZM75.47 121.061c.316 0 .632.025.948.076.316.039.535.083.657.135v3.835a3.889 3.889 0 0 0-.803-.172 6.548 6.548 0 0 0-1.04-.077c-.814 0-1.617.281-2.407.844-.779.549-1.393 1.285-1.843 2.205v11.105h-4.944v-17.625h4.835l.018 2.455h.018a6.124 6.124 0 0 1 1.879-1.995c.766-.524 1.66-.786 2.682-.786ZM142.621 114.06l-11.894 20.886h12.46v4.066h-18.808v-2.839l11.949-20.885h-11.293v-4.2h17.586v2.972ZM22.985 112.335c.888 0 1.57.255 2.043.766.475.512.712 1.158.712 1.938 0 .754-.243 1.4-.73 1.937-.486.537-1.18.805-2.08.805-.887 0-1.568-.268-2.043-.805-.474-.537-.711-1.183-.711-1.937 0-.767.243-1.407.73-1.918.486-.524 1.18-.786 2.08-.786ZM0 153.685v-.353h.824v.337c0 .782.226 1.375.679 1.779.457.404 1.089.606 1.896.606.803 0 1.42-.202 1.853-.606.438-.409.657-.94.657-1.595 0-.613-.188-1.101-.562-1.464-.37-.363-1.087-.729-2.152-1.097-1.07-.378-1.838-.79-2.305-1.235-.467-.445-.7-1.096-.7-1.955 0-.828.274-1.506.824-2.032.554-.527 1.33-.79 2.327-.79 1.002 0 1.782.283 2.341.851.565.567.847 1.291.847 2.17v.284h-.825v-.276c0-.665-.197-1.209-.59-1.634-.39-.424-.978-.636-1.766-.636-.802 0-1.393.181-1.772.544-.375.363-.562.864-.562 1.503 0 .583.185 1.046.554 1.388.375.343 1.095.698 2.16 1.066 1.065.374 1.83.806 2.297 1.296.472.491.708 1.161.708 2.01 0 .879-.302 1.595-.905 2.147-.598.547-1.41.82-2.436.82s-1.848-.273-2.466-.82C.31 155.446 0 154.676 0 153.685ZM7.761 152.994v-.214c0-1.14.282-2.061.847-2.761.564-.7 1.315-1.051 2.254-1.051.933 0 1.646.32 2.137.959.491.634.737 1.5.737 2.6v.391H8.228v-.714h4.698v-.099c0-.665-.165-1.232-.496-1.703-.326-.47-.844-.705-1.554-.705-.754 0-1.327.286-1.721.859-.39.572-.584 1.309-.584 2.208v.246c0 .899.204 1.638.613 2.216.408.573 1.016.859 1.824.859.505 0 .936-.105 1.29-.315.356-.214.638-.48.847-.797l.532.491c-.209.337-.537.646-.984.928-.448.281-1.007.421-1.678.421-1.04 0-1.843-.347-2.407-1.043-.565-.7-.847-1.625-.847-2.776ZM15.136 156.629v-7.477h.744l.022 1.128h.015c.248-.389.576-.698.984-.928a2.744 2.744 0 0 1 1.394-.353c.71 0 1.271.204 1.685.613.413.404.62 1.082.62 2.033v4.984h-.803v-4.961c0-.685-.153-1.176-.46-1.473-.3-.301-.731-.452-1.29-.452a2.06 2.06 0 0 0-1.262.406 2.635 2.635 0 0 0-.84 1.013v5.467h-.809ZM22.518 156.629v-7.477h.803v7.477h-.803Zm-.16-10.076c0-.164.048-.299.146-.407.097-.112.235-.168.415-.168s.319.056.416.168a.584.584 0 0 1 .146.407.62.62 0 0 1-.146.421c-.097.113-.236.169-.416.169s-.318-.056-.415-.169a.62.62 0 0 1-.146-.421ZM24.845 152.994v-.214c0-1.14.292-2.061.876-2.761.588-.7 1.378-1.051 2.37-1.051.997 0 1.787.351 2.371 1.051.588.7.883 1.621.883 2.761v.214c0 1.146-.297 2.068-.89 2.769-.589.7-1.377 1.05-2.364 1.05-.987 0-1.775-.35-2.363-1.05-.589-.701-.883-1.623-.883-2.769Zm.817-.23v.253c0 .885.21 1.618.628 2.201.418.578 1.018.867 1.801.867.788 0 1.389-.289 1.802-.867.418-.583.627-1.319.627-2.208v-.246c0-.889-.206-1.62-.62-2.193-.408-.578-1.011-.867-1.809-.867-.792 0-1.395.289-1.809.867-.413.573-.62 1.304-.62 2.193ZM32.818 156.629v-7.477h.744l.022 1.097h.022c.2-.353.467-.654.802-.905.34-.25.74-.376 1.197-.376.116 0 .236.011.357.031.127.02.214.043.263.069v.79a3.222 3.222 0 0 0-.307-.054 2.297 2.297 0 0 0-.386-.03c-.414 0-.79.13-1.131.391-.336.26-.593.59-.773.989v5.475h-.81ZM42.155 156.698l-2.51-11.234h.84l1.977 9.164c.029.133.053.261.072.383.025.123.05.271.073.445h.044c.024-.174.049-.322.073-.445.024-.122.051-.25.08-.383l2.174-9.164h.934l2.203 9.164c.034.133.06.261.08.383l.073.445h.044c.02-.179.039-.33.058-.452.024-.123.051-.251.08-.384l1.955-9.156h.803l-2.51 11.234h-.86l-2.218-9.248c-.03-.123-.06-.266-.095-.43a8.65 8.65 0 0 1-.087-.49H45.4a8.65 8.65 0 0 1-.087.49c-.03.159-.059.302-.088.43l-2.217 9.248h-.854ZM51.806 152.994v-.214c0-1.14.282-2.061.846-2.761.564-.7 1.315-1.051 2.254-1.051.934 0 1.646.32 2.137.959.491.634.737 1.5.737 2.6v.391h-5.507v-.714h4.697v-.099c0-.665-.165-1.232-.496-1.703-.325-.47-.843-.705-1.553-.705-.754 0-1.328.286-1.722.859-.389.572-.584 1.309-.584 2.208v.246c0 .899.205 1.638.613 2.216.409.573 1.017.859 1.824.859.506 0 .936-.105 1.291-.315.355-.214.637-.48.846-.797l.533.491c-.21.337-.538.646-.985.928-.448.281-1.007.421-1.678.421-1.04 0-1.843-.347-2.407-1.043-.564-.7-.846-1.625-.846-2.776ZM59.18 156.629v-11.434h.81v4.954c.229-.332.538-.606.927-.82.394-.22.863-.33 1.407-.33.9 0 1.61.348 2.13 1.043.52.69.781 1.587.781 2.692v.222c0 1.115-.26 2.032-.78 2.753-.52.716-1.233 1.074-2.138 1.074-.55 0-1.03-.118-1.444-.353-.409-.24-.712-.527-.912-.859h-.014l-.022 1.058h-.744Zm.81-1.963c.17.363.435.685.795.966.365.276.822.414 1.372.414.749 0 1.31-.288 1.685-.866.38-.578.569-1.317.569-2.216v-.238c0-.885-.19-1.603-.57-2.155-.374-.557-.945-.836-1.713-.836-.52 0-.966.138-1.335.414-.37.276-.637.596-.803.959v3.558ZM69.327 153.723c0-.747.217-1.383.65-1.91.432-.526 1.018-1.04 1.757-1.541l1.066-.721c.374-.256.649-.534.824-.836.175-.307.262-.675.262-1.104 0-.465-.114-.856-.343-1.173-.228-.317-.566-.476-1.013-.476-.438 0-.79.171-1.058.514-.268.343-.401.772-.401 1.288 0 .394.08.772.24 1.135.166.358.477.844.934 1.457l4.69 6.273h-.97l-4.355-5.843c-.505-.68-.855-1.232-1.05-1.657a3.304 3.304 0 0 1-.284-1.365c0-.756.211-1.367.634-1.832.428-.466.968-.698 1.62-.698.656 0 1.176.219 1.56.659.39.44.584 1.002.584 1.687 0 .573-.126 1.061-.38 1.465a3.616 3.616 0 0 1-1.028 1.043l-1.08.736c-.69.47-1.205.925-1.546 1.365-.335.44-.503.949-.503 1.526 0 .675.2 1.235.598 1.68.404.439.934.659 1.59.659.93 0 1.715-.411 2.356-1.235.642-.828.963-1.947.963-3.358h.78c0 1.523-.388 2.791-1.166 3.803-.773 1.013-1.75 1.519-2.933 1.519-.928 0-1.66-.287-2.195-.859-.535-.578-.803-1.312-.803-2.201ZM81.254 156.629v-11.165h3.005c1.06 0 1.858.301 2.393.905.54.603.81 1.39.81 2.362 0 .971-.27 1.763-.81 2.377-.535.608-1.333.912-2.393.912h-2.174v4.609h-.831Zm.831-5.368h2.16c.87 0 1.485-.243 1.845-.728.36-.486.54-1.084.54-1.795 0-.721-.18-1.319-.54-1.794-.36-.481-.975-.724-1.845-.729h-2.16v5.046ZM88.782 156.629v-7.477h.744l.022 1.097h.022c.199-.353.467-.654.802-.905.34-.25.74-.376 1.196-.376.117 0 .236.011.358.031.126.02.214.043.262.069v.79a3.222 3.222 0 0 0-.306-.054 2.297 2.297 0 0 0-.387-.03c-.413 0-.79.13-1.13.391-.336.26-.594.59-.773.989v5.475h-.81ZM92.67 152.994v-.214c0-1.14.292-2.061.875-2.761.589-.7 1.379-1.051 2.37-1.051.998 0 1.788.351 2.372 1.051.588.7.882 1.621.882 2.761v.214c0 1.146-.296 2.068-.89 2.769-.588.7-1.376 1.05-2.363 1.05-.987 0-1.775-.35-2.364-1.05-.588-.701-.882-1.623-.882-2.769Zm.817-.23v.253c0 .885.209 1.618.627 2.201.418.578 1.019.867 1.802.867.788 0 1.388-.289 1.802-.867.418-.583.627-1.319.627-2.208v-.246c0-.889-.207-1.62-.62-2.193-.409-.578-1.012-.867-1.81-.867-.792 0-1.395.289-1.808.867-.413.573-.62 1.304-.62 2.193ZM100.183 152.987v-.223c0-1.104.265-2.006.795-2.707.53-.705 1.243-1.058 2.138-1.058.549 0 1.018.105 1.407.314.389.21.691.476.905.798v-4.916h.802v11.434h-.744l-.022-1.104h-.014c-.2.332-.501.624-.905.874-.403.246-.877.368-1.422.368-.905 0-1.622-.352-2.152-1.058-.525-.711-.788-1.618-.788-2.722Zm.817.007c0 .89.19 1.618.569 2.186.384.567.961.851 1.729.851.525 0 .97-.14 1.335-.422.365-.286.63-.611.795-.974v-3.55c-.165-.358-.433-.672-.802-.943-.37-.271-.815-.407-1.335-.407-.769 0-1.343.284-1.722.851-.379.563-.569 1.286-.569 2.171v.237ZM108.127 154.137v-4.985h.802v4.993c0 .685.151 1.173.453 1.464.301.287.729.43 1.283.43.482 0 .903-.136 1.262-.407.365-.271.65-.608.854-1.012v-5.468h.81v7.477h-.745l-.029-1.142h-.014a2.863 2.863 0 0 1-.992.943 2.732 2.732 0 0 1-1.386.353c-.71 0-1.272-.202-1.685-.606-.409-.409-.613-1.089-.613-2.04ZM115.064 152.994v-.214c0-1.166.28-2.091.839-2.776.559-.691 1.325-1.036 2.298-1.036.929 0 1.626.258 2.093.775.467.511.7 1.13.7 1.856v.092h-.795v-.092c0-.547-.163-1-.488-1.358-.321-.358-.822-.537-1.503-.537-.764 0-1.342.279-1.736.836-.394.553-.591 1.294-.591 2.224v.253c0 .905.197 1.644.591 2.217.394.567.972.851 1.736.851.681 0 1.187-.179 1.517-.537.331-.363.496-.826.496-1.388v-.092h.788v.092c0 .726-.238 1.35-.715 1.871-.471.522-1.167.782-2.086.782-.977 0-1.746-.345-2.305-1.035-.559-.69-.839-1.618-.839-2.784ZM121.454 149.866v-.714h3.932v.714h-3.932Zm1.32 4.8v-7.929h.803v7.96c0 .526.085.887.255 1.081.17.189.421.284.751.284a1.88 1.88 0 0 0 .744-.146v.736a1.804 1.804 0 0 1-.386.108 2.548 2.548 0 0 1-.54.053c-.496 0-.892-.158-1.189-.475-.292-.322-.438-.879-.438-1.672ZM129.733 156.629v-11.165h2.648c1.318 0 2.373.478 3.166 1.434.793.951 1.189 2.242 1.189 3.872v.553c0 1.661-.401 2.962-1.203 3.903-.798.936-1.848 1.403-3.152 1.403h-2.648Zm.832-.751h1.816c1.07 0 1.924-.399 2.561-1.197.637-.797.955-1.917.955-3.358v-.545c0-1.421-.316-2.536-.948-3.343-.632-.808-1.488-1.215-2.568-1.22h-1.816v9.663ZM137.983 152.994v-.214c0-1.14.283-2.061.847-2.761.564-.7 1.315-1.051 2.254-1.051.933 0 1.646.32 2.137.959.491.634.737 1.5.737 2.6v.391h-5.508v-.714h4.698v-.099c0-.665-.165-1.232-.496-1.703-.326-.47-.844-.705-1.554-.705-.754 0-1.327.286-1.721.859-.389.572-.584 1.309-.584 2.208v.246c0 .899.204 1.638.613 2.216.408.573 1.016.859 1.824.859.505 0 .936-.105 1.291-.315.355-.214.637-.48.846-.797l.532.491c-.209.337-.537.646-.984.928-.448.281-1.007.421-1.678.421-1.041 0-1.843-.347-2.407-1.043-.564-.7-.847-1.625-.847-2.776ZM145.001 154.375h.802v.115c0 .552.17.956.511 1.211.345.256.814.384 1.408.384.603 0 1.067-.123 1.393-.368.326-.246.489-.588.489-1.028 0-.429-.144-.746-.431-.951-.282-.209-.819-.419-1.612-.629-.792-.209-1.383-.473-1.772-.789-.389-.323-.584-.775-.584-1.358 0-.598.224-1.079.671-1.442.452-.368 1.063-.552 1.831-.552s1.384.192 1.846.575c.462.379.693.918.693 1.619v.099h-.796v-.099c0-.496-.15-.864-.452-1.105-.296-.24-.727-.36-1.291-.36-.559 0-.982.107-1.269.322-.287.215-.431.516-.431.905a.99.99 0 0 0 .416.843c.277.205.803.409 1.576.614.783.215 1.379.486 1.787.813.413.327.62.805.62 1.434 0 .649-.221 1.176-.664 1.58-.442.403-1.113.605-2.013.605-.895 0-1.573-.204-2.035-.613-.462-.409-.693-.979-.693-1.71v-.115ZM152.011 156.629v-7.477h.802v7.477h-.802Zm-.161-10.076c0-.164.049-.299.146-.407.098-.112.236-.168.416-.168s.319.056.416.168a.586.586 0 0 1 .146.407.622.622 0 0 1-.146.421c-.097.113-.236.169-.416.169s-.318-.056-.416-.169a.622.622 0 0 1-.146-.421ZM154.644 158.999l.46-.667c.228.23.535.429.919.598.389.169.829.253 1.32.253.671 0 1.211-.228 1.62-.683.408-.455.615-1.145.62-2.07v-.836c-.224.332-.53.611-.92.836-.389.22-.858.33-1.407.33-.9 0-1.612-.351-2.138-1.051-.52-.7-.78-1.608-.78-2.722v-.223c0-1.104.26-2.006.78-2.707.521-.705 1.238-1.058 2.152-1.058.53 0 1 .118 1.408.353.413.235.722.519.926.851h.015l.022-1.051h.744v7.278c0 1.15-.277 2.022-.832 2.615-.549.598-1.288.897-2.217.897-.559 0-1.07-.089-1.532-.268a4.012 4.012 0 0 1-1.16-.675Zm.511-6.005c0 .9.189 1.631.569 2.194.384.557.96.835 1.729.835.525 0 .97-.14 1.334-.421.365-.281.63-.604.796-.967v-3.519a2.493 2.493 0 0 0-.803-.959c-.369-.281-.814-.422-1.335-.422-.768 0-1.342.284-1.721.851-.38.563-.569 1.286-.569 2.171v.237ZM162.34 156.629v-7.477h.744l.022 1.128h.014a2.75 2.75 0 0 1 .985-.928 2.745 2.745 0 0 1 1.393-.353c.71 0 1.272.204 1.686.613.413.404.62 1.082.62 2.033v4.984h-.803v-4.961c0-.685-.153-1.176-.459-1.473-.302-.301-.732-.452-1.292-.452a2.06 2.06 0 0 0-1.262.406 2.635 2.635 0 0 0-.838 1.013v5.467h-.81ZM169.219 152.994v-.214c0-1.14.282-2.061.846-2.761.564-.7 1.315-1.051 2.254-1.051.934 0 1.646.32 2.137.959.491.634.737 1.5.737 2.6v.391h-5.507v-.714h4.697v-.099c0-.665-.165-1.232-.496-1.703-.326-.47-.844-.705-1.554-.705-.753 0-1.327.286-1.721.859-.389.572-.584 1.309-.584 2.208v.246c0 .899.205 1.638.613 2.216.409.573 1.016.859 1.824.859.506 0 .936-.105 1.291-.315.355-.214.637-.48.846-.797l.533.491c-.21.337-.538.646-.985.928-.448.281-1.007.421-1.678.421-1.041 0-1.843-.347-2.407-1.043-.564-.7-.846-1.625-.846-2.776ZM176.593 156.629v-7.477h.745l.021 1.097h.022c.2-.353.467-.654.803-.905.34-.25.739-.376 1.196-.376.117 0 .236.011.357.031.127.02.214.043.263.069v.79a3.276 3.276 0 0 0-.306-.054 2.304 2.304 0 0 0-.387-.03c-.413 0-.79.13-1.131.391-.335.26-.593.59-.773.989v5.475h-.81Z"/><defs><filter id="a" width="66.088" height="104.574" x="55.54" y="5.312" color-interpolation-filters="sRGB" filterUnits="userSpaceOnUse"><feFlood flood-opacity="0" result="BackgroundImageFix"/><feColorMatrix in="SourceAlpha" result="hardAlpha" values="0 0 0 0 0 0 0 0 0 0 0 0 0 0 0 0 0 0 127 0"/><feOffset dy="2"/><feGaussianBlur stdDeviation="1.3"/><feComposite in2="hardAlpha" operator="out"/><feColorMatrix values="0 0 0 0 0 0 0 0 0 0 0 0 0 0 0 0 0 0 0.5 0"/><feBlend in2="BackgroundImageFix" result="effect1_dropShadow_881_4773"/><feBlend in="SourceGraphic" in2="effect1_dropShadow_881_4773" result="shape"/></filter></defs></svg>