<svg xmlns="http://www.w3.org/2000/svg" width="32" height="33" fill="none"><path fill="#fff" d="M27.992 14.403a6.975 6.975 0 0 0-.599-5.73 7.055 7.055 0 0 0-7.599-3.385 6.978 6.978 0 0 0-5.261-2.345 7.056 7.056 0 0 0-6.73 4.884 6.979 6.979 0 0 0-4.665 3.384 7.057 7.057 0 0 0 .868 8.272 6.975 6.975 0 0 0 .6 5.73 7.055 7.055 0 0 0 7.598 3.384 6.973 6.973 0 0 0 5.262 2.345 7.056 7.056 0 0 0 6.732-4.888 6.979 6.979 0 0 0 4.665-3.383 7.057 7.057 0 0 0-.87-8.27v.002Zm-10.524 14.71a5.23 5.23 0 0 1-3.36-1.215 3.37 3.37 0 0 0 .166-.094l5.576-3.22a.907.907 0 0 0 .458-.793v-7.86l2.357 1.36a.082.082 0 0 1 .045.065v6.51a5.254 5.254 0 0 1-5.242 5.247ZM6.194 24.297a5.225 5.225 0 0 1-.626-3.515c.042.024.114.069.166.098l5.575 3.22a.908.908 0 0 0 .917 0l6.806-3.93v2.721a.087.087 0 0 1-.033.073l-5.636 3.254a5.254 5.254 0 0 1-7.168-1.92h-.001Zm-1.467-12.17a5.23 5.23 0 0 1 2.73-2.3l-.002.192v6.44a.907.907 0 0 0 .458.794l6.806 3.93-2.356 1.36a.083.083 0 0 1-.08.007l-5.637-3.257a5.254 5.254 0 0 1-1.92-7.165v-.001Zm19.36 4.505-6.806-3.93 2.356-1.36a.083.083 0 0 1 .08-.007l5.636 3.254a5.249 5.249 0 0 1-.81 9.47v-6.634a.906.906 0 0 0-.455-.793Zm2.345-3.53a7.258 7.258 0 0 0-.165-.098l-5.576-3.22a.908.908 0 0 0-.916 0l-6.807 3.93v-2.721a.087.087 0 0 1 .034-.073l5.636-3.252a5.247 5.247 0 0 1 7.793 5.434h.001Zm-14.745 4.85-2.357-1.36a.082.082 0 0 1-.045-.065v-6.51a5.248 5.248 0 0 1 8.605-4.03 3.896 3.896 0 0 0-.165.094l-5.576 3.22a.905.905 0 0 0-.458.793l-.004 7.857v.002Zm1.28-2.76L16 13.443l3.032 1.75v3.5L16 20.443l-3.033-1.75v-3.5Z"/></svg>