<svg xmlns="http://www.w3.org/2000/svg" width="32" height="33" fill="none"><path fill="#fff" fill-rule="evenodd" d="M31.707 7.639h-.304a2.9 2.9 0 0 0-2.908 2.897v6.48a2.357 2.357 0 0 1-2.346 2.342c-.758 0-1.514-.38-1.962-1.02l-6.63-9.451a2.938 2.938 0 0 0-2.414-1.253c-1.511 0-2.871 1.283-2.871 2.866v6.517a2.352 2.352 0 0 1-2.346 2.343 2.43 2.43 0 0 1-1.964-1.02L.544 7.764C.376 7.525 0 7.643 0 7.934v5.652c0 .286.087.563.251.797l7.3 10.408c.431.616 1.067 1.072 1.801 1.238 1.836.417 3.526-.994 3.526-2.792v-6.514a2.344 2.344 0 0 1 2.346-2.342h.004c.781 0 1.514.38 1.963 1.02l6.63 9.45a2.876 2.876 0 0 0 2.412 1.253c1.545 0 2.868-1.284 2.868-2.866v-6.516a2.344 2.344 0 0 1 2.347-2.343h.258a.293.293 0 0 0 .294-.293V7.931a.293.293 0 0 0-.294-.293h.002Z" clip-rule="evenodd"/></svg>