<svg width="2980" height="2000" viewBox="0 0 2980 2000" fill="none" xmlns="http://www.w3.org/2000/svg">
<path d="M136 392.961V1313.29C136 1325.51 146.869 1334.87 158.958 1333.07L337.042 1306.43C349.131 1304.63 360 1313.99 360 1326.21V1556.76C360 1566.23 353.37 1574.39 344.11 1576.34L122.532 1622.87C115.229 1624.4 110 1630.84 110 1638.31C110 1645.94 115.471 1652.48 122.987 1653.83L450.986 1712.69C453.957 1713.22 457.01 1713.08 459.916 1712.26L757.171 1628.96C764.461 1626.91 769.5 1620.27 769.5 1612.7C769.5 1604.27 763.29 1597.13 754.945 1595.97L496.238 1559.9C486.355 1558.53 479 1550.07 479 1540.09V1297.63C479 1287.77 486.182 1279.38 495.922 1277.86L905.078 1214.14C914.818 1212.62 922 1204.23 922 1194.37V512.549C922 502.726 914.865 494.356 905.166 492.801L159.166 373.214C147.012 371.265 136 380.653 136 392.961Z" stroke="white" stroke-width="2"/>
<path d="M935.104 468.757L942.399 1225.57C942.454 1231.26 947.236 1235.75 952.916 1235.46L1317.98 1216.54C1323.7 1216.25 1328.5 1220.81 1328.5 1226.53V1354.02C1328.5 1356.87 1327.28 1359.59 1325.15 1361.48L1308.85 1376.02C1306.72 1377.91 1305.5 1380.63 1305.5 1383.48V1398.76C1305.5 1402.31 1303.62 1405.59 1300.54 1407.36C1270.17 1424.76 1146.15 1494.8 1092.42 1530.07C1089.63 1531.9 1088 1535 1088 1538.34V1542.96C1088 1549.69 1094.51 1554.5 1100.94 1552.52L1120.5 1546.5C1219.5 1506 1339.17 1454.33 1392 1433C1405.83 1429 1441.5 1422.4 1473.5 1428C1510.95 1434.55 1791.66 1463.46 1829.34 1468.76C1832.03 1469.14 1835.03 1469.3 1837.72 1468.95L1874.75 1464.08C1880.27 1463.35 1880.65 1455.58 1875.22 1454.36C1724.09 1420.37 1563.09 1394.41 1488 1383.5C1484.78 1383.03 1486.72 1374.92 1485.26 1371.49C1484.64 1370.02 1482.82 1369.53 1481.5 1368.62L1466.82 1358.48C1464.11 1356.61 1462.5 1353.54 1462.5 1350.25V1289.65C1462.5 1285.88 1464.63 1282.44 1468 1280.75C1471.37 1279.06 1473.5 1275.62 1473.5 1271.85V1225.5C1473.5 1220.18 1477.67 1215.79 1482.99 1215.52L2014.01 1188.48C2019.33 1188.21 2023.5 1183.82 2023.5 1178.5V536.386C2023.5 531.109 2019.4 526.74 2014.13 526.406L945.736 458.681C939.938 458.313 935.048 462.947 935.104 468.757Z" stroke="white" stroke-width="2"/>
<path d="M2898 535H2048.5C2042.98 535 2038.5 539.477 2038.5 545V1152C2038.5 1157.52 2042.98 1162 2048.5 1162H2401.5C2407.02 1162 2411.5 1166.48 2411.5 1172V1378.38C2411.5 1383.75 2407.25 1388.16 2401.88 1388.37L2237.57 1394.67C2232.79 1394.85 2229 1398.79 2229 1403.58C2229 1406.91 2230.86 1409.96 2233.82 1411.49L2326.22 1459.32C2327.72 1460.09 2329.38 1460.48 2331.07 1460.44L2695.25 1451.25C2700.68 1451.11 2705 1446.67 2705 1441.25V1436.31C2705 1432.2 2702.49 1428.51 2698.66 1427.01L2601.26 1388.69C2600.1 1388.24 2598.86 1388 2597.6 1388H2506C2500.48 1388 2496 1383.52 2496 1378V1172C2496 1166.48 2500.48 1162 2506 1162H2898C2903.52 1162 2908 1157.52 2908 1152V545C2908 539.477 2903.52 535 2898 535Z" stroke="white" stroke-width="2"/>
<path d="M1565.73 393.34L1468.23 387.313C1456.72 386.601 1447 395.743 1447 407.275V437.992C1447 448.643 1455.35 457.425 1465.98 457.966L1563.48 462.93C1574.91 463.512 1584.5 454.401 1584.5 442.956V413.302C1584.5 402.735 1576.28 393.992 1565.73 393.34Z" stroke="white" stroke-width="2"/>
<path d="M1966.31 1458.49C1967.84 1458.18 1969.43 1458.61 1970.61 1459.65L1977.31 1465.58C1978.18 1466.35 1978.69 1467.31 1978.89 1468.32L1982.13 1467.92C1984.31 1467.65 1986.53 1468.11 1988.43 1469.23L2010.65 1482.32C2012.5 1483.41 2014.65 1483.88 2016.79 1483.65L2052.71 1479.8C2054.53 1479.6 2056.38 1479.91 2058.04 1480.7L2193.12 1544.38C2194.68 1545.11 2196.02 1546.24 2197.02 1547.65L2208.84 1564.36C2209.61 1565.44 2210.58 1566.36 2211.7 1567.07L2293.3 1618.06C2296.22 1619.89 2298 1623.1 2298 1626.54V1630.01C2298 1634.91 2294.45 1639.08 2289.62 1639.88L1425.76 1781.55C1423.96 1781.84 1422.1 1781.64 1420.4 1780.95L1172.63 1681.06C1170.91 1680.37 1169.42 1679.21 1168.32 1677.72L1143.65 1644.27C1141.68 1641.6 1141.17 1638.12 1142.28 1635L1154.63 1600.19C1156.05 1596.18 1154.78 1591.72 1151.47 1589.05L1149.93 1587.82C1143.04 1582.28 1146.2 1571.18 1154.97 1570.1L1195.53 1565.09L1194.91 1561.72C1194.65 1560.31 1195.01 1558.85 1195.9 1557.72L1198.72 1554.12C1199.54 1553.08 1200.74 1552.41 1202.05 1552.25L1226.92 1549.19C1227.95 1549.07 1228.99 1549.27 1229.9 1549.76L1241.04 1555.77C1242.48 1556.55 1243.3 1557.81 1243.57 1559.16L1281.23 1554.5L1281.16 1553.93C1281.06 1553 1281.21 1552.05 1281.62 1551.21L1283.28 1547.75C1283.96 1546.33 1285.26 1545.32 1286.8 1545.01L1299.31 1542.49C1300.84 1542.18 1302.43 1542.61 1303.61 1543.65L1310.31 1549.58C1310.72 1549.94 1311.05 1550.35 1311.31 1550.79L1313.23 1550.55L1313.16 1549.93C1313.06 1549 1313.21 1548.05 1313.62 1547.21L1315.28 1543.75C1315.96 1542.33 1317.26 1541.32 1318.8 1541.01L1331.31 1538.49C1332.84 1538.18 1334.43 1538.61 1335.61 1539.65L1342.31 1545.58C1342.73 1545.95 1343.07 1546.38 1343.33 1546.83L1345.24 1546.6L1345.16 1545.93C1345.06 1545 1345.21 1544.05 1345.62 1543.21L1347.28 1539.75C1347.96 1538.33 1349.26 1537.32 1350.8 1537.01L1363.31 1534.49C1364.84 1534.18 1366.43 1534.61 1367.61 1535.65L1374.31 1541.58C1374.75 1541.97 1375.09 1542.41 1375.36 1542.87L1377.24 1542.64L1377.16 1541.93C1377.06 1541 1377.21 1540.05 1377.62 1539.21L1379.28 1535.75C1379.96 1534.33 1381.26 1533.32 1382.8 1533.01L1395.31 1530.49C1396.84 1530.18 1398.43 1530.61 1399.61 1531.65L1406.31 1537.58C1406.76 1537.98 1407.12 1538.43 1407.39 1538.92L1442.24 1534.61L1442.16 1533.93C1442.06 1533 1442.21 1532.05 1442.62 1531.21L1444.28 1527.75C1444.96 1526.33 1446.26 1525.32 1447.8 1525.01L1460.31 1522.49C1461.84 1522.18 1463.43 1522.61 1464.61 1523.65L1471.31 1529.58C1471.75 1529.97 1472.1 1530.42 1472.37 1530.89L1476.22 1530.42L1476.16 1529.93C1476.06 1529 1476.21 1528.05 1476.62 1527.21L1478.28 1523.75C1478.96 1522.33 1480.26 1521.32 1481.8 1521.01L1494.31 1518.49C1495.84 1518.18 1497.43 1518.61 1498.61 1519.65L1505.31 1525.58C1505.69 1525.92 1506.01 1526.3 1506.26 1526.7L1510.19 1526.22L1510.16 1525.93C1510.06 1525 1510.21 1524.05 1510.62 1523.21L1512.28 1519.75C1512.96 1518.33 1514.26 1517.32 1515.8 1517.01L1528.31 1514.49C1529.84 1514.18 1531.43 1514.61 1532.61 1515.65L1539.31 1521.58C1539.63 1521.87 1539.91 1522.18 1540.14 1522.52L1544.17 1522.02L1544.16 1521.93C1544.06 1521 1544.21 1520.05 1544.62 1519.21L1546.28 1515.75C1546.96 1514.33 1548.26 1513.32 1549.8 1513.01L1562.31 1510.49C1563.84 1510.18 1565.43 1510.61 1566.61 1511.65L1573.31 1517.58C1573.57 1517.81 1573.81 1518.07 1574.01 1518.33L1578.15 1517.82C1578.07 1516.92 1578.23 1516.02 1578.62 1515.21L1580.28 1511.75C1580.96 1510.33 1582.26 1509.32 1583.8 1509.01L1596.31 1506.49C1597.84 1506.18 1599.43 1506.61 1600.61 1507.65L1607.31 1513.58C1607.51 1513.76 1607.7 1513.95 1607.86 1514.15L1612.14 1513.62C1612.09 1512.79 1612.26 1511.96 1612.62 1511.21L1614.28 1507.75C1614.96 1506.33 1616.26 1505.32 1617.8 1505.01L1630.31 1502.49C1631.84 1502.18 1633.43 1502.61 1634.61 1503.65L1641.31 1509.58C1641.45 1509.7 1641.58 1509.84 1641.7 1509.97L1646.13 1509.42C1646.12 1508.66 1646.29 1507.9 1646.62 1507.21L1648.28 1503.75C1648.96 1502.33 1650.26 1501.32 1651.8 1501.01L1664.31 1498.49C1665.84 1498.18 1667.43 1498.61 1668.61 1499.65L1675.31 1505.58C1675.39 1505.65 1675.46 1505.72 1675.53 1505.79L1676.14 1505.72C1676.08 1504.85 1676.25 1503.99 1676.62 1503.21L1678.28 1499.75C1678.96 1498.33 1680.26 1497.32 1681.8 1497.01L1694.31 1494.49C1695.84 1494.18 1697.43 1494.61 1698.61 1495.65L1705.31 1501.58C1705.48 1501.73 1705.64 1501.89 1705.78 1502.06L1706.17 1502.01L1706.16 1501.93C1706.06 1501 1706.21 1500.05 1706.62 1499.21L1708.28 1495.75C1708.96 1494.33 1710.26 1493.32 1711.8 1493.01L1724.31 1490.49C1725.84 1490.18 1727.43 1490.61 1728.61 1491.65L1735.31 1497.58C1735.57 1497.81 1735.8 1498.06 1736 1498.32L1736.2 1498.3L1736.16 1497.93C1736.06 1497 1736.21 1496.05 1736.62 1495.21L1738.28 1491.75C1738.96 1490.33 1740.26 1489.32 1741.8 1489.01L1754.31 1486.49C1755.84 1486.18 1757.43 1486.61 1758.61 1487.65L1765.31 1493.58C1765.66 1493.89 1765.95 1494.23 1766.19 1494.59L1766.23 1494.59L1766.16 1493.93C1766.06 1493 1766.21 1492.05 1766.62 1491.21L1768.28 1487.75C1768.96 1486.33 1770.26 1485.32 1771.8 1485.01L1784.31 1482.49C1785.84 1482.18 1787.43 1482.61 1788.61 1483.65L1795.31 1489.58C1795.69 1489.91 1796 1490.29 1796.25 1490.68L1796.16 1489.93C1796.06 1489 1796.21 1488.05 1796.62 1487.21L1798.28 1483.75C1798.96 1482.33 1800.26 1481.32 1801.8 1481.01L1814.31 1478.49C1815.84 1478.18 1817.43 1478.61 1818.61 1479.65L1825.31 1485.58C1825.83 1486.04 1826.22 1486.57 1826.5 1487.14L1828.27 1486.92L1828.16 1485.93C1828.06 1485 1828.21 1484.05 1828.62 1483.21L1830.28 1479.75C1830.96 1478.33 1832.26 1477.32 1833.8 1477.01L1846.31 1474.49C1847.84 1474.18 1849.43 1474.61 1850.61 1475.65L1857.31 1481.58C1857.69 1481.91 1858 1482.29 1858.25 1482.68L1858.16 1481.93C1858.06 1481 1858.21 1480.05 1858.62 1479.21L1860.28 1475.75C1860.96 1474.33 1862.26 1473.32 1863.8 1473.01L1876.31 1470.49C1877.84 1470.18 1879.43 1470.61 1880.61 1471.65L1887.31 1477.58C1887.69 1477.91 1888 1478.29 1888.25 1478.68L1888.16 1477.93C1888.06 1477 1888.21 1476.05 1888.62 1475.21L1890.28 1471.75C1890.96 1470.33 1892.26 1469.32 1893.8 1469.01L1906.31 1466.49C1907.84 1466.18 1909.43 1466.61 1910.61 1467.65L1917.31 1473.58C1917.69 1473.91 1918 1474.29 1918.25 1474.68L1918.16 1473.93C1918.06 1472.99 1918.21 1472.05 1918.62 1471.2L1920.28 1467.75C1920.96 1466.33 1922.26 1465.32 1923.8 1465.01L1936.31 1462.49C1937.84 1462.18 1939.43 1462.61 1940.61 1463.65L1947.31 1469.58C1947.69 1469.91 1948 1470.29 1948.25 1470.68L1948.16 1469.93C1948.06 1468.99 1948.21 1468.05 1948.62 1467.2L1950.28 1463.75C1950.96 1462.33 1952.26 1461.32 1953.8 1461.01L1966.31 1458.49Z" stroke="white" stroke-width="2"/>
<path d="M2495.5 1624.5C2439.12 1628.75 2350.56 1597.92 2309.26 1580.34C2306.54 1579.18 2304.52 1576.87 2303.68 1574.04L2289.12 1524.69C2287.86 1520.43 2289.68 1515.76 2293.47 1513.43C2475.85 1401.38 2576.8 1564.45 2585.5 1578.49L2585.5 1578.5C2592 1589 2593.5 1606.5 2585.5 1610.5C2579.83 1613.33 2553.9 1620.1 2495.5 1624.5Z" stroke="white" stroke-width="2"/>
<path d="M1137.5 1576L849.28 1611.42C844.267 1612.04 840.5 1616.3 840.5 1621.35V1625.41C840.5 1629.15 842.495 1632.53 845.822 1634.24C895.289 1659.75 1273.31 1854.62 1292 1863.5C1312 1873 1340 1873 1389 1863.5L2808.73 1630.19C2812.92 1629.51 2816 1625.88 2816 1621.63C2816 1617.49 2813.07 1613.92 2809 1613.12L2586.5 1568.5M2293.5 1504L2136.5 1474.5C2116.83 1471 2064 1465.8 2010 1473" stroke="white" stroke-width="2" stroke-linecap="round"/>
</svg>
