<svg xmlns="http://www.w3.org/2000/svg" width="592" height="33" fill="none"><path fill="#E44D26" d="m6 28.942-2-25h24l-2 25-10 3-10-3Z"/><path fill="#F16529" d="M26 5.942H16v24.5l8-2.5 2-22Z"/><path fill="#fff" d="m9.5 18.442-1-9.5H24l-.5 3h-12l.5 3.5h11l-1 9.5-6 2-6-2-.5-5h3l.5 2.5 3 1 3-1 .5-4h-10Z"/><path fill="#1172B8" d="m46 28.942-2-25h24l-2 25-10 3-10-3Z"/><path fill="#3AD" d="M66 5.942H56v24.5l8-2.5 2-22Z"/><path fill="#fff" d="M59.5 18.442h-10l-.5-3.5 8-2.5h-8l-.5-3H64l-.5 3.5-6.5 2.5h6l-1 9.5-6 2-6-2-.5-5h3l.5 2.5 3 1 3-1 .5-4Z"/><path fill="#38BDF8" fill-rule="evenodd" d="M96 8.542c-3.733 0-6.067 1.867-7 5.6 1.4-1.866 3.033-2.566 4.9-2.1 1.065.267 1.826 1.04 2.669 1.895 1.372 1.393 2.961 3.005 6.431 3.005 3.733 0 6.067-1.866 7-5.6-1.4 1.867-3.033 2.567-4.9 2.1-1.065-.265-1.826-1.039-2.669-1.894-1.372-1.393-2.961-3.006-6.431-3.006Zm-7 8.4c-3.733 0-6.067 1.867-7 5.6 1.4-1.866 3.033-2.566 4.9-2.1 1.065.267 1.826 1.04 2.669 1.895C90.94 23.73 92.53 25.343 96 25.343c3.733 0 6.067-1.867 7-5.6-1.4 1.866-3.033 2.566-4.9 2.1-1.065-.267-1.826-1.04-2.669-1.895-1.372-1.393-2.961-3.006-6.431-3.006Z" clip-rule="evenodd"/><path fill="#F7DF1E" d="M122 2.942h28v28h-28z"/><path fill="#000" d="m139 26.23 2.062-1.364c.161.508 1.184 1.713 2.476 1.713 1.293 0 1.893-.706 1.893-1.174 0-1.275-1.32-1.724-1.954-1.94-.103-.035-.188-.064-.246-.09a3.738 3.738 0 0 0-.133-.052c-.705-.27-3.306-1.263-3.306-4.143 0-3.173 3.062-3.537 3.754-3.537.453 0 2.631.055 3.716 2.093l-2 1.396c-.439-.888-1.167-1.181-1.616-1.181-1.108 0-1.338.811-1.338 1.181 0 1.037 1.203 1.502 2.219 1.895.266.102.519.2.735.302 1.107.523 2.738 1.38 2.738 4.076 0 1.351-1.133 3.538-3.985 3.538-3.83 0-4.846-2.3-5.015-2.713ZM129 26.501l2.149-1.363c.168.507.822 1.442 1.772 1.442.949 0 1.435-.975 1.435-1.442v-9.195h2.642v9.195c.043 1.268-.66 3.805-3.765 3.805-2.854 0-4.041-1.697-4.233-2.442Z"/><path fill="#8CC84B" d="M177.172 3.241a2.45 2.45 0 0 0-2.345 0c-3.558 1.964-7.116 3.928-10.675 5.89-.692.365-1.159 1.108-1.152 1.88v11.864c-.005.787.486 1.538 1.197 1.897 1.022.544 2.015 1.143 3.055 1.65 1.203.591 2.706.722 3.923.106.988-.51 1.427-1.646 1.425-2.69.008-3.915.002-7.83.003-11.746.024-.174-.107-.36-.297-.356-.454-.007-.91-.004-1.364-.001-.172-.016-.34.127-.327.3-.006 3.89.001 7.78-.003 11.672a1.32 1.32 0 0 1-.873 1.237c-1.198.42-4.617-1.8-4.617-1.8a.337.337 0 0 1-.193-.33V11.072a.362.362 0 0 1 .225-.364c3.546-1.952 7.091-3.91 10.637-5.862a.384.384 0 0 1 .418 0c3.546 1.953 7.091 3.908 10.638 5.86a.365.365 0 0 1 .224.366c-.001 3.914.001 7.828-.001 11.742a.338.338 0 0 1-.191.333c-3.513 1.942-7.066 3.82-10.548 5.818-.151.087-.323.186-.494.09-.915-.506-1.82-1.032-2.732-1.544-.099-.062-.226-.088-.329-.02-.409.216-.794.391-1.264.577-.66.261-.554.368.041.715 1.067.604 2.136 1.205 3.203 1.81a2.38 2.38 0 0 0 2.371.064c3.559-1.96 7.117-3.924 10.676-5.885.708-.362 1.202-1.11 1.197-1.897V11.011c.007-.756-.442-1.486-1.114-1.856-3.57-1.973-7.143-3.942-10.714-5.914Z"/><path fill="#8CC84B" d="M182.542 12.149c-1.397-.748-3.058-.787-4.61-.69-1.122.111-2.301.42-3.118 1.224-.838.808-1.02 2.113-.622 3.168.285.745 1.003 1.23 1.745 1.486.957.338 1.961.442 2.966.547.916.095 1.833.19 2.714.463.359.119.778.301.889.693.101.463-.01 1.002-.387 1.324-1.195.947-4.521.802-5.702.057-.478-.317-.684-.88-.768-1.415-.009-.166-.143-.32-.324-.307a68.606 68.606 0 0 0-1.361 0c-.158-.014-.322.1-.331.26-.093 2.452 2.158 3.521 4.271 3.756 1.207.115 2.44.109 3.629-.15.893-.204 1.789-.578 2.404-1.266.758-.837.907-2.082.567-3.123-.26-.778-1.003-1.276-1.762-1.533-1.033-.354-2.258-.544-3.193-.634-1.36-.129-2.976-.076-3.361-.97-.153-.468-.023-1.049.407-1.336 1.138-.772 3.453-.67 4.632-.093.541.27.854.827.983 1.389.024.165.135.337.326.33.451.009.901.002 1.352.003.154.01.324-.077.354-.235-.019-1.174-.619-2.376-1.7-2.948Z"/><mask id="a" width="28" height="29" x="202" y="2" maskUnits="userSpaceOnUse" style="mask-type:alpha"><path fill="#000" d="M216 30.942c7.732 0 14-6.268 14-14s-6.268-14-14-14-14 6.268-14 14 6.268 14 14 14Z"/></mask><g mask="url(#a)"><path fill="#000" d="M216 30.942c7.732 0 14-6.268 14-14s-6.268-14-14-14-14 6.268-14 14 6.268 14 14 14Z"/><path fill="url(#b)" d="m225.257 27.445-12.502-16.103H210.4v11.196h1.884v-8.803l11.494 14.85a14.16 14.16 0 0 0 1.479-1.14Z"/><path fill="url(#c)" d="M221.756 11.342h-1.867v11.2h1.867v-11.2Z"/></g><g fill="#fff" clip-path="url(#d)"><path d="M245.533 22.942H240l4.746-9.276c.856-1.674 2.55-2.724 4.397-2.724h2.842l-6.452 12ZM252.324 22.942h-5.746l6.452-12h5.747l-6.453 12ZM260.692 20.22c-.856 1.673-2.55 2.722-4.397 2.722h-2.842l6.452-12h5.533l-4.746 9.277ZM268.865 10.942c1.732 0 3.135 1.436 3.135 3.208 0 1.77-1.403 3.207-3.135 3.207-1.731 0-3.134-1.436-3.134-3.207 0-1.772 1.403-3.208 3.134-3.208Z"/></g><path fill="#53C1DE" d="M298.679 16.918c0-1.434-1.199-2.597-2.679-2.597-1.479 0-2.679 1.163-2.679 2.597 0 1.435 1.2 2.598 2.679 2.598 1.48 0 2.679-1.163 2.679-2.598Z"/><path fill="#53C1DE" fill-rule="evenodd" d="M304.7 12.096c.566-2.229 1.277-6.362-1.23-7.763-2.495-1.396-5.742 1.278-7.456 2.883-1.71-1.59-5.048-4.251-7.552-2.845-2.494 1.4-1.725 5.464-1.147 7.707-2.327.64-6.315 2.02-6.315 4.84 0 2.812 3.984 4.313 6.297 4.953-.58 2.256-1.311 6.262 1.186 7.659 2.514 1.406 5.842-1.193 7.572-2.815 1.726 1.614 4.942 4.23 7.437 2.829 2.504-1.405 1.852-5.483 1.273-7.74 2.242-.64 6.235-2.11 6.235-4.886 0-2.792-4.01-4.183-6.3-4.822Zm-.284 8.513a28.54 28.54 0 0 0-1.519-3.685 28.669 28.669 0 0 0 1.46-3.63c1.679.471 5.362 1.55 5.362 3.624 0 2.094-3.534 3.183-5.303 3.691Zm-1.566 7.86c-1.862 1.044-4.628-1.457-5.902-2.646a29.337 29.337 0 0 0 2.514-3.096 30.781 30.781 0 0 0 4.064-.607c.407 1.596 1.194 5.299-.676 6.348Zm-13.726-.016c-1.863-1.04-1.011-4.616-.584-6.277 1.228.263 2.589.453 4.042.567.83 1.133 1.7 2.174 2.576 3.085-1.083 1.015-4.163 3.671-6.034 2.625Zm-6.843-11.535c0-2.102 3.661-3.172 5.378-3.643a29.371 29.371 0 0 0 1.462 3.673 29.701 29.701 0 0 0-1.48 3.726c-1.637-.454-5.36-1.652-5.36-3.756Zm6.823-11.472c1.87-1.05 4.771 1.506 6.012 2.657a29.945 29.945 0 0 0-2.556 3.066c-1.411.127-2.761.33-4.003.603-.466-1.809-1.321-5.278.547-6.326Zm11.275 7.074a28.95 28.95 0 0 1 2.736.463 26.248 26.248 0 0 1-.96 2.505 41.358 41.358 0 0 0-1.776-2.968Zm-4.365-3.53c.591.621 1.183 1.315 1.766 2.067a38.901 38.901 0 0 0-3.546 0 27.745 27.745 0 0 1 1.78-2.067Zm-6.157 6.497a26.742 26.742 0 0 1-.954-2.517 29.735 29.735 0 0 1 2.72-.453 36.224 36.224 0 0 0-1.766 2.97Zm1.793 5.921a28.046 28.046 0 0 1-2.764-.43c.264-.83.591-1.692.972-2.569a36.235 36.235 0 0 0 1.792 3Zm4.4 3.526a28.092 28.092 0 0 1-1.805-2.095c1.188.046 2.378.046 3.566-.006a26.589 26.589 0 0 1-1.761 2.1Zm6.117-6.57c.401.887.739 1.744 1.007 2.56a27.96 27.96 0 0 1-2.798.462 41.272 41.272 0 0 0 1.791-3.021Zm-3.42 3.172a41.495 41.495 0 0 1-5.463.01 34.848 34.848 0 0 1-2.746-4.598 34.914 34.914 0 0 1 2.73-4.59c1.82-.133 3.65-.133 5.469.001a39.139 39.139 0 0 1 2.739 4.571 39.096 39.096 0 0 1-2.729 4.607ZM302.83 5.41c1.871 1.046 1.038 4.76.63 6.376a31.621 31.621 0 0 0-4.012-.614 29.252 29.252 0 0 0-2.536-3.07c1.258-1.174 4.066-3.728 5.918-2.692Z" clip-rule="evenodd"/><path fill="#1ABCFE" fill-rule="evenodd" d="M336 16.942a4.5 4.5 0 1 1 9 0 4.5 4.5 0 0 1-9 0Z" clip-rule="evenodd"/><path fill="#0ACF83" fill-rule="evenodd" d="M327 25.942a4.5 4.5 0 0 1 4.5-4.5h4.5v4.5a4.5 4.5 0 0 1-9 0Z" clip-rule="evenodd"/><path fill="#FF7262" fill-rule="evenodd" d="M336 3.442v9h4.5a4.5 4.5 0 0 0 0-9H336Z" clip-rule="evenodd"/><path fill="#F24E1E" fill-rule="evenodd" d="M327 7.942a4.5 4.5 0 0 0 4.5 4.5h4.5v-9h-4.5a4.5 4.5 0 0 0-4.5 4.5Z" clip-rule="evenodd"/><path fill="#A259FF" fill-rule="evenodd" d="M327 16.942a4.5 4.5 0 0 0 4.5 4.5h4.5v-9h-4.5a4.5 4.5 0 0 0-4.5 4.5Z" clip-rule="evenodd"/><path fill="#fff" fill-rule="evenodd" d="M391.707 7.639h-.304a2.9 2.9 0 0 0-2.908 2.897v6.48a2.357 2.357 0 0 1-2.346 2.342 2.43 2.43 0 0 1-1.962-1.02l-6.63-9.451a2.938 2.938 0 0 0-2.414-1.253c-1.511 0-2.871 1.283-2.871 2.866v6.517a2.351 2.351 0 0 1-2.346 2.343 2.43 2.43 0 0 1-1.964-1.02l-7.418-10.576c-.168-.239-.544-.121-.544.17v5.652c0 .286.087.563.251.797l7.3 10.408c.431.616 1.067 1.072 1.801 1.238 1.836.417 3.526-.994 3.526-2.792v-6.514a2.344 2.344 0 0 1 2.346-2.342h.004a2.4 2.4 0 0 1 1.963 1.02l6.629 9.45a2.878 2.878 0 0 0 2.413 1.253c1.545 0 2.868-1.284 2.868-2.866v-6.516a2.344 2.344 0 0 1 2.347-2.343h.258a.293.293 0 0 0 .294-.293V7.931a.293.293 0 0 0-.294-.293h.001Z" clip-rule="evenodd"/><path fill="#0056A6" d="M401.847 25.408V8.477c0-3.035 2.372-5.535 5.346-5.535h17.309c2.973 0 5.345 2.5 5.345 5.535v16.931c0 3.035-2.372 5.534-5.345 5.534h-17.309c-2.974 0-5.346-2.499-5.346-5.534Z"/><path fill="#86C5FF" d="M402.43 8.477c0-2.735 2.133-4.951 4.762-4.951h17.31c2.63 0 4.762 2.216 4.762 4.95v16.932c0 2.735-2.132 4.951-4.762 4.951h-17.31c-2.629 0-4.762-2.216-4.762-4.95V8.476Z"/><path fill="#EDF6FF" d="M422.095 7.697c1.354-1.354 3.668-.395 3.669 1.52v15.532a2.15 2.15 0 0 1-2.15 2.15h-15.531c-1.915 0-2.873-2.316-1.52-3.67l15.532-15.532Zm1.52 18.617h.04c.025 0 .05-.004.074-.006-.037.003-.075.006-.114.006Zm-15.596 0h.064c-.037 0-.073-.002-.108-.005.014.001.029.004.044.004Zm-.159-.015Zm15.931.005Zm-16.041-.024.044.008-.044-.008Zm16.203-.004Zm-16.342-.032Zm16.484-.006c.027-.008.053-.019.08-.03-.027.011-.053.022-.08.03Zm-16.58-.027.063.023-.063-.023Zm-.103-.043Zm16.822.018Zm-16.93-.075Zm17.07.006.062-.036-.062.036Zm-17.157-.059Zm17.284-.019Zm-17.362-.036.027.02-.027-.02Zm-.092-.076.035.032-.035-.032Zm17.571.023c.022-.018.042-.038.063-.058-.021.02-.041.04-.063.058Zm.109-.1.046-.051-.046.05Zm-17.887-.148.015.022-.015-.022Zm18.183-.274Zm-18.508-.727Zm.07-.425-.011.036.011-.036Zm.038-.105-.014.035.014-.035Zm.051-.113-.026.053.026-.053Zm.058-.106-.035.06.035-.06Zm.064-.098Zm.076-.097Zm.059-.069a7.809 7.809 0 0 0 .045-.046l-.045.046Zm.043 2.168Zm18.084-.5Zm-18.543-.655v.041-.04Z"/><mask id="e" width="20" height="20" x="406" y="7" maskUnits="userSpaceOnUse" style="mask-type:alpha"><path fill="#333" d="M422.507 8.11c.987-.986 2.673-.288 2.673 1.107V24.75c0 .865-.701 1.566-1.565 1.566h-15.532c-1.395 0-2.094-1.687-1.107-2.673L422.507 8.11Z"/></mask><g mask="url(#e)"><path fill="#0285FF" d="M406.514-83.018h6.222v200h-6.222z"/><path fill="#0056A6" d="M412.736-83.018h6.222v200h-6.222z"/><path fill="#001D38" d="M418.958-83.018h6.222v200h-6.222z"/></g><path fill="#77E7FF" d="M463.516 3.594c2.465-1.804 5.652.902 4.329 3.608l-4.87 7.576c-.481.962-.361 2.164.24 3.006l6.073 6.675c1.804 2.465-.901 5.652-3.607 4.329l-7.576-4.81c-.963-.482-2.165-.361-3.007.24l-6.674 6.073c-2.466 1.804-5.652-.902-4.33-3.608l4.871-7.576c.481-.962.361-2.165-.241-3.006l-6.073-6.735c-1.804-2.465.902-5.652 3.608-4.33l7.576 4.871c.962.481 2.165.361 3.007-.24l6.674-6.073Z"/><path fill="#B377FF" d="M465.801 5.157c2.766-1.323 5.412 1.924 3.608 4.33l-6.133 6.614a2.863 2.863 0 0 0-.301 3.006l4.81 7.636c1.323 2.766-1.924 5.412-4.329 3.608l-6.614-6.133a2.866 2.866 0 0 0-3.007-.3l-7.636 4.81c-2.766 1.322-5.412-1.925-3.608-4.33l6.133-6.614a2.863 2.863 0 0 0 .301-3.006l-4.81-7.637c-1.323-2.766 1.924-5.411 4.329-3.607l6.614 6.133a2.865 2.865 0 0 0 3.007.3l7.636-4.81Z"/><path fill="#3F20FB" d="M464.659 4.255c2.585-1.563 5.592 1.383 3.968 3.969l-5.111 7.155a2.987 2.987 0 0 0 0 3.006l5.111 7.156c1.563 2.585-1.383 5.592-3.968 3.968l-7.156-5.11a2.986 2.986 0 0 0-3.006 0l-7.156 5.11c-2.645 1.684-5.592-1.323-4.028-3.908l5.111-7.155a2.987 2.987 0 0 0 0-3.007l-5.111-7.155c-1.564-2.586 1.383-5.592 3.968-3.969l7.156 5.111a2.986 2.986 0 0 0 3.006 0l7.216-5.17Z"/><path fill="#fff" d="M507.992 14.403a6.972 6.972 0 0 0-.599-5.73 7.055 7.055 0 0 0-7.599-3.385 6.976 6.976 0 0 0-5.261-2.345 7.056 7.056 0 0 0-6.73 4.884 6.98 6.98 0 0 0-4.665 3.384 7.058 7.058 0 0 0 .868 8.272 6.976 6.976 0 0 0 .6 5.73 7.055 7.055 0 0 0 7.599 3.384 6.97 6.97 0 0 0 5.261 2.345 7.055 7.055 0 0 0 6.732-4.888 6.979 6.979 0 0 0 4.665-3.383 7.056 7.056 0 0 0-.87-8.27l-.001.002Zm-10.524 14.71a5.228 5.228 0 0 1-3.359-1.215c.042-.023.117-.064.165-.094l5.576-3.22a.906.906 0 0 0 .458-.793v-7.86l2.357 1.36a.082.082 0 0 1 .045.065v6.51a5.254 5.254 0 0 1-5.242 5.247Zm-11.274-4.816a5.23 5.23 0 0 1-.626-3.515c.042.024.114.069.166.098l5.575 3.22a.91.91 0 0 0 .917 0l6.806-3.93v2.721a.086.086 0 0 1-.033.073l-5.636 3.254a5.253 5.253 0 0 1-7.168-1.92h-.001Zm-1.467-12.17a5.226 5.226 0 0 1 2.731-2.3l-.003.192v6.44a.906.906 0 0 0 .458.794l6.806 3.93-2.356 1.36a.084.084 0 0 1-.08.007l-5.637-3.257a5.253 5.253 0 0 1-1.92-7.165l.001-.001Zm19.36 4.505-6.806-3.93 2.356-1.36a.084.084 0 0 1 .08-.007l5.636 3.254a5.249 5.249 0 0 1-.81 9.47v-6.634a.904.904 0 0 0-.455-.793h-.001Zm2.345-3.53a6.258 6.258 0 0 0-.165-.098l-5.576-3.22a.908.908 0 0 0-.916 0l-6.807 3.93v-2.721a.09.09 0 0 1 .034-.073l5.636-3.252a5.246 5.246 0 0 1 7.793 5.434h.001Zm-14.745 4.85-2.357-1.36a.082.082 0 0 1-.045-.065v-6.51a5.248 5.248 0 0 1 8.605-4.03 4.549 4.549 0 0 0-.165.094l-5.576 3.22a.905.905 0 0 0-.458.793l-.004 7.857v.002Zm1.281-2.76 3.031-1.75 3.032 1.75v3.5l-3.032 1.75-3.031-1.75v-3.5ZM536.883 2.974h-9.932a.72.72 0 0 0-.72.72v17.651a9.56 9.56 0 0 0 9.541 9.547.718.718 0 0 0 .72-.72v-8.107h.385a9.549 9.549 0 0 0 8.975-13.238 9.55 9.55 0 0 0-8.975-5.853h.006Zm-1.837 26.448a8.117 8.117 0 0 1-7.348-7.348h7.348v7.348Zm0-11.123-6.929-13.886h6.942l-.013 13.886Zm1.837 2.327h-.385V4.413h.385a8.109 8.109 0 1 1 0 16.213Z"/><g clip-path="url(#f)"><mask id="g" width="32" height="33" x="560" y="0" maskUnits="userSpaceOnUse" style="mask-type:luminance"><path fill="#fff" d="M592 .942h-32v32h32v-32Z"/></mask><g mask="url(#g)"><mask id="h" width="32" height="35" x="560" y="-2" maskUnits="userSpaceOnUse" style="mask-type:luminance"><path fill="#fff" d="M560 .943h32v32h-32v-32ZM586.571-1.8h-13.083v30.004h13.083V-1.8Z"/></mask><g mask="url(#h)"><path fill="#FBBC04" d="m561.371 27.457 13.258-21.029h8.228v2.926l-11.428 18.103"/></g><path fill="#1A73E8" d="M582.857 27.457h-8.228V6.428h8.228v21.029Z"/><path fill="#34A853" d="M588.8 21.514a5.943 5.943 0 0 1-5.943 5.943V15.57a5.943 5.943 0 0 1 5.943 5.943Z"/><path fill="#0D652D" d="M582.857 27.457a5.943 5.943 0 1 1 0-11.886v11.886Z"/><path fill="#1A73E8" d="M587.429 11a4.572 4.572 0 0 1-4.572 4.571V6.428A4.572 4.572 0 0 1 587.429 11Z"/><path fill="#174EA6" d="M582.857 15.571a4.571 4.571 0 0 1 0-9.143v9.143Z"/><path fill="#EA4335" d="M561.829 10.543a4.114 4.114 0 1 1 8.229 0 4.114 4.114 0 0 1-8.229 0Z"/></g></g><defs><linearGradient id="b" x1="218.956" x2="224.478" y1="21.064" y2="27.909" gradientUnits="userSpaceOnUse"><stop stop-color="#fff"/><stop offset="1" stop-color="#fff" stop-opacity="0"/></linearGradient><linearGradient id="c" x1="220.822" x2="220.791" y1="11.342" y2="19.567" gradientUnits="userSpaceOnUse"><stop stop-color="#fff"/><stop offset="1" stop-color="#fff" stop-opacity="0"/></linearGradient><clipPath id="d"><path fill="#fff" d="M240 .942h32v32h-32z"/></clipPath><clipPath id="f"><path fill="#fff" d="M560 .942h32v32h-32z"/></clipPath></defs></svg>